{"glyphs":{"0":{"ha":797,"x_min":0,"x_max":0,"o":"m 727 417 b 398 830 727 620 613 830 b 69 417 183 830 69 620 b 398 1 69 212 182 1 b 727 417 614 1 727 212 z m 400 62 b 257 220 301 62 257 120 l 257 603 b 400 779 257 703 302 779 b 544 601 501 779 544 700 l 544 220 b 400 62 544 125 495 62 z "},"1":{"ha":627,"x_min":0,"x_max":0,"o":"m 407 828 l 192 833 l 191 754 b 241 656 226 739 241 708 l 241 2 l 407 2 z "},"2":{"ha":729,"x_min":0,"x_max":0,"o":"m 680 220 l 656 232 b 543 191 631 202 593 191 l 119 191 b 656 609 308 259 656 384 b 380 841 656 755 525 841 b 57 608 235 841 57 759 b 160 494 57 548 101 494 b 245 577 204 494 245 533 b 161 664 245 622 210 664 b 132 660 147 664 139 663 b 322 780 155 723 222 780 b 478 609 419 780 478 707 b 56 190 478 436 174 272 l 56 23 l 587 25 z "},"3":{"ha":729,"x_min":0,"x_max":0,"o":"m 251 202 b 163 291 251 251 211 291 b 62 180 105 291 62 238 b 89 97 62 148 73 121 b 319 -6 133 31 221 -6 b 673 292 500 -6 673 109 b 435 554 673 433 567 538 l 619 662 l 642 828 l 178 827 l 84 631 l 108 619 b 222 660 133 649 164 660 l 518 660 l 164 443 l 201 417 b 311 446 234 436 273 446 b 518 244 425 446 518 362 b 304 35 518 124 422 35 b 126 122 235 35 168 68 b 162 114 138 116 150 114 b 251 202 214 114 251 156 z "},"4":{"ha":729,"x_min":0,"x_max":0,"o":"m 575 390 b 575 839 575 540 575 690 b 479 839 543 839 511 839 l 479 839 l 25 353 l 25 259 l 387 259 l 387 12 l 575 12 b 575 259 575 94 575 177 l 667 259 l 713 425 l 689 436 b 575 390 658 410 621 396 z m 387 675 l 387 387 l 126 387 z "},"5":{"ha":683,"x_min":0,"x_max":0,"o":"m 505 836 l 222 836 l 142 387 b 476 189 340 416 476 341 b 303 1 476 88 404 1 b 166 87 236 1 187 38 b 183 85 171 86 177 85 b 268 170 230 85 268 124 b 180 256 268 217 227 256 b 79 142 122 256 79 202 b 310 -37 79 26 199 -37 b 629 259 477 -37 629 92 b 209 558 629 448 476 590 l 230 668 l 541 668 l 638 873 l 614 885 b 505 836 595 850 557 836 z "},"6":{"ha":737,"x_min":0,"x_max":0,"o":"m 510 699 b 587 618 510 655 543 618 b 667 705 635 618 667 657 b 449 854 667 810 553 854 b 61 404 200 854 61 656 b 401 -2 61 184 186 -2 b 698 282 559 -2 698 113 b 386 571 698 450 555 571 b 254 546 341 571 296 563 b 254 563 254 552 254 557 b 462 793 254 686 341 793 b 551 771 493 793 523 786 b 510 699 528 759 510 733 z m 565 276 b 415 64 565 176 520 64 b 258 296 302 64 258 187 b 406 498 258 397 304 498 b 565 276 516 498 565 379 z "},"7":{"ha":652,"x_min":0,"x_max":0,"o":"m 649 830 l 108 830 l 50 604 l 73 592 b 171 642 88 628 123 642 l 500 642 l 219 0 l 288 0 z "},"8":{"ha":765,"x_min":0,"x_max":0,"o":"m 716 247 b 531 469 716 360 634 434 b 679 653 614 499 679 557 b 403 850 679 793 539 850 b 110 648 263 850 110 794 b 249 470 110 556 170 499 b 70 237 146 433 70 355 b 386 0 70 75 231 0 b 716 247 549 0 716 77 z m 388 497 b 270 643 312 497 270 569 b 389 793 270 718 311 793 b 508 643 467 793 508 719 b 388 497 508 569 465 497 z m 384 446 b 388 446 385 446 387 446 b 396 446 391 446 394 446 b 539 261 489 443 539 350 b 390 76 539 171 487 76 b 244 261 293 76 244 169 b 384 446 244 351 291 442 z "},"9":{"ha":729,"x_min":0,"x_max":0,"o":"m 255 144 b 177 221 255 187 220 221 b 97 137 130 221 97 183 b 308 4 97 39 209 4 b 686 460 555 4 686 216 b 352 838 686 666 559 838 b 58 553 188 838 58 720 b 352 262 58 386 187 262 b 491 296 400 262 448 273 b 290 57 483 177 416 57 b 214 76 263 57 237 63 b 255 144 236 88 255 111 z m 209 566 b 354 764 209 661 253 764 b 505 544 462 764 505 648 b 362 351 505 447 461 351 b 209 566 254 351 209 465 z "},"̍":{"ha":694,"x_min":0,"x_max":0,"o":"m 69 0 l 625 0 l 625 771 l 69 771 z m 139 69 l 139 701 l 556 701 l 556 69 z "},"̎":{"ha":694,"x_min":0,"x_max":0,"o":"m 69 0 l 625 0 l 625 771 l 69 771 z m 139 69 l 139 701 l 556 701 l 556 69 z "},"‚":{"ha":694,"x_min":0,"x_max":0,"o":"m 69 0 l 625 0 l 625 771 l 69 771 z m 139 69 l 139 701 l 556 701 l 556 69 z "},"‛":{"ha":694,"x_min":0,"x_max":0,"o":"m 69 0 l 625 0 l 625 771 l 69 771 z m 139 69 l 139 701 l 556 701 l 556 69 z "}," ":{"ha":291,"x_min":0,"x_max":0,"o":""},"!":{"ha":247,"x_min":0,"x_max":0,"o":"m 19 93 l 125 -13 l 229 91 l 123 197 z m 117 245 l 149 245 l 199 887 l 177 887 l 17 785 l 17 768 b 63 694 51 768 57 739 z "},"\"":{"ha":458,"x_min":0,"x_max":0,"o":"m 360 460 l 392 460 l 442 887 l 420 887 l 260 785 l 260 768 b 328 658 311 761 319 708 z m 117 460 l 149 460 l 199 887 l 177 887 l 17 785 l 17 768 b 84 658 68 761 76 708 z "},"#":{"ha":807,"x_min":0,"x_max":0,"o":"m 94 529 l 226 529 l 226 410 l 91 410 l 94 286 l 226 286 l 226 159 l 350 159 b 350 286 350 201 350 243 l 469 286 b 469 159 469 243 469 201 l 593 159 l 593 286 l 712 286 l 712 410 l 593 410 l 593 529 l 712 529 l 712 653 l 593 653 l 593 775 l 469 775 b 469 653 469 735 469 694 l 350 653 b 350 782 350 696 350 739 l 226 782 l 226 653 l 91 653 z m 469 410 l 350 410 b 350 529 350 449 350 489 l 469 529 b 469 410 469 489 469 449 z "},"$":{"ha":756,"x_min":0,"x_max":0,"o":"m 326 932 l 326 862 b 155 748 296 850 254 821 l 76 689 l 76 456 l 238 350 l 227 341 b 13 21 145 267 13 144 b 18 -35 13 2 13 -15 l 56 -19 b 53 -5 55 -14 54 -10 b 193 94 42 79 129 94 b 326 56 243 94 288 79 l 326 -64 l 359 -64 l 359 34 b 400 -4 374 22 388 9 l 419 8 l 419 -64 l 451 -64 l 451 28 l 717 196 l 717 486 b 545 581 669 526 611 560 b 739 911 636 662 738 761 l 739 927 l 727 927 l 727 927 l 723 927 l 707 927 b 707 927 707 927 707 927 l 706 927 b 568 811 701 857 638 811 b 451 848 528 811 489 831 l 451 932 l 419 932 l 419 861 b 376 869 404 866 390 869 b 359 869 370 869 364 869 l 359 932 z m 326 473 l 227 542 l 227 741 l 249 756 b 326 713 273 741 298 726 z m 451 676 b 491 674 464 674 477 674 b 627 711 541 674 588 687 b 497 582 587 661 539 619 l 451 541 z m 419 681 l 419 512 l 359 458 l 359 699 b 419 681 378 692 398 685 z m 451 461 l 566 405 l 566 139 l 544 128 b 451 188 517 150 486 171 z m 419 203 b 359 222 400 210 380 217 l 359 415 l 419 469 z m 326 228 b 275 231 310 230 293 231 b 116 182 213 231 158 213 b 249 317 157 235 210 282 l 326 386 z "},"%":{"ha":1163,"x_min":0,"x_max":0,"o":"m 557 612 b 336 834 557 762 429 834 b 115 614 190 834 115 712 b 340 393 115 468 238 393 b 557 612 474 393 557 504 z m 248 664 b 340 796 248 675 240 796 b 432 662 437 796 432 681 l 432 556 b 341 439 432 453 375 439 b 248 559 241 439 248 555 z m 762 833 l 304 7 l 385 7 l 840 833 z m 1043 230 b 822 451 1043 380 915 451 b 601 231 676 451 601 330 b 823 11 601 96 712 11 b 1043 230 974 11 1043 137 z m 734 282 b 826 413 734 377 769 413 b 918 280 930 413 918 280 l 918 173 b 827 57 918 84 874 57 b 734 177 729 57 734 165 z "},"&":{"ha":854,"x_min":0,"x_max":0,"o":"m 283 806 b 362 712 332 806 362 762 b 307 593 362 667 340 628 b 221 746 262 656 221 720 b 283 806 221 781 248 806 z m 233 447 l 459 160 b 317 109 416 129 369 109 b 149 267 226 109 149 173 b 233 447 149 332 186 391 z m 496 113 l 585 0 l 794 0 l 596 237 b 696 406 635 295 669 355 l 697 406 l 858 564 l 843 580 l 813 553 l 564 553 l 437 427 l 420 447 b 335 555 408 462 372 505 b 456 765 399 623 456 690 b 342 879 456 830 407 879 b 92 669 260 879 92 778 b 136 569 92 625 114 598 l 194 496 b 8 237 102 426 8 352 b 251 -11 8 112 89 -11 b 496 113 344 -11 426 41 z m 567 271 l 455 406 l 655 406 b 567 271 630 364 601 316 z "},"'":{"ha":215,"x_min":0,"x_max":0,"o":"m 117 460 l 149 460 l 199 887 l 177 887 l 17 785 l 17 768 b 84 658 68 761 76 708 z "},"(":{"ha":369,"x_min":0,"x_max":0,"o":"m 340 927 l 352 908 b 131 435 225 811 131 640 b 350 -33 131 234 225 62 l 339 -53 b 14 437 165 21 14 202 b 340 927 14 672 165 854 z "},")":{"ha":369,"x_min":0,"x_max":0,"o":"m 25 927 l 14 908 b 235 435 140 811 235 640 b 15 -33 235 234 141 62 l 27 -53 b 352 437 201 21 352 202 b 25 927 352 672 200 854 z "},"*":{"ha":458,"x_min":0,"x_max":0,"o":"m 226 653 l 223 651 l 220 653 l 221 657 l 224 657 z m 238 648 l 439 688 l 435 699 l 362 759 l 354 756 b 312 707 358 731 334 719 l 233 667 l 257 870 l 246 870 l 166 819 l 166 811 b 200 756 192 807 196 781 l 214 668 l 28 754 l 24 743 l 49 652 l 57 649 b 119 664 68 672 94 668 l 207 650 l 68 500 l 77 493 l 172 488 l 176 495 b 182 559 158 513 170 536 l 221 638 l 322 459 l 331 466 l 365 554 l 360 561 b 301 586 338 549 319 568 z "},"+":{"ha":664,"x_min":0,"x_max":0,"o":"m 40 362 l 277 362 l 277 117 l 400 229 l 400 362 l 524 362 l 637 486 l 400 486 l 400 737 l 277 625 l 277 486 l 152 486 z "},",":{"ha":273,"x_min":0,"x_max":0,"o":"m 174 198 l 17 96 l 32 71 l 47 81 b 77 92 56 87 64 92 b 156 -31 131 92 156 23 b 77 -166 156 -96 124 -143 l 84 -178 b 260 52 249 -69 260 14 b 174 198 260 120 219 171 z "},"-":{"ha":613,"x_min":0,"x_max":0,"o":"m 584 540 l 567 557 l 540 529 l 187 529 l 46 371 l 62 354 l 90 382 l 442 382 z "},".":{"ha":256,"x_min":0,"x_max":0,"o":"m 23 93 l 129 -13 l 233 91 l 127 197 z "},"/":{"ha":483,"x_min":0,"x_max":0,"o":"m 500 917 l 125 -50 l -7 -49 l 366 917 z "},":":{"ha":256,"x_min":0,"x_max":0,"o":"m 23 487 l 129 381 l 233 485 l 127 591 z m 23 93 l 129 -13 l 233 91 l 127 197 z "},";":{"ha":296,"x_min":0,"x_max":0,"o":"m 23 417 l 129 311 l 233 416 l 127 521 z m 187 198 l 30 96 l 45 71 l 60 81 b 90 92 68 87 77 92 b 169 -31 144 92 169 23 b 90 -166 169 -96 136 -143 l 97 -178 b 273 52 262 -69 273 14 b 187 198 273 120 231 171 z "},"<":{"ha":492,"x_min":0,"x_max":0,"o":"m 100 447 l 100 438 l 453 255 l 361 81 l 338 92 l 358 135 l 29 314 b 51 443 44 355 51 399 b 29 572 51 487 44 531 l 358 751 l 338 794 l 361 805 l 453 631 z "},"=":{"ha":807,"x_min":0,"x_max":0,"o":"m 77 501 l 631 501 l 743 625 l 189 625 z m 77 258 l 631 258 l 743 382 l 189 382 z "},">":{"ha":492,"x_min":0,"x_max":0,"o":"m 382 447 l 382 438 l 29 255 l 120 81 l 144 92 l 124 135 l 453 314 b 431 443 438 355 431 399 b 453 572 431 487 438 531 l 124 751 l 144 794 l 120 805 l 29 631 z "},"?":{"ha":404,"x_min":0,"x_max":0,"o":"m 24 93 l 130 -13 l 234 91 l 128 197 z m 380 682 l 120 861 l 140 904 l 117 916 l 25 741 l 309 558 l 76 449 l 100 230 l 130 231 b 235 369 130 318 182 347 l 345 414 b 336 558 335 459 329 512 b 380 682 343 607 358 647 z "},"@":{"ha":995,"x_min":0,"x_max":0,"o":"m 780 -6 b 460 -112 780 -6 657 -112 b 151 289 290 -112 162 65 b 449 703 138 532 297 703 b 837 376 668 703 826 586 b 720 144 845 218 781 186 l 668 194 l 668 527 l 565 552 b 285 295 383 590 284 455 b 433 55 286 145 340 73 l 543 135 l 629 52 l 717 113 b 947 444 822 182 957 253 b 531 781 936 645 799 781 b 62 222 388 781 40 636 b 425 -211 74 -19 209 -211 b 799 -24 625 -211 756 -77 z m 538 148 b 507 144 528 145 517 144 b 401 312 449 144 408 228 b 538 517 394 403 413 542 b 538 148 538 394 538 271 z "},"A":{"ha":888,"x_min":0,"x_max":0,"o":"m 803 861 l 778 882 l 701 817 b 500 877 642 855 571 877 b 184 588 336 877 184 764 b 321 364 184 482 243 403 l 201 163 b 51 -12 129 124 77 59 l 73 -12 b 275 75 125 43 199 75 b 456 8 340 75 406 51 l 585 120 b 725 -4 625 73 672 31 l 878 120 l 845 158 l 806 126 b 756 291 760 161 756 214 l 756 734 b 783 839 756 779 763 812 z m 580 734 b 606 718 589 729 598 724 l 606 421 l 394 421 z m 550 748 l 333 383 b 248 555 283 421 248 480 b 464 763 248 677 342 763 b 550 748 494 763 523 758 z m 331 315 l 324 302 l 606 302 l 606 206 l 537 147 b 356 201 484 182 420 201 b 253 185 319 201 285 195 z "},"B":{"ha":990,"x_min":0,"x_max":0,"o":"m 166 425 b 202 425 178 425 190 425 b 202 346 202 399 202 373 b 131 138 202 249 195 175 l 142 110 b 351 352 250 137 351 209 l 351 639 b 389 725 351 683 364 705 l 560 859 l 568 884 b 464 856 541 868 505 856 b 306 878 409 856 361 878 b 106 734 205 878 135 804 l 133 734 b 213 785 145 765 173 785 b 356 758 266 785 303 758 b 369 758 361 758 365 758 b 271 696 337 738 304 717 b 202 585 232 672 202 649 b 202 584 202 585 202 585 l 202 555 b 128 536 176 551 151 547 b 60 426 90 518 60 481 b 78 358 60 402 66 379 l 100 358 b 166 425 92 403 124 425 z m 639 146 b 639 181 639 158 639 170 l 807 267 l 807 139 l 713 95 b 639 146 691 114 666 132 z m 639 495 b 791 417 694 476 746 448 l 639 340 b 639 495 639 392 639 443 z m 606 161 b 461 189 563 179 515 189 b 437 188 452 189 444 189 b 560 406 499 240 560 293 l 560 709 b 606 793 560 744 580 774 b 606 161 606 583 606 372 z m 639 303 l 807 388 l 807 304 l 639 219 b 639 303 639 247 639 275 z m 639 799 l 793 618 l 639 503 b 639 799 639 602 639 701 z m 801 577 l 945 678 l 758 897 b 406 649 613 849 492 759 l 406 287 b 376 181 406 241 395 208 b 80 -37 245 155 141 70 l 108 -37 b 347 53 163 17 243 53 b 572 -4 425 53 503 32 l 959 196 l 959 486 b 801 577 914 523 860 555 z "},"C":{"ha":866,"x_min":0,"x_max":0,"o":"m 615 890 l 615 890 l 615 890 l 311 704 b 434 820 341 754 383 794 l 423 837 b 108 400 255 780 108 616 b 502 -20 108 179 281 -20 b 828 278 681 -20 820 104 l 806 278 b 578 113 766 198 686 127 b 578 735 578 320 578 527 b 720 666 623 709 670 686 l 857 810 l 848 821 l 811 791 b 615 890 737 814 673 848 z m 280 288 b 249 460 260 339 249 398 b 283 648 249 531 261 594 l 344 685 b 344 315 344 562 344 439 z m 293 260 l 493 344 l 493 777 l 502 782 b 545 754 516 773 531 763 b 545 110 545 540 545 325 b 539 110 543 110 541 110 b 293 260 421 110 338 169 z "},"D":{"ha":911,"x_min":0,"x_max":0,"o":"m 132 165 l 143 137 b 352 378 251 164 352 236 l 352 497 l 352 587 b 408 715 352 651 373 684 l 444 715 b 393 545 407 676 393 619 l 393 337 b 298 164 393 251 343 208 b 57 -36 186 132 105 55 l 90 -36 b 322 53 152 21 237 53 b 521 -11 395 53 464 30 l 811 148 b 887 471 854 235 887 351 b 558 856 887 693 801 856 l 242 856 b 157 908 197 856 165 870 l 133 909 b 205 715 111 829 111 715 l 366 715 l 275 656 b 203 534 233 629 203 603 b 203 506 203 525 203 516 b 69 377 130 494 69 467 b 86 309 69 354 75 330 l 108 309 b 175 376 104 350 127 376 b 203 376 184 376 193 376 b 203 373 203 375 203 374 b 132 165 203 277 196 201 z m 519 167 b 519 318 519 217 519 268 l 730 425 b 665 96 729 299 704 193 b 519 167 622 129 572 153 z m 519 715 b 597 705 546 715 572 713 b 710 578 655 685 690 639 l 519 481 b 519 715 519 559 519 637 z m 486 174 b 414 180 462 178 438 180 b 356 176 394 180 374 179 b 426 337 393 216 426 263 l 426 545 b 486 709 426 623 439 676 b 486 174 486 531 486 352 z m 519 444 l 719 545 b 729 462 725 519 728 491 l 519 355 b 519 444 519 385 519 414 z "},"E":{"ha":853,"x_min":0,"x_max":0,"o":"m 616 890 l 616 890 l 616 890 l 311 704 b 435 820 342 754 384 794 l 424 837 b 108 406 256 783 108 619 b 512 -20 108 182 288 -20 b 841 278 691 -20 832 103 l 818 278 b 579 112 775 198 691 126 b 579 385 579 203 579 294 l 708 385 l 849 532 l 579 532 b 579 735 579 600 579 667 b 720 666 624 709 671 686 l 858 810 l 848 821 l 812 791 b 616 890 738 814 674 848 z m 281 288 b 250 459 260 339 250 397 b 283 648 250 530 262 594 l 345 685 b 345 315 345 562 345 439 z m 293 260 l 494 344 l 494 777 l 503 782 b 546 754 517 773 531 763 b 546 110 546 540 546 325 b 542 110 544 110 543 110 b 293 260 422 110 339 169 z "},"F":{"ha":786,"x_min":0,"x_max":0,"o":"m 175 424 b 229 424 193 424 211 424 b 229 341 229 396 229 369 b 188 82 229 234 230 143 b 57 -51 116 71 57 27 b 200 -190 57 -131 121 -190 b 203 -190 201 -190 202 -190 l 203 -160 b 150 -104 172 -160 150 -131 b 206 -61 150 -77 176 -61 l 239 -61 b 362 -20 287 -61 336 -43 b 598 256 453 62 598 256 l 598 421 l 698 421 l 829 556 l 598 556 l 598 768 b 766 688 647 734 704 706 l 908 828 l 876 853 l 839 819 b 659 908 772 841 714 870 l 435 709 l 435 124 b 409 64 435 95 428 75 b 245 83 356 69 301 80 b 378 241 309 123 378 176 l 378 460 l 378 624 b 469 814 378 724 416 774 b 509 842 483 823 496 832 b 555 871 524 851 540 861 l 557 902 b 454 872 530 885 495 872 b 280 901 393 872 341 901 b 80 750 178 901 109 824 l 107 750 b 189 804 118 781 148 804 b 343 770 246 804 285 770 b 386 775 358 770 373 772 b 298 698 356 751 326 725 b 229 581 266 667 229 644 b 229 581 229 581 229 581 l 229 552 b 137 530 197 547 165 544 b 86 350 79 502 48 422 l 109 350 b 175 424 100 397 130 424 z "},"G":{"ha":934,"x_min":0,"x_max":0,"o":"m 573 281 l 722 356 b 746 284 733 334 742 309 l 573 197 b 573 281 573 225 573 253 z m 573 318 b 573 489 573 375 573 432 b 705 384 625 469 672 432 z m 573 159 l 750 248 b 750 239 750 245 750 242 b 573 18 750 129 678 35 b 573 159 573 65 573 112 z m 288 237 b 253 502 262 319 253 413 b 329 731 253 601 279 678 b 329 392 329 618 329 505 b 326 324 329 369 329 346 b 288 237 321 290 308 260 z m 307 184 b 469 320 385 203 448 252 b 479 397 477 345 479 371 l 479 417 l 540 478 b 540 15 540 324 540 169 b 539 15 540 15 540 15 b 307 184 423 15 350 85 z m 479 808 b 489 810 482 809 486 809 b 688 671 550 763 617 706 l 479 463 l 479 556 z m 675 611 l 868 802 l 844 825 l 806 788 b 603 901 729 815 662 854 l 495 835 b 93 375 281 812 93 609 b 494 -28 93 148 263 -28 b 898 331 706 -28 898 118 b 675 611 898 478 796 586 z "},"H":{"ha":903,"x_min":0,"x_max":0,"o":"m 83 714 b 175 761 104 751 142 761 b 281 751 209 761 245 751 b 480 878 383 751 443 837 l 458 889 b 364 864 427 869 395 864 b 244 874 323 864 283 874 b 61 725 103 874 64 734 z m 183 166 l 183 137 b 312 180 229 142 273 156 b 396 352 396 233 396 310 l 396 610 b 449 778 396 705 411 737 b 449 123 449 560 449 342 b 342 141 414 135 378 141 b 52 -40 148 141 64 -15 l 87 -40 b 254 31 130 5 192 31 b 385 -10 316 31 362 5 l 500 100 b 482 110 494 104 488 107 b 482 397 482 205 482 301 l 640 397 l 640 140 l 581 94 l 594 77 l 622 98 l 734 -4 l 887 126 l 871 143 l 834 112 l 802 149 l 802 776 l 845 812 l 825 837 l 791 809 l 703 881 l 569 772 l 570 740 l 609 770 l 641 741 l 640 532 l 482 532 b 482 813 482 626 482 720 l 449 813 l 419 780 b 363 726 402 760 384 742 b 247 557 298 677 247 662 l 247 528 b 112 400 185 517 112 495 b 130 332 112 377 118 353 l 152 332 b 218 399 145 372 170 399 b 247 399 228 399 237 399 l 247 396 b 183 166 247 223 234 194 z "},"I":{"ha":712,"x_min":0,"x_max":0,"o":"m 204 174 l 242 174 b 408 282 307 193 377 226 b 425 371 421 307 425 335 l 425 460 l 425 624 b 486 756 425 725 457 730 b 587 848 519 784 557 801 l 589 878 b 490 841 557 848 518 841 b 318 870 433 841 377 870 b 109 703 195 870 128 748 l 137 703 b 215 749 148 731 177 749 b 358 733 262 749 308 733 b 386 734 367 733 376 733 b 347 707 373 726 360 717 b 275 581 280 656 275 631 l 275 551 b 128 418 213 541 128 522 b 145 350 128 395 134 371 l 167 350 b 166 363 166 354 166 359 b 233 424 166 389 177 424 b 275 424 247 424 261 424 l 275 340 b 273 281 275 320 275 300 b 204 174 266 232 241 193 z m 192 153 b 455 90 271 153 365 115 b 490 185 480 102 490 104 l 490 623 b 621 816 490 750 532 757 l 689 861 l 706 842 b 653 716 668 818 653 776 l 653 271 b 410 4 590 165 507 74 b 335 -23 390 -11 369 -23 b 288 -18 319 -23 304 -20 l 182 -4 b 166 -3 176 -4 171 -3 b 122 -44 141 -3 122 -19 b 179 -97 122 -74 149 -97 b 179 -97 179 -97 179 -97 l 179 -116 b 52 20 90 -116 52 -56 b 192 153 52 100 115 153 z "},"J":{"ha":719,"x_min":0,"x_max":0,"o":"m 277 358 b 305 358 286 358 296 358 l 305 58 b 250 -16 305 16 282 -7 l 250 -54 b 458 153 384 -54 458 49 l 458 628 b 614 861 458 727 491 771 l 588 885 b 464 844 553 858 512 844 b 256 876 392 844 327 876 b 84 722 163 876 84 815 b 183 582 84 652 130 601 l 187 592 b 147 648 166 599 147 620 b 256 725 147 703 201 725 b 379 716 297 725 337 716 b 444 721 401 716 422 718 b 305 534 320 631 305 596 l 305 488 b 171 359 249 479 171 454 b 188 291 171 336 177 312 l 210 291 b 277 358 203 335 233 358 z m 156 179 b 245 93 204 179 245 140 b 162 10 245 45 209 10 b 127 17 150 10 138 12 b 287 -82 153 -40 209 -82 b 508 177 372 -82 508 -27 l 508 529 b 695 863 508 759 579 775 l 709 848 b 661 624 675 810 661 751 l 661 304 b 290 -110 661 -95 355 -110 b 156 -80 244 -110 197 -101 b 54 67 106 -55 54 -5 b 156 179 54 127 97 179 z "},"K":{"ha":949,"x_min":0,"x_max":0,"o":"m 208 426 b 240 426 219 426 229 426 l 240 329 b 235 262 240 307 239 284 b 168 169 226 220 202 186 l 206 169 b 370 293 271 194 339 233 b 389 395 384 321 389 354 l 389 484 l 389 589 b 501 842 389 720 443 795 b 509 849 503 844 506 846 l 511 866 b 422 837 487 849 459 837 b 273 869 366 837 328 869 b 85 703 177 869 111 751 l 112 703 b 180 752 118 732 145 752 b 306 729 224 752 259 729 b 373 746 330 729 352 735 l 324 705 b 240 555 276 664 246 653 b 106 428 185 553 106 533 b 121 359 106 404 112 381 l 143 359 b 208 426 136 399 162 426 z m 535 688 l 552 671 l 596 720 b 683 688 622 703 652 692 l 468 435 l 472 609 b 608 856 475 728 520 795 l 589 883 b 440 610 427 770 441 640 l 434 358 b 298 161 432 272 403 229 b 96 -26 209 126 137 55 l 132 -26 b 311 65 166 27 228 65 b 375 58 333 65 354 63 b 516 -9 426 46 475 23 l 678 118 b 781 -8 697 65 726 18 l 958 133 l 958 168 l 879 106 b 785 309 822 155 807 232 b 587 537 758 402 722 496 l 714 685 b 714 685 714 685 714 685 b 889 848 821 685 889 765 b 886 875 889 857 888 866 l 871 875 b 778 810 860 839 825 810 b 678 858 734 810 701 831 z m 383 183 b 467 357 451 241 465 288 l 468 403 l 472 403 l 487 420 b 638 256 580 402 614 334 b 671 138 649 217 658 177 l 637 111 b 425 186 578 159 501 186 b 383 183 411 186 397 185 z "},"L":{"ha":832,"x_min":0,"x_max":0,"o":"m 167 402 b 201 402 179 402 190 402 l 201 329 b 130 111 201 219 177 141 l 168 111 b 351 359 253 111 351 231 l 351 589 b 403 756 351 654 365 721 b 418 769 408 761 413 765 b 507 848 469 801 501 841 l 509 879 b 410 841 485 857 452 841 b 256 869 355 841 312 869 b 59 703 132 869 65 714 l 86 703 b 164 749 97 731 126 749 b 297 732 209 749 250 732 b 345 738 314 732 330 734 b 201 546 258 674 201 665 l 201 530 b 133 518 165 529 149 525 b 66 404 93 501 66 460 b 80 335 66 380 71 356 l 102 335 b 167 402 95 375 121 402 z m 424 175 b 551 378 520 248 551 288 l 551 646 b 666 847 551 745 577 821 l 685 853 l 685 878 l 672 876 b 402 546 490 843 402 770 l 402 373 b 354 162 402 272 391 204 b 106 -30 240 132 155 59 l 106 -52 b 400 45 190 11 290 45 b 650 -22 487 45 574 22 l 820 105 l 801 131 l 763 103 b 474 177 684 144 586 177 b 424 175 457 177 440 176 z "},"M":{"ha":1256,"x_min":0,"x_max":0,"o":"m 459 291 z m 731 172 z m 937 111 z m 937 111 z m 432 878 l 454 867 b 272 752 370 773 327 752 b 156 774 228 752 198 774 b 82 723 118 774 93 751 l 60 734 b 218 879 92 836 165 879 b 373 845 276 879 312 845 b 432 878 402 845 417 863 z m 171 400 b 209 400 184 400 196 400 l 209 312 b 154 205 209 263 205 210 l 160 183 b 359 347 253 189 359 232 l 359 605 b 426 741 359 672 388 712 b 426 319 426 601 426 460 b 235 153 426 212 399 153 b 99 17 158 153 99 98 b 223 -118 99 -53 151 -118 b 238 -117 228 -118 233 -117 l 238 -89 b 234 -89 237 -89 235 -89 b 176 -43 205 -89 176 -72 b 270 10 176 2 229 7 b 460 179 374 18 460 65 b 460 180 460 179 460 179 l 459 291 l 459 335 b 582 328 496 362 548 359 b 582 150 582 269 582 209 l 510 100 l 521 83 l 560 111 l 693 0 l 887 144 l 870 161 l 833 136 b 833 335 833 203 833 269 b 953 330 870 361 920 359 l 953 146 l 887 100 l 898 83 l 937 111 l 1070 0 l 1247 144 l 1230 161 l 1165 117 l 1114 161 l 1114 699 l 1175 748 l 1154 773 l 1106 734 l 959 865 l 833 790 b 833 854 833 811 833 833 l 800 854 b 800 770 800 826 800 798 l 737 732 b 576 865 684 776 630 821 l 344 718 b 211 533 252 660 218 609 b 65 401 115 522 65 471 b 82 333 65 377 71 353 l 105 333 b 171 400 97 376 127 400 z m 459 472 b 582 479 497 446 548 449 b 582 362 582 440 582 401 b 459 369 546 394 495 394 z m 459 506 l 459 738 l 582 654 b 582 512 582 607 582 560 b 459 506 548 482 496 479 z m 800 120 l 731 172 l 732 696 l 800 737 b 800 120 800 532 800 326 z m 833 472 b 953 477 870 446 919 449 l 953 364 b 833 369 918 394 868 393 b 833 472 833 403 833 437 z m 833 505 b 833 745 833 585 833 665 l 953 649 l 953 511 b 833 505 919 481 869 480 z "},"N":{"ha":802,"x_min":0,"x_max":0,"o":"m 161 366 b 217 404 161 395 187 404 b 229 404 221 404 225 404 l 229 214 b 228 214 229 214 229 214 b 53 57 132 214 53 150 b 226 -89 53 -45 145 -102 l 232 -68 b 155 -4 192 -72 155 -43 b 214 50 155 29 181 50 b 310 0 256 50 288 24 l 459 166 l 443 183 l 404 138 b 262 211 355 188 300 205 l 262 672 b 271 657 265 667 268 662 l 659 0 l 703 0 l 703 681 b 850 818 782 687 850 739 b 836 876 850 838 846 858 l 821 877 b 750 816 817 842 788 816 b 660 865 709 816 679 841 l 637 866 l 493 699 l 510 682 l 554 732 b 670 681 581 706 622 685 b 670 299 670 554 670 426 l 392 765 b 246 877 361 817 330 877 b 101 725 166 877 101 809 b 104 693 101 714 102 704 l 127 688 b 178 750 127 727 145 750 b 229 717 195 750 212 737 l 229 560 b 228 560 229 560 228 560 b 88 430 151 560 88 503 b 170 323 88 375 126 334 l 176 339 b 161 366 167 345 161 355 z "},"O":{"ha":873,"x_min":0,"x_max":0,"o":"m 231 698 l 302 728 b 302 354 302 603 302 479 l 222 320 b 192 497 202 374 192 435 b 231 698 192 571 206 639 z m 252 742 b 380 889 284 803 329 853 l 364 910 b 49 424 189 839 49 662 b 405 -33 49 163 211 -33 b 852 485 608 -33 852 221 b 585 885 852 682 727 823 z m 233 291 l 451 383 l 451 790 l 454 791 b 505 766 472 783 489 775 b 505 94 505 542 505 318 b 493 94 501 94 497 94 b 233 291 373 94 282 176 z m 538 99 b 538 319 538 172 538 246 l 731 417 b 733 366 733 400 733 383 b 538 99 733 219 643 121 z m 538 746 b 697 558 612 696 665 632 l 538 478 b 538 746 538 567 538 656 z m 538 441 l 708 527 b 727 452 717 503 723 477 l 538 356 b 538 441 538 384 538 412 z "},"P":{"ha":838,"x_min":0,"x_max":0,"o":"m 178 390 l 216 390 l 216 173 b 52 16 133 130 78 63 l 79 16 b 216 100 116 56 164 85 l 216 -96 l 216 -129 l 378 -129 l 459 -129 l 459 -96 l 459 -96 b 459 63 459 -43 459 10 b 496 34 472 54 484 45 l 800 198 l 800 740 b 656 881 760 794 712 842 l 459 737 b 459 853 459 776 459 814 l 426 853 b 426 713 426 806 426 760 l 378 678 l 378 699 b 246 855 378 832 299 855 b 89 710 156 855 92 785 l 117 710 b 172 766 122 737 141 766 b 216 697 201 766 216 738 l 216 505 b 210 505 214 505 212 505 b 80 379 143 505 80 454 b 87 337 80 365 83 351 l 114 337 b 114 340 114 338 114 339 b 178 390 114 373 133 390 z m 652 662 l 652 579 l 459 482 b 459 701 459 555 459 628 l 543 760 b 652 662 583 732 620 698 z m 459 445 l 652 542 l 652 458 l 459 360 b 459 445 459 388 459 417 z m 459 323 l 652 421 l 652 157 l 627 142 b 459 212 577 178 519 202 b 459 323 459 249 459 286 z m 426 216 b 394 217 415 217 405 217 b 378 217 389 217 384 217 l 378 644 l 426 677 b 426 216 426 524 426 370 z m 426 82 b 426 -96 426 22 426 -37 l 378 -96 l 378 100 b 426 82 395 95 411 89 z "},"Q":{"ha":903,"x_min":0,"x_max":0,"o":"m 737 149 b 866 485 813 242 866 363 b 599 885 866 682 741 823 l 265 742 b 394 889 298 803 343 853 l 378 910 b 63 424 203 839 63 662 b 419 -33 63 163 225 -33 b 619 38 484 -33 554 -7 b 790 -123 699 -70 749 -102 l 965 15 l 940 40 l 894 0 b 737 149 806 45 758 112 z m 245 698 l 309 725 l 309 476 b 243 301 309 399 282 329 b 206 497 219 360 206 428 b 245 698 206 571 220 639 z m 552 99 b 552 319 552 172 552 246 l 745 417 b 747 366 747 400 747 383 b 552 99 747 219 656 121 z m 552 746 b 711 558 626 696 679 632 l 552 478 b 552 746 552 567 552 656 z m 519 94 b 507 94 515 94 511 94 b 260 263 397 94 311 163 b 458 481 352 277 458 335 l 458 787 l 468 791 b 519 766 486 783 503 775 b 519 94 519 542 519 318 z m 552 441 l 722 527 b 741 452 730 503 737 477 l 552 356 b 552 441 552 384 552 412 z "},"R":{"ha":949,"x_min":0,"x_max":0,"o":"m 184 780 b 231 709 221 780 231 747 l 231 498 b 90 370 175 498 90 481 b 105 301 90 346 96 323 l 127 301 b 192 368 120 341 146 368 b 231 368 205 368 218 368 l 231 148 b 51 -30 152 110 88 45 l 86 -30 b 265 62 121 24 182 62 b 470 -13 367 62 448 5 l 655 133 b 763 -12 672 74 699 19 l 940 129 l 940 164 l 860 103 b 634 486 737 209 815 409 l 803 631 l 619 882 l 473 761 b 473 858 473 793 473 825 l 440 858 b 440 733 440 816 440 775 l 394 695 l 394 712 b 261 868 394 845 314 868 b 104 723 171 868 107 798 l 132 723 b 184 780 132 753 154 780 z m 394 182 l 394 655 l 440 696 b 440 177 440 523 440 350 b 394 182 425 180 409 181 z m 473 169 b 473 348 473 229 473 288 l 511 380 b 649 154 617 354 625 251 l 591 108 b 473 169 557 136 516 157 z m 473 724 l 509 755 l 656 546 l 473 388 b 473 724 473 500 473 612 z "},"S":{"ha":775,"x_min":0,"x_max":0,"o":"m 110 689 l 110 456 l 272 350 l 262 341 b 52 21 179 267 52 153 b 340 -217 52 -123 188 -217 b 673 14 492 -217 639 -121 l 642 23 b 343 -128 608 -87 459 -128 b 88 -5 243 -128 109 -109 b 228 94 77 79 163 94 b 435 -4 315 94 386 49 l 752 196 l 752 486 b 580 581 704 526 645 560 b 774 911 670 662 773 761 l 774 927 l 762 927 l 762 927 l 758 927 l 741 927 b 741 927 741 927 741 927 l 741 927 b 602 814 735 857 672 814 b 428 889 535 814 472 848 z m 501 180 b 310 231 447 210 383 231 b 150 182 248 231 193 213 b 283 317 192 235 245 282 l 459 474 l 501 454 z m 533 161 l 533 438 l 600 405 l 600 139 l 578 128 b 533 161 564 140 549 151 z m 326 731 l 326 498 l 262 542 l 262 741 l 284 756 b 326 731 297 747 311 739 z m 358 714 b 526 674 407 691 462 674 b 662 711 576 674 623 687 b 531 582 622 661 573 619 l 389 454 l 358 475 z "},"T":{"ha":832,"x_min":0,"x_max":0,"o":"m 197 672 b 273 732 197 712 233 732 b 638 654 327 732 528 667 l 638 511 l 562 435 l 638 359 l 638 161 b 509 131 600 142 557 131 b 325 206 435 131 371 160 l 529 291 l 529 643 l 274 534 b 391 671 311 612 371 658 l 380 688 b 108 365 209 659 108 507 b 478 4 108 151 288 4 b 813 321 665 4 813 145 b 813 333 813 325 813 329 l 791 333 b 670 180 768 274 727 219 l 670 357 l 747 435 l 670 512 l 670 651 b 671 651 670 651 671 651 b 828 779 755 651 828 696 b 635 915 828 864 744 923 l 635 893 b 724 842 671 888 724 883 b 675 805 724 817 700 805 b 318 888 569 805 416 888 b 135 732 206 888 135 815 b 214 610 135 672 170 629 l 225 627 b 197 672 209 634 197 650 z m 259 494 l 380 545 l 380 262 l 304 230 b 246 402 267 277 246 338 b 259 494 246 436 251 467 z "},"U":{"ha":968,"x_min":0,"x_max":0,"o":"m 79 720 b 306 735 142 818 252 735 b 357 745 324 735 341 738 b 133 381 235 684 133 554 b 535 -13 133 168 314 -11 l 714 109 l 844 0 l 997 126 l 980 143 l 944 112 l 888 161 l 888 769 l 939 810 l 919 835 l 872 798 l 772 881 l 613 779 l 613 873 l 590 873 b 388 609 414 744 388 719 l 388 326 l 324 299 b 291 457 303 349 291 403 b 503 850 291 719 491 842 l 476 877 b 378 831 450 857 422 831 b 235 871 321 831 293 871 b 52 709 138 871 66 734 z m 581 831 b 581 109 581 590 581 349 b 338 271 468 115 385 183 l 538 355 l 538 709 b 581 831 538 777 552 809 z m 614 494 l 614 746 l 663 777 l 727 706 l 727 551 z m 614 457 l 727 514 l 727 430 l 614 372 z m 614 335 l 727 392 l 727 173 l 631 110 b 614 108 626 109 620 109 z "},"V":{"ha":858,"x_min":0,"x_max":0,"o":"m 779 724 z m 192 425 b 235 425 202 425 223 425 l 235 179 b 67 15 151 143 93 74 l 89 15 b 265 75 138 52 192 75 b 475 -15 343 75 421 42 l 846 267 l 824 303 l 779 268 l 779 746 l 779 745 l 848 801 l 827 826 l 778 786 l 665 892 l 477 732 b 477 866 477 777 477 822 l 444 866 b 444 704 444 812 444 758 l 398 665 l 398 720 b 265 876 398 816 348 876 b 115 731 175 876 118 806 l 143 731 b 191 786 143 766 160 786 b 235 718 232 786 235 735 l 235 552 b 219 553 230 553 225 553 b 93 406 145 553 93 484 b 98 366 93 392 95 379 l 124 366 b 124 369 124 367 124 368 b 192 425 124 411 149 425 z m 477 508 b 477 687 477 568 477 627 l 572 766 l 635 704 l 635 588 z m 477 471 l 635 551 l 635 467 l 477 387 b 477 471 477 415 477 443 z m 477 350 l 635 429 l 635 155 l 578 111 b 477 177 549 139 515 162 b 477 350 477 235 477 292 z m 444 189 b 398 199 429 194 413 197 l 398 620 l 444 659 b 444 189 444 502 444 346 z "},"W":{"ha":1159,"x_min":0,"x_max":0,"o":"m 179 415 b 225 415 194 415 210 415 b 225 179 225 337 225 258 b 57 15 136 142 80 68 l 79 15 b 248 75 126 54 187 75 b 442 -8 323 75 393 44 l 598 119 l 796 -16 l 1109 218 l 1109 755 l 995 861 l 837 743 b 837 846 837 777 837 812 l 803 846 b 803 168 803 620 803 394 l 743 208 l 743 755 l 629 862 l 472 744 b 472 846 472 778 472 812 l 439 846 b 439 186 439 626 439 406 b 386 199 422 192 404 196 l 386 590 l 386 610 b 386 662 386 627 386 644 b 374 763 386 700 386 731 b 224 858 352 818 299 858 b 74 716 135 858 67 795 l 103 716 b 167 771 108 745 134 771 b 225 696 229 771 225 700 l 225 598 b 225 547 225 581 225 564 b 141 527 196 543 167 539 b 73 417 103 509 73 472 b 91 349 73 393 79 369 l 113 349 b 179 415 105 392 136 415 z m 472 173 b 472 354 472 234 472 294 l 594 415 l 594 210 l 519 147 b 472 173 504 157 488 166 z m 472 513 b 472 712 472 579 472 646 l 519 747 l 594 685 l 594 574 z m 472 475 l 594 537 l 594 452 l 472 391 b 472 475 472 419 472 447 z m 837 513 b 837 710 837 578 837 644 l 884 746 l 959 684 l 959 575 z m 837 475 l 959 537 l 959 453 l 837 391 b 837 475 837 419 837 447 z m 837 354 l 959 416 l 959 158 l 891 109 l 824 153 l 837 154 b 837 354 837 220 837 287 z "},"X":{"ha":852,"x_min":0,"x_max":0,"o":"m 103 432 l 393 432 l 225 205 b 59 50 134 198 59 141 b 233 -96 59 -48 148 -109 l 239 -74 b 162 -11 199 -81 162 -52 b 238 55 162 30 197 55 b 377 -14 305 55 368 -5 l 527 152 l 510 168 l 471 124 b 273 204 413 166 344 196 b 266 204 270 204 268 204 l 420 413 l 648 -8 l 828 108 l 818 124 l 775 98 l 597 432 l 658 432 l 770 556 l 530 556 l 528 559 l 625 690 b 640 690 630 690 635 690 b 808 871 745 690 820 773 l 793 871 b 705 821 776 842 745 821 b 611 869 666 821 631 844 l 589 870 l 433 737 b 248 869 392 805 339 869 b 56 704 143 869 70 789 l 124 704 b 187 771 129 734 150 771 b 301 633 223 771 241 746 l 343 556 l 216 556 z m 587 694 l 511 591 l 458 691 b 445 716 453 699 449 707 l 482 745 b 587 694 509 720 545 702 z "},"Y":{"ha":826,"x_min":0,"x_max":0,"o":"m 665 -227 b 626 -272 665 -251 646 -268 l 631 -294 b 674 -281 646 -292 660 -287 b 767 -155 720 -261 767 -220 b 603 -32 767 -73 692 -32 b 265 -87 451 -32 341 -87 b 177 -18 221 -87 177 -65 b 296 61 177 40 240 61 b 615 11 410 61 522 11 b 760 170 736 11 760 93 l 759 732 l 818 780 l 797 805 l 754 770 l 637 871 l 480 744 b 480 860 480 783 480 822 l 446 860 b 446 66 446 596 446 331 b 371 84 423 71 398 78 l 371 711 b 238 867 371 807 322 867 b 89 722 149 867 92 797 l 117 722 b 165 777 117 757 134 777 b 209 708 206 777 209 726 l 209 505 b 200 506 206 506 203 506 b 60 375 123 506 60 448 b 142 268 60 321 98 280 l 148 284 b 133 311 139 290 133 300 b 189 349 133 340 159 349 b 209 349 195 349 202 349 l 209 80 b 97 -75 139 53 97 -9 b 271 -228 97 -152 155 -228 b 600 -177 376 -228 522 -177 b 665 -227 633 -177 665 -193 z m 480 63 b 480 335 480 153 480 244 b 598 331 515 360 564 359 b 598 229 598 297 598 263 b 481 63 598 100 550 63 b 480 63 481 63 480 63 z m 480 703 l 535 747 l 598 694 b 598 509 598 632 598 570 b 480 505 564 481 515 479 b 480 703 480 571 480 637 z m 480 471 b 598 475 515 446 564 448 b 598 365 598 438 598 402 b 480 368 562 393 514 392 b 480 471 480 403 480 437 z "},"Z":{"ha":777,"x_min":0,"x_max":0,"o":"m 411 220 b 210 190 339 220 279 210 l 387 382 l 539 382 l 637 529 l 523 529 l 547 554 b 734 838 676 703 712 755 l 713 861 b 483 807 645 826 576 807 b 170 871 374 807 259 839 l 53 656 l 75 645 l 118 707 b 435 647 219 668 317 647 b 598 663 490 647 544 652 l 493 563 b 461 529 484 553 473 542 l 284 529 l 187 382 l 320 382 b 61 11 240 292 147 171 l 72 0 b 312 65 133 39 218 65 b 624 -2 428 65 534 33 l 767 183 l 751 194 l 717 155 b 411 220 622 198 530 220 z "},"[":{"ha":337,"x_min":0,"x_max":0,"o":"m 27 928 l 27 895 l 27 33 l 27 0 l 314 0 l 314 33 b 176 33 268 33 222 33 l 176 895 b 314 895 222 895 268 895 l 314 928 z "},"\\":{"ha":483,"x_min":0,"x_max":0,"o":"m -7 917 l 367 -50 l 500 -49 l 127 917 z "},"]":{"ha":337,"x_min":0,"x_max":0,"o":"m 314 928 l 314 895 l 314 33 l 314 0 l 27 0 l 27 33 b 165 33 73 33 119 33 l 165 895 b 27 895 119 895 73 895 l 27 928 z "},"^":{"ha":653,"x_min":0,"x_max":0,"o":"m 522 551 l 287 768 l 74 552 l 44 580 l 357 898 l 629 648 z "},"_":{"ha":922,"x_min":0,"x_max":0,"o":"m 13 -124 l 792 -125 l 904 -1 l 125 0 z "},"`":{"ha":324,"x_min":0,"x_max":0,"o":"m 74 795 l 133 841 l 232 638 l 222 630 z "},"a":{"ha":567,"x_min":0,"x_max":0,"o":"m 181 500 l 317 416 b 317 307 317 380 317 343 b 117 430 240 325 117 356 b 181 500 117 461 146 482 z m 201 -6 l 323 83 l 411 -6 l 572 105 l 567 127 l 517 94 l 461 150 l 461 441 l 522 490 l 501 516 l 455 478 l 284 588 l 156 521 b 84 423 122 503 84 474 b 178 313 84 370 125 336 b 45 147 92 268 45 209 b 201 -6 45 60 127 4 z m 317 273 b 317 98 317 214 317 156 b 293 94 309 95 301 94 b 185 252 221 94 185 186 b 199 305 185 274 192 294 b 317 273 238 291 280 281 z "},"b":{"ha":553,"x_min":0,"x_max":0,"o":"m 500 136 l 239 -12 l 64 94 l 20 66 l 3 88 l 81 138 l 81 677 b 25 738 81 704 73 723 l 25 754 l 214 887 l 236 887 l 236 494 l 382 590 l 500 479 z m 236 456 l 236 155 l 358 84 l 358 418 l 288 490 z "},"c":{"ha":425,"x_min":0,"x_max":0,"o":"m 211 201 b 342 122 246 138 308 122 l 409 170 l 424 149 l 253 0 l 237 0 l 62 119 l 62 465 l 301 598 l 424 500 l 314 417 l 211 502 z "},"d":{"ha":550,"x_min":0,"x_max":0,"o":"m 212 539 l 335 427 l 335 79 l 212 165 z m 204 547 l 63 460 l 63 104 l 230 -10 l 484 139 l 484 468 l 534 508 l 514 533 l 471 498 l 72 849 l 72 642 l 95 646 z "},"e":{"ha":493,"x_min":0,"x_max":0,"o":"m 28 75 l 80 116 l 251 -11 l 490 183 l 473 211 l 346 111 l 207 205 l 207 255 l 457 410 l 457 416 l 340 593 l 63 449 l 63 144 l 8 100 z m 207 295 l 207 492 l 229 505 l 323 368 z "},"f":{"ha":383,"x_min":0,"x_max":0,"o":"m 95 150 l 95 150 l 17 100 l 34 77 l 78 105 l 200 0 l 360 82 l 343 104 l 305 84 l 239 138 l 239 520 l 334 520 l 388 583 l 239 583 l 239 716 l 239 785 l 365 705 l 508 785 l 353 881 l 95 736 l 95 587 l 40 527 l 40 511 b 95 456 64 511 95 501 l 95 150 z "},"g":{"ha":565,"x_min":0,"x_max":0,"o":"m 330 -100 b 187 -39 293 -62 240 -39 b 3 -167 97 -39 28 -98 l 19 -178 b 107 -149 44 -159 75 -149 b 225 -212 161 -149 201 -176 l 439 -61 b 519 23 469 -40 519 -27 b 485 161 519 66 485 65 b 485 455 485 259 485 357 l 541 500 l 520 525 l 471 485 l 319 599 l 58 449 l 58 116 l 225 0 l 332 74 b 373 -48 342 11 373 -3 b 330 -100 373 -76 355 -97 z m 329 105 l 197 188 l 197 493 l 330 404 l 329 119 b 329 105 329 114 329 110 z "},"h":{"ha":609,"x_min":0,"x_max":0,"o":"m 264 138 l 264 424 l 329 484 l 397 427 l 397 132 b 270 -100 397 12 355 -100 l 270 -128 b 306 -130 282 -130 294 -130 b 547 132 507 -130 547 13 l 547 463 l 597 503 l 577 528 l 531 491 l 408 593 l 264 458 l 264 887 l 242 887 l 53 754 l 53 738 b 109 677 109 721 109 695 l 109 150 l 31 100 l 51 73 l 95 101 l 214 0 l 359 100 l 338 126 l 302 101 z "},"i":{"ha":358,"x_min":0,"x_max":0,"o":"m 347 133 l 297 100 l 258 138 l 258 488 l 169 593 l 14 488 l 30 466 l 75 494 l 114 444 l 114 138 l 42 89 l 58 66 l 97 94 l 208 -6 l 374 111 z m 77 750 l 175 637 l 286 734 l 187 847 z "},"j":{"ha":322,"x_min":0,"x_max":0,"o":"m 249 138 l 249 471 l 297 510 l 277 536 l 236 503 l 160 593 l 5 488 l 21 466 l 66 494 l 104 444 l 104 47 b 15 -175 104 -91 95 -175 l 15 -207 b 23 -207 17 -207 20 -207 b 246 30 109 -207 241 -156 z m 67 750 l 166 637 l 277 734 l 178 847 z "},"k":{"ha":668,"x_min":0,"x_max":0,"o":"m 95 677 l 95 150 l 17 100 l 34 77 l 78 105 l 200 0 l 345 100 l 328 122 l 295 94 l 250 138 l 250 887 l 228 887 l 40 754 l 40 738 b 95 677 69 729 95 716 z m 485 422 b 628 588 579 422 616 506 l 606 588 b 531 543 593 564 566 543 b 456 588 496 543 469 564 l 445 588 l 273 322 l 500 -11 l 678 105 l 656 133 l 606 100 l 378 438 l 389 460 b 485 422 413 438 444 422 z "},"l":{"ha":332,"x_min":0,"x_max":0,"o":"m 250 138 l 250 887 l 228 887 l 40 754 l 40 738 b 95 653 90 721 95 708 l 95 150 l 17 100 l 34 77 l 78 105 l 200 0 l 345 100 l 328 122 l 295 94 z "},"m":{"ha":904,"x_min":0,"x_max":0,"o":"m 585 86 l 525 139 l 525 449 l 586 486 l 666 413 l 666 127 l 618 83 l 732 -17 l 904 95 l 903 137 l 853 100 l 799 155 l 799 446 l 856 492 l 836 517 l 798 487 l 678 590 l 519 491 l 404 590 l 252 495 l 167 590 l 6 479 l 22 457 l 67 485 l 111 435 l 111 127 l 67 89 l 200 -17 l 311 83 l 261 127 l 261 455 l 312 486 l 392 413 l 392 127 l 343 83 l 458 -17 z "},"n":{"ha":645,"x_min":0,"x_max":0,"o":"m 622 133 l 577 100 l 527 144 l 527 446 l 583 492 l 563 517 l 514 478 l 383 590 l 256 491 l 167 590 l 6 479 l 22 457 l 67 485 l 111 435 l 111 127 l 67 89 l 200 -17 l 311 83 l 261 127 l 261 445 l 311 485 l 394 413 l 394 127 l 355 89 l 472 -17 l 644 100 z "},"o":{"ha":546,"x_min":0,"x_max":0,"o":"m 226 177 l 226 510 l 360 421 l 360 89 z m 38 78 l 86 117 l 249 0 l 504 155 l 504 471 l 337 599 l 77 449 b 77 152 77 350 77 251 l 17 104 z "},"p":{"ha":556,"x_min":0,"x_max":0,"o":"m 158 594 l 17 500 l 30 482 b 56 490 37 487 47 490 b 101 440 91 490 101 458 l 101 151 l 42 101 b 101 91 62 98 82 95 l 101 -201 l 124 -201 l 289 -102 l 289 -85 b 236 -4 251 -79 236 -49 l 236 49 b 314 9 263 37 289 24 b 506 143 373 59 437 104 l 506 465 l 549 500 l 529 526 l 494 497 l 382 595 l 236 486 l 236 508 b 158 594 218 543 191 573 z m 236 448 l 286 487 l 363 424 l 363 80 b 236 135 322 99 279 118 z "},"q":{"ha":546,"x_min":0,"x_max":0,"o":"m 62 449 l 323 598 l 498 492 l 542 520 l 559 498 l 481 448 l 481 13 b 536 -48 481 -14 489 -33 l 536 -64 l 348 -198 l 326 -198 l 326 91 l 180 -4 l 62 106 z m 326 129 l 326 431 l 204 502 l 204 168 l 273 95 z "},"r":{"ha":466,"x_min":0,"x_max":0,"o":"m 370 145 l 307 102 l 261 138 l 261 480 b 365 432 299 444 340 432 b 480 594 399 432 466 450 l 445 594 b 393 565 436 578 417 565 b 341 594 372 565 352 576 l 329 594 l 248 502 l 163 593 l 8 488 l 25 466 l 69 494 l 108 444 l 108 138 l 36 89 l 52 66 l 91 94 l 218 -6 l 391 119 z "},"s":{"ha":505,"x_min":0,"x_max":0,"o":"m 106 -60 l 117 -30 b 101 -1 108 -25 101 -15 b 155 43 101 27 128 43 b 241 -12 196 43 225 16 l 470 127 l 470 302 l 370 376 b 471 590 435 436 462 502 l 438 590 b 438 590 438 590 438 590 l 438 590 b 380 542 435 563 410 542 b 295 593 341 542 312 568 l 56 454 l 56 292 l 144 223 b 34 48 53 138 34 96 b 106 -60 34 -7 66 -45 z m 256 278 l 320 227 l 320 76 b 185 165 299 123 251 165 b 104 137 154 165 126 155 b 215 242 132 173 174 207 z m 253 318 l 205 367 l 205 518 b 330 433 229 459 280 433 b 388 444 351 433 370 437 b 338 391 372 422 355 406 z "},"t":{"ha":397,"x_min":0,"x_max":0,"o":"m 257 137 l 257 491 l 340 491 l 395 554 l 257 554 l 257 688 l 235 688 l 46 498 l 46 482 b 102 427 69 482 102 472 l 102 148 l 24 98 l 41 76 l 85 104 l 207 -1 l 366 81 l 350 103 l 311 82 z "},"u":{"ha":603,"x_min":0,"x_max":0,"o":"m 60 495 b 106 429 95 495 106 465 b 106 429 106 429 106 429 l 106 157 l 70 127 l 227 -5 l 373 110 b 462 -2 382 36 420 0 l 601 93 l 580 122 l 537 87 b 505 166 514 102 506 131 l 505 214 l 505 489 l 555 530 l 534 555 l 497 524 l 420 590 l 312 490 l 372 437 l 372 199 l 372 143 l 317 102 l 244 171 l 244 450 b 153 589 244 525 207 568 l 3 492 l 15 476 b 60 495 26 485 41 495 z "},"v":{"ha":595,"x_min":0,"x_max":0,"o":"m 164 693 l 158 715 b 82 692 132 713 106 705 b 5 579 45 672 5 633 b 70 471 5 528 43 499 b 108 336 101 440 108 421 l 108 117 l 56 75 l 77 50 l 113 79 l 269 -16 l 535 142 l 535 456 l 578 491 l 460 594 l 339 494 l 390 447 l 390 95 l 357 75 l 253 142 l 253 385 b 208 532 253 454 245 498 b 114 634 176 561 114 581 b 164 693 114 665 138 686 z "},"w":{"ha":829,"x_min":0,"x_max":0,"o":"m 438 594 l 317 494 l 368 447 l 368 95 l 346 82 l 255 142 l 255 373 b 172 559 255 484 243 514 b 116 634 148 575 116 596 b 166 693 116 665 140 686 l 160 715 b 7 579 72 707 7 645 b 72 471 7 528 45 499 b 110 363 99 444 110 420 l 110 117 l 58 75 l 79 50 l 114 79 l 247 -16 l 393 64 l 504 -16 l 773 126 l 773 490 l 842 545 l 821 571 l 771 530 l 699 594 l 578 494 l 629 447 l 629 97 l 604 82 l 512 142 l 512 456 l 555 491 z "},"x":{"ha":615,"x_min":0,"x_max":0,"o":"m 359 458 z m 102 500 b 145 464 126 500 138 481 l 251 226 l 223 155 b 161 168 204 162 184 168 b 40 8 75 168 45 88 l 65 8 b 125 37 78 24 98 37 b 186 8 151 37 172 26 l 198 8 l 198 10 l 198 8 l 268 188 l 320 72 l 431 0 l 594 113 l 562 142 b 498 106 528 113 510 106 b 464 133 479 106 470 120 l 346 386 l 372 452 b 452 430 395 440 421 430 b 565 591 537 430 555 516 l 531 591 b 478 562 521 575 502 562 b 426 591 457 562 437 573 l 426 591 l 426 591 l 399 591 l 330 420 l 271 547 l 179 602 l 32 503 l 50 476 b 102 500 64 485 80 500 z "},"y":{"ha":600,"x_min":0,"x_max":0,"o":"m 160 -149 b 72 -178 128 -149 97 -159 l 56 -167 b 240 -39 81 -98 150 -39 b 383 -100 293 -39 346 -62 b 425 -49 408 -98 425 -77 b 387 75 425 -1 396 3 l 278 0 l 111 116 l 111 441 l 69 491 l 22 463 l 6 485 l 161 590 l 250 485 l 250 188 l 385 104 b 384 119 385 109 384 114 l 384 441 l 321 515 l 433 591 l 538 466 l 538 161 b 572 23 538 65 572 66 b 492 -61 572 -28 522 -40 l 278 -212 b 160 -149 253 -176 214 -149 z "},"z":{"ha":500,"x_min":0,"x_max":0,"o":"m 438 127 l 472 166 l 488 155 l 366 5 b 180 49 312 29 252 49 b 28 0 115 49 68 31 l 17 11 b 155 242 42 93 94 169 l 161 249 l 83 249 l 55 222 l 39 238 l 133 349 l 249 349 l 327 438 b 221 422 293 427 257 422 b 72 455 163 422 118 433 l 44 410 l 22 421 l 111 588 b 295 549 167 566 222 549 b 455 588 356 549 412 559 l 466 571 b 300 349 419 489 361 418 l 384 349 l 410 377 l 427 360 l 333 249 l 211 249 b 168 198 197 233 182 216 l 133 155 b 251 173 171 167 211 173 b 438 127 323 173 381 157 z "},"{":{"ha":370,"x_min":0,"x_max":0,"o":"m 341 2 l 341 15 b 173 447 188 143 324 358 b 341 875 319 584 177 795 l 341 888 l 192 888 b 14 451 28 808 173 584 l 14 438 b 192 2 179 359 34 135 z "},"|":{"ha":190,"x_min":0,"x_max":0,"o":"m 34 -6 l 34 768 l 157 881 l 157 106 z "},"}":{"ha":370,"x_min":0,"x_max":0,"o":"m 14 2 l 14 15 b 183 447 168 143 32 358 b 14 875 37 584 179 795 l 14 888 l 164 888 b 341 451 328 808 183 584 l 341 438 b 164 2 177 359 322 135 z "},"~":{"ha":619,"x_min":0,"x_max":0,"o":"m 568 569 b 468 518 551 537 516 518 b 241 562 384 518 325 562 b 33 427 137 562 77 491 l 69 411 b 183 458 96 436 132 458 b 400 411 266 458 316 411 b 604 553 504 411 571 479 z "},"¡":{"ha":247,"x_min":0,"x_max":0,"o":"m 19 782 l 125 887 l 229 783 l 123 678 z m 117 629 l 149 629 l 199 -13 l 177 -13 l 17 90 l 17 107 b 64 192 57 111 57 137 z "},"¢":{"ha":396,"x_min":0,"x_max":0,"o":"m 297 122 b 166 201 220 123 179 177 l 166 502 l 269 417 l 379 500 l 256 598 l 209 572 l 209 662 l 176 662 l 176 554 l 17 465 l 17 119 l 176 11 l 176 -69 l 209 -69 l 209 0 l 379 149 l 364 170 z "},"£":{"ha":753,"x_min":0,"x_max":0,"o":"m 535 138 b 346 157 468 138 412 157 b 281 152 324 157 302 155 b 419 339 404 242 419 277 l 419 425 l 576 425 l 579 549 l 419 549 l 419 678 b 490 781 419 733 436 781 b 512 778 498 781 505 780 l 534 806 b 446 828 507 820 476 828 b 266 616 362 828 266 776 l 266 549 l 216 549 l 216 592 b 446 848 216 821 380 848 b 639 764 540 848 608 797 b 606 771 629 769 617 771 b 521 687 557 771 521 732 b 606 603 521 641 560 603 b 699 704 659 603 699 650 b 425 877 699 823 555 877 b 65 527 160 877 65 655 l 65 349 b 15 25 65 224 50 127 l 30 10 b 216 344 201 126 216 175 l 216 425 l 266 425 l 266 245 b 110 12 266 146 233 102 l 136 -12 b 285 31 179 16 224 31 b 544 -5 372 31 457 -5 b 754 126 648 -5 723 50 l 692 214 b 535 138 661 167 609 138 z "},"¤":{"ha":582,"x_min":0,"x_max":0,"o":"m 226 177 l 226 510 l 360 421 l 360 89 z m 38 78 l 86 117 l 249 0 l 484 143 l 546 93 l 567 118 l 504 169 l 504 460 l 553 500 l 533 525 l 485 486 l 337 599 l 101 463 l 33 518 l 13 493 l 77 441 b 77 152 77 345 77 248 l 17 104 z "},"¥":{"ha":792,"x_min":0,"x_max":0,"o":"m 622 -227 b 583 -272 622 -251 604 -268 l 588 -294 b 631 -281 603 -292 617 -287 b 725 -155 677 -261 725 -220 b 560 -32 725 -73 649 -32 b 223 -87 408 -32 299 -87 b 134 -18 178 -87 134 -65 b 253 61 134 40 198 61 b 572 11 367 61 479 11 b 717 170 693 11 717 93 l 717 332 b 770 332 734 332 752 332 l 770 365 b 717 365 752 365 734 365 l 716 425 b 770 425 734 425 752 425 l 770 458 b 716 458 752 458 734 458 l 716 721 l 775 769 l 754 794 l 711 759 l 594 860 l 437 733 b 437 849 437 771 437 810 l 404 849 b 404 458 404 718 404 588 b 328 458 378 458 353 458 l 328 699 b 195 855 328 795 279 855 b 46 710 106 855 49 785 l 74 710 b 122 766 74 745 91 766 b 166 697 163 766 166 714 l 166 505 b 157 506 163 506 160 506 b 17 375 80 506 17 448 b 99 268 17 321 55 280 l 105 284 b 90 311 96 290 90 300 b 146 349 90 340 117 349 b 166 349 153 349 159 349 l 166 80 b 54 -75 97 53 54 -9 b 229 -228 54 -152 113 -228 b 557 -177 334 -228 479 -177 b 622 -227 590 -177 622 -193 z m 555 365 b 437 365 516 365 476 365 b 437 425 437 385 437 405 b 555 425 476 425 516 425 b 555 365 555 405 555 385 z m 555 332 b 555 229 555 298 555 264 b 439 63 555 100 507 63 b 437 63 438 63 437 63 b 437 332 437 153 437 242 b 555 332 476 332 516 332 z m 555 458 b 437 458 516 458 476 458 b 437 692 437 536 437 614 l 492 736 l 555 682 b 555 458 555 607 555 533 z m 404 66 b 328 84 380 71 355 78 l 328 332 b 404 332 353 332 378 332 b 404 66 404 244 404 155 z m 404 365 b 328 365 378 365 353 365 l 328 425 b 404 425 353 425 378 425 b 404 365 404 405 404 385 z "},"¦":{"ha":190,"x_min":0,"x_max":0,"o":"m 34 458 l 34 804 l 157 917 l 157 571 z m 34 -6 l 34 340 l 157 453 l 157 106 z "},"§":{"ha":775,"x_min":0,"x_max":0,"o":"m 110 689 l 110 456 l 272 350 l 262 341 b 52 21 179 267 52 153 b 340 -217 52 -123 188 -217 b 673 14 492 -217 639 -121 l 642 23 b 343 -128 608 -87 459 -128 b 88 -5 243 -128 109 -109 b 228 94 77 79 163 94 b 435 -4 315 94 386 49 l 752 196 l 752 486 b 580 581 704 526 645 560 b 774 911 670 662 773 761 l 774 927 l 762 927 l 762 927 l 758 927 l 741 927 b 741 927 741 927 741 927 l 741 927 b 602 814 735 857 672 814 b 428 889 535 814 472 848 z m 501 180 b 310 231 447 210 383 231 b 150 182 248 231 193 213 b 283 317 192 235 245 282 l 459 474 l 501 454 z m 533 161 l 533 438 l 600 405 l 600 139 l 578 128 b 533 161 564 140 549 151 z m 326 731 l 326 498 l 262 542 l 262 741 l 284 756 b 326 731 297 747 311 739 z m 358 714 b 526 674 407 691 462 674 b 662 711 576 674 623 687 b 531 582 622 661 573 619 l 389 454 l 358 475 z "},"¨":{"ha":516,"x_min":0,"x_max":0,"o":"m 17 708 l 123 602 l 227 706 l 121 812 z m 284 708 l 389 602 l 493 706 l 388 812 z "},"©":{"ha":922,"x_min":0,"x_max":0,"o":"m -28 289 b 439 -176 -28 33 181 -176 b 907 289 697 -176 907 33 b 439 755 907 546 697 755 b -28 289 181 755 -28 546 z m -5 289 b 439 731 -5 533 194 731 b 884 289 685 731 884 533 b 439 -153 884 45 685 -153 b -5 289 194 -153 -5 45 z m 326 228 b 310 314 315 253 310 283 b 327 408 310 349 316 381 l 358 427 b 358 242 358 365 358 303 z m 332 214 l 432 256 l 432 472 l 437 475 b 458 461 444 470 451 466 b 458 139 458 354 458 246 b 455 139 457 139 456 139 b 332 214 396 139 355 169 z m 475 451 b 545 417 497 439 521 427 l 614 489 l 609 495 l 591 479 b 493 529 554 491 522 508 l 341 436 b 403 494 356 461 377 481 l 397 502 b 239 284 313 474 239 392 b 437 74 239 173 326 74 b 600 223 526 74 595 136 l 589 223 b 475 140 569 183 529 147 b 475 451 475 244 475 348 z "},"ª":{"ha":491,"x_min":0,"x_max":0,"o":"m 171 816 l 273 753 b 273 671 273 726 273 698 b 124 763 215 685 124 708 b 171 816 124 786 145 802 z m 186 436 l 278 503 l 344 437 l 465 520 l 461 536 l 423 511 l 382 553 l 382 772 l 427 809 l 412 827 l 377 799 l 248 882 l 153 832 b 99 758 127 818 99 797 b 169 676 99 718 129 693 b 69 551 105 641 69 597 b 186 436 69 486 131 444 z m 273 645 b 273 514 273 602 273 558 b 255 511 268 512 262 511 b 174 630 202 511 174 581 b 185 670 174 646 179 661 b 273 645 214 659 246 652 z "},"«":{"ha":660,"x_min":0,"x_max":0,"o":"m 476 424 b 619 116 600 308 617 165 b 307 424 510 288 381 378 b 619 731 499 542 597 696 b 476 424 611 568 519 464 z m 198 424 b 341 116 322 308 339 165 b 29 424 232 288 103 378 b 341 731 221 542 319 696 b 198 424 333 568 241 464 z "},"¬":{"ha":572,"x_min":0,"x_max":0,"o":"m 423 382 l 424 155 l 548 155 l 547 529 l 423 529 l 159 529 l 17 371 l 34 354 l 62 382 z "},"­":{"ha":572,"x_min":0,"x_max":0,"o":"m 584 540 l 567 557 l 540 529 l 187 529 l 46 371 l 62 354 l 90 382 l 442 382 z "},"®":{"ha":941,"x_min":0,"x_max":0,"o":"m 312 464 b 335 429 331 464 335 448 l 335 323 b 265 259 307 323 265 315 b 272 225 265 247 268 236 l 284 225 b 316 258 280 245 293 258 b 335 258 323 258 329 258 l 335 148 b 245 59 296 129 264 97 l 263 59 b 353 105 280 86 311 105 b 455 68 404 105 444 77 l 547 141 b 601 68 556 111 569 84 l 690 139 l 690 156 l 650 126 b 537 317 588 179 627 279 l 621 390 l 529 515 l 456 455 b 456 503 456 471 456 487 l 440 503 b 440 441 440 482 440 462 l 417 422 l 417 430 b 350 508 417 497 377 508 b 272 436 305 508 274 473 l 286 436 b 312 464 286 451 297 464 z m 2 289 b 469 -176 2 33 211 -176 b 937 289 728 -176 937 33 b 469 755 937 546 728 755 b 2 289 211 755 2 546 z m 25 289 b 469 731 25 533 224 731 b 914 289 715 731 914 533 b 469 -153 914 45 715 -153 b 25 289 224 -153 25 45 z m 417 165 l 417 402 l 440 422 b 440 163 440 336 440 249 b 417 165 432 164 424 165 z m 456 159 b 456 248 456 189 456 218 l 475 264 b 544 151 529 251 532 200 l 515 128 b 456 159 498 142 478 153 z m 456 436 l 474 452 l 548 347 l 456 268 b 456 436 456 324 456 380 z "},"¯":{"ha":650,"x_min":0,"x_max":0,"o":"m 168 652 l 484 650 l 484 774 l 168 775 z "},"°":{"ha":271,"x_min":0,"x_max":0,"o":"m 23 715 b 132 606 23 655 72 606 b 241 715 192 606 241 655 b 132 824 241 775 192 824 b 23 715 72 824 23 775 z m 56 715 b 132 791 56 757 90 791 b 208 715 174 791 208 757 b 132 639 208 673 174 639 b 56 715 90 639 56 673 z "},"±":{"ha":664,"x_min":0,"x_max":0,"o":"m 40 -54 l 524 -54 l 637 69 l 152 69 z m 40 362 l 277 362 l 277 117 l 400 229 l 400 362 l 524 362 l 637 486 l 400 486 l 400 737 l 277 625 l 277 486 l 152 486 z "},"²":{"ha":473,"x_min":0,"x_max":0,"o":"m 442 143 l 427 151 b 353 124 410 131 385 124 l 77 124 b 427 396 200 168 427 250 b 247 547 427 491 341 547 b 37 395 153 547 37 493 b 104 321 37 356 65 321 b 159 375 133 321 159 346 b 105 432 159 404 136 432 b 86 429 96 432 90 431 b 209 507 100 470 144 507 b 311 396 272 507 311 459 b 36 123 311 284 113 177 l 36 15 l 381 16 z "},"³":{"ha":473,"x_min":0,"x_max":0,"o":"m 163 131 b 106 189 163 163 137 189 b 41 117 68 189 41 155 b 58 63 41 96 47 79 b 207 -4 86 20 144 -4 b 438 190 325 -4 438 71 b 283 360 438 282 369 350 l 402 430 l 417 538 l 116 537 l 55 410 l 70 402 b 144 429 86 422 107 429 l 337 429 l 107 288 l 131 271 b 202 290 152 283 177 290 b 337 159 276 290 337 236 b 197 22 337 81 274 22 b 82 79 153 22 109 44 b 106 74 89 76 97 74 b 163 131 139 74 163 101 z "},"´":{"ha":324,"x_min":0,"x_max":0,"o":"m 232 795 l 173 841 l 74 638 l 84 630 z "},"µ":{"ha":616,"x_min":0,"x_max":0,"o":"m 115 429 l 115 98 l 115 -168 l 242 -168 l 242 9 l 371 110 b 460 -2 377 54 404 5 l 599 93 l 577 122 l 534 87 b 503 166 512 102 504 131 l 502 214 l 502 491 l 552 530 l 536 552 l 495 524 l 418 590 l 309 490 l 369 437 l 369 199 l 369 164 b 370 143 369 157 369 150 l 315 102 l 242 171 b 242 326 242 223 242 275 l 242 450 b 150 589 242 524 205 568 l 13 492 l 25 476 b 69 495 34 484 51 495 b 115 429 104 495 115 464 z "},"¶":{"ha":734,"x_min":0,"x_max":0,"o":"m 15 611 b 369 909 15 768 139 909 l 598 909 l 624 884 b 467 652 486 783 467 739 l 467 60 b 259 -147 467 -57 388 -118 l 259 -109 b 315 -35 292 -100 315 -77 l 315 333 b 296 333 309 333 302 333 b 15 611 143 333 15 454 z m 165 86 b 254 0 213 86 254 48 b 171 -83 254 -47 218 -83 b 136 -75 159 -83 147 -80 b 296 -175 162 -132 218 -175 b 517 84 381 -175 517 -120 l 517 552 b 704 886 517 740 537 759 l 719 872 b 670 647 689 821 670 770 l 670 304 b 303 -202 670 -46 557 -202 b 64 -25 159 -202 64 -119 b 165 86 64 35 107 86 z "},"·":{"ha":244,"x_min":0,"x_max":0,"o":"m 23 468 l 129 362 l 233 466 l 127 572 z "},"¸":{"ha":236,"x_min":0,"x_max":0,"o":"m 135 197 l 10 138 b 118 31 63 126 118 91 b 38 -67 118 -24 67 -55 l 45 -76 b 221 91 199 -2 221 55 b 135 197 221 143 176 179 z "},"¹":{"ha":407,"x_min":0,"x_max":0,"o":"m 265 538 l 125 542 l 124 490 b 156 427 147 481 156 460 l 156 2 l 265 2 z "},"º":{"ha":455,"x_min":0,"x_max":0,"o":"m 200 562 l 200 812 l 300 745 l 300 495 z m 59 488 l 95 517 l 217 429 l 408 545 l 408 783 l 283 878 l 88 766 b 88 543 88 691 88 617 l 43 507 z "},"»":{"ha":660,"x_min":0,"x_max":0,"o":"m 172 424 b 29 116 48 308 31 165 b 341 424 138 288 267 378 b 29 731 149 542 52 696 b 172 424 37 568 129 464 z m 450 424 b 307 116 326 308 309 165 b 619 424 416 288 545 378 b 307 731 427 542 329 696 b 450 424 315 568 407 464 z "},"¿":{"ha":369,"x_min":0,"x_max":0,"o":"m 355 810 l 249 916 l 145 811 l 251 706 z m -1 220 l 258 42 l 239 -1 l 262 -13 l 353 162 l 70 345 l 302 454 l 279 673 l 249 671 b 144 534 249 585 197 556 l 34 489 b 43 345 43 444 50 391 b -1 220 36 296 20 256 z "},"À":{"ha":888,"x_min":0,"x_max":0,"o":"m 519 1138 l 579 1184 l 678 980 l 668 973 z m 803 861 l 778 882 l 701 817 b 500 877 642 855 571 877 b 184 588 336 877 184 764 b 321 364 184 482 243 403 l 201 163 b 51 -12 129 124 77 59 l 73 -12 b 275 75 125 43 199 75 b 456 8 340 75 406 51 l 585 120 b 725 -4 625 73 672 31 l 878 120 l 845 158 l 806 126 b 756 291 760 161 756 214 l 756 734 b 783 839 756 779 763 812 z m 580 734 b 606 718 589 729 598 724 l 606 421 l 394 421 z m 550 748 l 333 383 b 248 555 283 421 248 480 b 464 763 248 677 342 763 b 550 748 494 763 523 758 z m 331 315 l 324 302 l 606 302 l 606 206 l 537 147 b 356 201 484 182 420 201 b 253 185 319 201 285 195 z "},"Á":{"ha":888,"x_min":0,"x_max":0,"o":"m 678 1138 l 618 1184 l 519 980 l 529 973 z m 803 861 l 778 882 l 701 817 b 500 877 642 855 571 877 b 184 588 336 877 184 764 b 321 364 184 482 243 403 l 201 163 b 51 -12 129 124 77 59 l 73 -12 b 275 75 125 43 199 75 b 456 8 340 75 406 51 l 585 120 b 725 -4 625 73 672 31 l 878 120 l 845 158 l 806 126 b 756 291 760 161 756 214 l 756 734 b 783 839 756 779 763 812 z m 580 734 b 606 718 589 729 598 724 l 606 421 l 394 421 z m 550 748 l 333 383 b 248 555 283 421 248 480 b 464 763 248 677 342 763 b 550 748 494 763 523 758 z m 331 315 l 324 302 l 606 302 l 606 206 l 537 147 b 356 201 484 182 420 201 b 253 185 319 201 285 195 z "},"Â":{"ha":888,"x_min":0,"x_max":0,"o":"m 407 951 l 525 1068 l 651 951 l 736 1042 l 592 1176 l 386 972 z m 803 861 l 778 882 l 701 817 b 500 877 642 855 571 877 b 184 588 336 877 184 764 b 321 364 184 482 243 403 l 201 163 b 51 -12 129 124 77 59 l 73 -12 b 275 75 125 43 199 75 b 456 8 340 75 406 51 l 585 120 b 725 -4 625 73 672 31 l 878 120 l 845 158 l 806 126 b 756 291 760 161 756 214 l 756 734 b 783 839 756 779 763 812 z m 580 734 b 606 718 589 729 598 724 l 606 421 l 394 421 z m 550 748 l 333 383 b 248 555 283 421 248 480 b 464 763 248 677 342 763 b 550 748 494 763 523 758 z m 331 315 l 324 302 l 606 302 l 606 206 l 537 147 b 356 201 484 182 420 201 b 253 185 319 201 285 195 z "},"Ã":{"ha":888,"x_min":0,"x_max":0,"o":"m 465 1019 b 655 969 538 1019 580 969 b 823 1091 740 969 795 1030 l 794 1106 b 714 1063 779 1080 753 1063 b 515 1111 639 1063 591 1111 b 345 996 430 1111 381 1049 l 374 981 b 465 1019 396 1001 424 1019 z m 803 861 l 778 882 l 701 817 b 500 877 642 855 571 877 b 184 588 336 877 184 764 b 321 364 184 482 243 403 l 201 163 b 51 -12 129 124 77 59 l 73 -12 b 275 75 125 43 199 75 b 456 8 340 75 406 51 l 585 120 b 725 -4 625 73 672 31 l 878 120 l 845 158 l 806 126 b 756 291 760 161 756 214 l 756 734 b 783 839 756 779 763 812 z m 580 734 b 606 718 589 729 598 724 l 606 421 l 394 421 z m 550 748 l 333 383 b 248 555 283 421 248 480 b 464 763 248 677 342 763 b 550 748 494 763 523 758 z m 331 315 l 324 302 l 606 302 l 606 206 l 537 147 b 356 201 484 182 420 201 b 253 185 319 201 285 195 z "},"Ä":{"ha":888,"x_min":0,"x_max":0,"o":"m 342 1104 l 448 998 l 552 1102 l 446 1208 z m 609 1104 l 714 998 l 818 1102 l 713 1208 z m 803 861 l 778 882 l 701 817 b 500 877 642 855 571 877 b 184 588 336 877 184 764 b 321 364 184 482 243 403 l 201 163 b 51 -12 129 124 77 59 l 73 -12 b 275 75 125 43 199 75 b 456 8 340 75 406 51 l 585 120 b 725 -4 625 73 672 31 l 878 120 l 845 158 l 806 126 b 756 291 760 161 756 214 l 756 734 b 783 839 756 779 763 812 z m 580 734 b 606 718 589 729 598 724 l 606 421 l 394 421 z m 550 748 l 333 383 b 248 555 283 421 248 480 b 464 763 248 677 342 763 b 550 748 494 763 523 758 z m 331 315 l 324 302 l 606 302 l 606 206 l 537 147 b 356 201 484 182 420 201 b 253 185 319 201 285 195 z "},"Å":{"ha":888,"x_min":0,"x_max":0,"o":"m 448 993 b 557 884 448 933 497 884 b 666 993 617 884 666 933 b 557 1102 666 1053 617 1102 b 448 993 497 1102 448 1053 z m 481 993 b 557 1069 481 1035 515 1069 b 633 993 599 1069 633 1035 b 557 917 633 951 599 917 b 481 993 515 917 481 951 z m 803 861 l 778 882 l 701 817 b 500 877 642 855 571 877 b 184 588 336 877 184 764 b 321 364 184 482 243 403 l 201 163 b 51 -12 129 124 77 59 l 73 -12 b 275 75 125 43 199 75 b 456 8 340 75 406 51 l 585 120 b 725 -4 625 73 672 31 l 878 120 l 845 158 l 806 126 b 756 291 760 161 756 214 l 756 734 b 783 839 756 779 763 812 z m 580 734 b 606 718 589 729 598 724 l 606 421 l 394 421 z m 550 748 l 333 383 b 248 555 283 421 248 480 b 464 763 248 677 342 763 b 550 748 494 763 523 758 z m 331 315 l 324 302 l 606 302 l 606 206 l 537 147 b 356 201 484 182 420 201 b 253 185 319 201 285 195 z "},"Æ":{"ha":1375,"x_min":0,"x_max":0,"o":"m 1090 890 l 1090 890 l 1090 890 l 731 672 l 731 745 b 779 873 731 805 747 844 l 754 894 l 682 825 b 476 889 622 866 549 889 b 160 600 304 889 160 764 b 304 373 160 473 242 403 l 177 163 b 27 -12 105 124 53 59 l 49 -12 b 250 75 100 43 175 75 b 432 8 316 75 382 51 l 629 180 l 640 182 b 984 -20 720 41 869 -20 b 1314 278 1182 -20 1307 128 l 1292 278 b 1053 112 1252 194 1166 122 b 1053 385 1053 203 1053 294 l 1181 385 l 1323 532 l 1053 532 b 1053 735 1053 600 1053 667 b 1194 666 1097 709 1145 686 l 1332 810 l 1322 821 l 1286 791 b 1090 890 1211 814 1148 848 z m 748 285 b 731 327 742 299 736 313 l 731 633 l 818 686 b 818 315 818 563 818 439 z m 763 258 l 968 344 l 968 777 l 976 782 b 1020 754 991 773 1005 763 b 1020 111 1020 540 1020 326 b 763 258 913 114 818 171 z m 565 741 b 582 730 571 737 577 734 l 582 433 l 379 433 z m 535 756 l 314 390 b 223 567 239 445 223 528 b 439 775 223 686 320 775 b 535 756 473 775 505 768 z m 307 314 l 582 314 l 582 207 l 513 147 b 332 201 459 182 395 201 b 230 185 295 201 261 196 z "},"Ç":{"ha":866,"x_min":0,"x_max":0,"o":"m 615 890 l 615 890 l 615 890 l 311 704 b 434 820 341 754 383 794 l 423 837 b 108 400 255 780 108 616 b 444 -16 108 199 251 15 l 378 -47 b 485 -154 430 -59 485 -94 b 405 -252 485 -209 435 -240 l 413 -261 b 588 -94 566 -187 588 -130 b 550 -17 588 -62 572 -37 b 828 278 705 3 821 120 l 806 278 b 578 113 766 198 686 127 b 578 735 578 320 578 527 b 720 666 623 709 670 686 l 857 810 l 848 821 l 811 791 b 615 890 737 814 673 848 z m 280 288 b 249 460 260 339 249 398 b 283 648 249 531 261 594 l 344 685 b 344 315 344 562 344 439 z m 293 260 l 493 344 l 493 777 l 502 782 b 545 754 516 773 531 763 b 545 110 545 540 545 325 b 539 110 543 110 541 110 b 293 260 421 110 338 169 z "},"È":{"ha":853,"x_min":0,"x_max":0,"o":"m 543 1110 l 603 1156 l 702 953 l 692 945 z m 616 890 l 616 890 l 616 890 l 311 704 b 435 820 342 754 384 794 l 424 837 b 108 406 256 783 108 619 b 512 -20 108 182 288 -20 b 841 278 691 -20 832 103 l 818 278 b 579 112 775 198 691 126 b 579 385 579 203 579 294 l 708 385 l 849 532 l 579 532 b 579 735 579 600 579 667 b 720 666 624 709 671 686 l 858 810 l 848 821 l 812 791 b 616 890 738 814 674 848 z m 281 288 b 250 459 260 339 250 397 b 283 648 250 530 262 594 l 345 685 b 345 315 345 562 345 439 z m 293 260 l 494 344 l 494 777 l 503 782 b 546 754 517 773 531 763 b 546 110 546 540 546 325 b 542 110 544 110 543 110 b 293 260 422 110 339 169 z "},"É":{"ha":853,"x_min":0,"x_max":0,"o":"m 702 1110 l 642 1156 l 543 953 l 553 945 z m 616 890 l 616 890 l 616 890 l 311 704 b 435 820 342 754 384 794 l 424 837 b 108 406 256 783 108 619 b 512 -20 108 182 288 -20 b 841 278 691 -20 832 103 l 818 278 b 579 112 775 198 691 126 b 579 385 579 203 579 294 l 708 385 l 849 532 l 579 532 b 579 735 579 600 579 667 b 720 666 624 709 671 686 l 858 810 l 848 821 l 812 791 b 616 890 738 814 674 848 z m 281 288 b 250 459 260 339 250 397 b 283 648 250 530 262 594 l 345 685 b 345 315 345 562 345 439 z m 293 260 l 494 344 l 494 777 l 503 782 b 546 754 517 773 531 763 b 546 110 546 540 546 325 b 542 110 544 110 543 110 b 293 260 422 110 339 169 z "},"Ê":{"ha":853,"x_min":0,"x_max":0,"o":"m 431 923 l 549 1040 l 675 923 l 760 1015 l 616 1148 l 410 944 z m 616 890 l 616 890 l 616 890 l 311 704 b 435 820 342 754 384 794 l 424 837 b 108 406 256 783 108 619 b 512 -20 108 182 288 -20 b 841 278 691 -20 832 103 l 818 278 b 579 112 775 198 691 126 b 579 385 579 203 579 294 l 708 385 l 849 532 l 579 532 b 579 735 579 600 579 667 b 720 666 624 709 671 686 l 858 810 l 848 821 l 812 791 b 616 890 738 814 674 848 z m 281 288 b 250 459 260 339 250 397 b 283 648 250 530 262 594 l 345 685 b 345 315 345 562 345 439 z m 293 260 l 494 344 l 494 777 l 503 782 b 546 754 517 773 531 763 b 546 110 546 540 546 325 b 542 110 544 110 543 110 b 293 260 422 110 339 169 z "},"Ë":{"ha":853,"x_min":0,"x_max":0,"o":"m 366 1076 l 472 970 l 576 1074 l 470 1180 z m 633 1076 l 738 970 l 842 1074 l 737 1180 z m 616 890 l 616 890 l 616 890 l 311 704 b 435 820 342 754 384 794 l 424 837 b 108 406 256 783 108 619 b 512 -20 108 182 288 -20 b 841 278 691 -20 832 103 l 818 278 b 579 112 775 198 691 126 b 579 385 579 203 579 294 l 708 385 l 849 532 l 579 532 b 579 735 579 600 579 667 b 720 666 624 709 671 686 l 858 810 l 848 821 l 812 791 b 616 890 738 814 674 848 z m 281 288 b 250 459 260 339 250 397 b 283 648 250 530 262 594 l 345 685 b 345 315 345 562 345 439 z m 293 260 l 494 344 l 494 777 l 503 782 b 546 754 517 773 531 763 b 546 110 546 540 546 325 b 542 110 544 110 543 110 b 293 260 422 110 339 169 z "},"Ì":{"ha":712,"x_min":0,"x_max":0,"o":"m 386 1156 l 446 1202 l 545 999 l 535 991 z m 204 174 l 242 174 b 408 282 307 193 377 226 b 425 371 421 307 425 335 l 425 460 l 425 624 b 486 756 425 725 457 730 b 587 848 519 784 557 801 l 589 878 b 490 841 557 848 518 841 b 318 870 433 841 377 870 b 109 703 195 870 128 748 l 137 703 b 215 749 148 731 177 749 b 358 733 262 749 308 733 b 386 734 367 733 376 733 b 347 707 373 726 360 717 b 275 581 280 656 275 631 l 275 551 b 128 418 213 541 128 522 b 145 350 128 395 134 371 l 167 350 b 166 363 166 354 166 359 b 233 424 166 389 177 424 b 275 424 247 424 261 424 l 275 340 b 273 281 275 320 275 300 b 204 174 266 232 241 193 z m 192 153 b 455 90 271 153 365 115 b 490 185 480 102 490 104 l 490 623 b 621 816 490 750 532 757 l 689 861 l 706 842 b 653 716 668 818 653 776 l 653 271 b 410 4 590 165 507 74 b 335 -23 390 -11 369 -23 b 288 -18 319 -23 304 -20 l 182 -4 b 166 -3 176 -4 171 -3 b 122 -44 141 -3 122 -19 b 179 -97 122 -74 149 -97 b 179 -97 179 -97 179 -97 l 179 -116 b 52 20 90 -116 52 -56 b 192 153 52 100 115 153 z "},"Í":{"ha":712,"x_min":0,"x_max":0,"o":"m 545 1156 l 485 1202 l 386 999 l 396 991 z m 204 174 l 242 174 b 408 282 307 193 377 226 b 425 371 421 307 425 335 l 425 460 l 425 624 b 486 756 425 725 457 730 b 587 848 519 784 557 801 l 589 878 b 490 841 557 848 518 841 b 318 870 433 841 377 870 b 109 703 195 870 128 748 l 137 703 b 215 749 148 731 177 749 b 358 733 262 749 308 733 b 386 734 367 733 376 733 b 347 707 373 726 360 717 b 275 581 280 656 275 631 l 275 551 b 128 418 213 541 128 522 b 145 350 128 395 134 371 l 167 350 b 166 363 166 354 166 359 b 233 424 166 389 177 424 b 275 424 247 424 261 424 l 275 340 b 273 281 275 320 275 300 b 204 174 266 232 241 193 z m 192 153 b 455 90 271 153 365 115 b 490 185 480 102 490 104 l 490 623 b 621 816 490 750 532 757 l 689 861 l 706 842 b 653 716 668 818 653 776 l 653 271 b 410 4 590 165 507 74 b 335 -23 390 -11 369 -23 b 288 -18 319 -23 304 -20 l 182 -4 b 166 -3 176 -4 171 -3 b 122 -44 141 -3 122 -19 b 179 -97 122 -74 149 -97 b 179 -97 179 -97 179 -97 l 179 -116 b 52 20 90 -116 52 -56 b 192 153 52 100 115 153 z "},"Î":{"ha":712,"x_min":0,"x_max":0,"o":"m 274 970 l 392 1087 l 518 970 l 603 1061 l 459 1195 l 253 991 z m 204 174 l 242 174 b 408 282 307 193 377 226 b 425 371 421 307 425 335 l 425 460 l 425 624 b 486 756 425 725 457 730 b 587 848 519 784 557 801 l 589 878 b 490 841 557 848 518 841 b 318 870 433 841 377 870 b 109 703 195 870 128 748 l 137 703 b 215 749 148 731 177 749 b 358 733 262 749 308 733 b 386 734 367 733 376 733 b 347 707 373 726 360 717 b 275 581 280 656 275 631 l 275 551 b 128 418 213 541 128 522 b 145 350 128 395 134 371 l 167 350 b 166 363 166 354 166 359 b 233 424 166 389 177 424 b 275 424 247 424 261 424 l 275 340 b 273 281 275 320 275 300 b 204 174 266 232 241 193 z m 192 153 b 455 90 271 153 365 115 b 490 185 480 102 490 104 l 490 623 b 621 816 490 750 532 757 l 689 861 l 706 842 b 653 716 668 818 653 776 l 653 271 b 410 4 590 165 507 74 b 335 -23 390 -11 369 -23 b 288 -18 319 -23 304 -20 l 182 -4 b 166 -3 176 -4 171 -3 b 122 -44 141 -3 122 -19 b 179 -97 122 -74 149 -97 b 179 -97 179 -97 179 -97 l 179 -116 b 52 20 90 -116 52 -56 b 192 153 52 100 115 153 z "},"Ï":{"ha":712,"x_min":0,"x_max":0,"o":"m 209 1122 l 315 1016 l 419 1120 l 313 1226 z m 476 1122 l 581 1016 l 685 1120 l 580 1226 z m 204 174 l 242 174 b 408 282 307 193 377 226 b 425 371 421 307 425 335 l 425 460 l 425 624 b 486 756 425 725 457 730 b 587 848 519 784 557 801 l 589 878 b 490 841 557 848 518 841 b 318 870 433 841 377 870 b 109 703 195 870 128 748 l 137 703 b 215 749 148 731 177 749 b 358 733 262 749 308 733 b 386 734 367 733 376 733 b 347 707 373 726 360 717 b 275 581 280 656 275 631 l 275 551 b 128 418 213 541 128 522 b 145 350 128 395 134 371 l 167 350 b 166 363 166 354 166 359 b 233 424 166 389 177 424 b 275 424 247 424 261 424 l 275 340 b 273 281 275 320 275 300 b 204 174 266 232 241 193 z m 192 153 b 455 90 271 153 365 115 b 490 185 480 102 490 104 l 490 623 b 621 816 490 750 532 757 l 689 861 l 706 842 b 653 716 668 818 653 776 l 653 271 b 410 4 590 165 507 74 b 335 -23 390 -11 369 -23 b 288 -18 319 -23 304 -20 l 182 -4 b 166 -3 176 -4 171 -3 b 122 -44 141 -3 122 -19 b 179 -97 122 -74 149 -97 b 179 -97 179 -97 179 -97 l 179 -116 b 52 20 90 -116 52 -56 b 192 153 52 100 115 153 z "},"Ð":{"ha":865,"x_min":0,"x_max":0,"o":"m 93 165 l 103 137 b 313 378 212 164 313 236 b 313 388 313 382 313 385 l 354 391 l 354 337 b 258 164 354 251 304 208 b 17 -36 147 132 66 55 l 50 -36 b 282 53 113 21 197 53 b 482 -11 356 53 424 30 l 771 148 b 848 471 814 235 848 351 b 519 856 848 693 762 856 l 203 856 b 118 908 158 856 125 870 l 93 909 b 166 715 72 829 72 715 l 327 715 l 235 656 b 163 534 194 629 163 603 b 163 509 163 526 163 517 b 28 374 90 494 28 459 b 47 309 28 351 35 329 l 69 309 b 68 320 68 313 68 316 b 135 376 68 359 98 374 l 163 378 b 163 373 163 376 163 375 b 93 165 163 277 157 201 z m 313 523 l 313 587 b 368 715 313 651 334 684 l 405 715 b 354 545 367 676 354 619 b 354 526 354 539 354 533 b 313 523 342 525 328 524 z m 480 167 b 480 318 480 217 480 268 l 691 425 b 626 96 690 299 664 193 b 480 167 583 129 533 153 z m 480 715 b 557 705 506 715 533 713 b 671 578 615 685 651 639 l 480 481 b 480 715 480 559 480 637 z m 447 174 b 375 180 423 178 399 180 b 316 176 355 180 335 179 b 386 337 354 216 386 263 l 386 545 b 447 709 386 623 400 676 b 447 174 447 531 447 352 z m 480 444 l 680 545 b 690 462 685 519 689 491 l 480 355 b 480 444 480 385 480 414 z "},"Ñ":{"ha":802,"x_min":0,"x_max":0,"o":"m 384 982 b 574 932 457 982 499 932 b 742 1054 659 932 714 993 l 713 1069 b 633 1026 698 1043 672 1026 b 434 1074 558 1026 510 1074 b 264 959 349 1074 300 1012 l 293 943 b 384 982 315 964 343 982 z m 161 366 b 217 404 161 395 187 404 b 229 404 221 404 225 404 l 229 214 b 228 214 229 214 229 214 b 53 57 132 214 53 150 b 226 -89 53 -45 145 -102 l 232 -68 b 155 -4 192 -72 155 -43 b 214 50 155 29 181 50 b 310 0 256 50 288 24 l 459 166 l 443 183 l 404 138 b 262 211 355 188 300 205 l 262 672 b 271 657 265 667 268 662 l 659 0 l 703 0 l 703 681 b 850 818 782 687 850 739 b 836 876 850 838 846 858 l 821 877 b 750 816 817 842 788 816 b 660 865 709 816 679 841 l 637 866 l 493 699 l 510 682 l 554 732 b 670 681 581 706 622 685 b 670 299 670 554 670 426 l 392 765 b 246 877 361 817 330 877 b 101 725 166 877 101 809 b 104 693 101 714 102 704 l 127 688 b 178 750 127 727 145 750 b 229 717 195 750 212 737 l 229 560 b 228 560 229 560 228 560 b 88 430 151 560 88 503 b 170 323 88 375 126 334 l 176 339 b 161 366 167 345 161 355 z "},"Ò":{"ha":873,"x_min":0,"x_max":0,"o":"m 443 1161 l 502 1207 l 601 1003 l 591 996 z m 231 698 l 302 728 b 302 354 302 603 302 479 l 222 320 b 192 497 202 374 192 435 b 231 698 192 571 206 639 z m 252 742 b 380 889 284 803 329 853 l 364 910 b 49 424 189 839 49 662 b 405 -33 49 163 211 -33 b 852 485 608 -33 852 221 b 585 885 852 682 727 823 z m 233 291 l 451 383 l 451 790 l 454 791 b 505 766 472 783 489 775 b 505 94 505 542 505 318 b 493 94 501 94 497 94 b 233 291 373 94 282 176 z m 538 99 b 538 319 538 172 538 246 l 731 417 b 733 366 733 400 733 383 b 538 99 733 219 643 121 z m 538 746 b 697 558 612 696 665 632 l 538 478 b 538 746 538 567 538 656 z m 538 441 l 708 527 b 727 452 717 503 723 477 l 538 356 b 538 441 538 384 538 412 z "},"Ó":{"ha":873,"x_min":0,"x_max":0,"o":"m 601 1161 l 542 1207 l 443 1003 l 453 996 z m 231 698 l 302 728 b 302 354 302 603 302 479 l 222 320 b 192 497 202 374 192 435 b 231 698 192 571 206 639 z m 252 742 b 380 889 284 803 329 853 l 364 910 b 49 424 189 839 49 662 b 405 -33 49 163 211 -33 b 852 485 608 -33 852 221 b 585 885 852 682 727 823 z m 233 291 l 451 383 l 451 790 l 454 791 b 505 766 472 783 489 775 b 505 94 505 542 505 318 b 493 94 501 94 497 94 b 233 291 373 94 282 176 z m 538 99 b 538 319 538 172 538 246 l 731 417 b 733 366 733 400 733 383 b 538 99 733 219 643 121 z m 538 746 b 697 558 612 696 665 632 l 538 478 b 538 746 538 567 538 656 z m 538 441 l 708 527 b 727 452 717 503 723 477 l 538 356 b 538 441 538 384 538 412 z "},"Ô":{"ha":873,"x_min":0,"x_max":0,"o":"m 330 974 l 448 1091 l 574 974 l 659 1066 l 516 1199 l 310 995 z m 231 698 l 302 728 b 302 354 302 603 302 479 l 222 320 b 192 497 202 374 192 435 b 231 698 192 571 206 639 z m 252 742 b 380 889 284 803 329 853 l 364 910 b 49 424 189 839 49 662 b 405 -33 49 163 211 -33 b 852 485 608 -33 852 221 b 585 885 852 682 727 823 z m 233 291 l 451 383 l 451 790 l 454 791 b 505 766 472 783 489 775 b 505 94 505 542 505 318 b 493 94 501 94 497 94 b 233 291 373 94 282 176 z m 538 99 b 538 319 538 172 538 246 l 731 417 b 733 366 733 400 733 383 b 538 99 733 219 643 121 z m 538 746 b 697 558 612 696 665 632 l 538 478 b 538 746 538 567 538 656 z m 538 441 l 708 527 b 727 452 717 503 723 477 l 538 356 b 538 441 538 384 538 412 z "},"Õ":{"ha":873,"x_min":0,"x_max":0,"o":"m 388 1042 b 578 993 462 1042 503 993 b 746 1114 663 993 718 1053 l 717 1129 b 638 1086 703 1104 676 1086 b 439 1134 562 1086 515 1134 b 268 1019 353 1134 305 1072 l 297 1004 b 388 1042 319 1024 348 1042 z m 231 698 l 302 728 b 302 354 302 603 302 479 l 222 320 b 192 497 202 374 192 435 b 231 698 192 571 206 639 z m 252 742 b 380 889 284 803 329 853 l 364 910 b 49 424 189 839 49 662 b 405 -33 49 163 211 -33 b 852 485 608 -33 852 221 b 585 885 852 682 727 823 z m 233 291 l 451 383 l 451 790 l 454 791 b 505 766 472 783 489 775 b 505 94 505 542 505 318 b 493 94 501 94 497 94 b 233 291 373 94 282 176 z m 538 99 b 538 319 538 172 538 246 l 731 417 b 733 366 733 400 733 383 b 538 99 733 219 643 121 z m 538 746 b 697 558 612 696 665 632 l 538 478 b 538 746 538 567 538 656 z m 538 441 l 708 527 b 727 452 717 503 723 477 l 538 356 b 538 441 538 384 538 412 z "},"Ö":{"ha":873,"x_min":0,"x_max":0,"o":"m 266 1127 l 371 1021 l 475 1125 l 370 1231 z m 532 1127 l 638 1021 l 742 1125 l 636 1231 z m 231 698 l 302 728 b 302 354 302 603 302 479 l 222 320 b 192 497 202 374 192 435 b 231 698 192 571 206 639 z m 252 742 b 380 889 284 803 329 853 l 364 910 b 49 424 189 839 49 662 b 405 -33 49 163 211 -33 b 852 485 608 -33 852 221 b 585 885 852 682 727 823 z m 233 291 l 451 383 l 451 790 l 454 791 b 505 766 472 783 489 775 b 505 94 505 542 505 318 b 493 94 501 94 497 94 b 233 291 373 94 282 176 z m 538 99 b 538 319 538 172 538 246 l 731 417 b 733 366 733 400 733 383 b 538 99 733 219 643 121 z m 538 746 b 697 558 612 696 665 632 l 538 478 b 538 746 538 567 538 656 z m 538 441 l 708 527 b 727 452 717 503 723 477 l 538 356 b 538 441 538 384 538 412 z "},"×":{"ha":664,"x_min":0,"x_max":0,"o":"m 86 583 l 258 406 l 80 231 l 247 231 l 340 323 l 429 231 l 596 231 l 426 406 l 607 583 l 440 583 l 344 490 l 253 583 z "},"Ø":{"ha":837,"x_min":0,"x_max":0,"o":"m 204 -69 l 243 -2 b 374 -33 284 -22 328 -33 b 821 485 576 -33 821 221 b 695 789 821 611 769 715 l 741 870 l 713 887 l 670 812 b 553 885 634 843 595 867 l 220 742 b 349 889 253 803 298 853 l 332 910 b 18 424 158 839 18 662 b 214 15 18 240 98 88 l 175 -53 z m 521 485 l 614 647 b 665 558 635 619 652 590 z m 494 437 l 495 435 l 677 527 b 696 452 685 503 691 478 l 425 317 z m 395 265 l 700 417 b 702 366 701 400 702 383 b 461 94 702 197 583 94 b 322 137 409 94 362 110 z m 591 674 l 296 157 b 202 291 256 192 225 238 l 420 383 l 420 790 l 423 791 b 591 674 492 761 548 721 z m 199 698 l 271 728 b 271 354 271 603 271 479 l 191 320 b 161 497 171 374 161 435 b 199 698 161 571 175 639 z "},"Ù":{"ha":968,"x_min":0,"x_max":0,"o":"m 493 1128 l 552 1174 l 651 971 l 641 963 z m 79 720 b 306 735 142 818 252 735 b 357 745 324 735 341 738 b 133 381 235 684 133 554 b 535 -13 133 168 314 -11 l 714 109 l 844 0 l 997 126 l 980 143 l 944 112 l 888 161 l 888 769 l 939 810 l 919 835 l 872 798 l 772 881 l 613 779 l 613 873 l 590 873 b 388 609 414 744 388 719 l 388 326 l 324 299 b 291 457 303 349 291 403 b 503 850 291 719 491 842 l 476 877 b 378 831 450 857 422 831 b 235 871 321 831 293 871 b 52 709 138 871 66 734 z m 581 831 b 581 109 581 590 581 349 b 338 271 468 115 385 183 l 538 355 l 538 709 b 581 831 538 777 552 809 z m 614 494 l 614 746 l 663 777 l 727 706 l 727 551 z m 614 457 l 727 514 l 727 430 l 614 372 z m 614 335 l 727 392 l 727 173 l 631 110 b 614 108 626 109 620 109 z "},"Ú":{"ha":968,"x_min":0,"x_max":0,"o":"m 651 1128 l 592 1174 l 493 971 l 503 963 z m 79 720 b 306 735 142 818 252 735 b 357 745 324 735 341 738 b 133 381 235 684 133 554 b 535 -13 133 168 314 -11 l 714 109 l 844 0 l 997 126 l 980 143 l 944 112 l 888 161 l 888 769 l 939 810 l 919 835 l 872 798 l 772 881 l 613 779 l 613 873 l 590 873 b 388 609 414 744 388 719 l 388 326 l 324 299 b 291 457 303 349 291 403 b 503 850 291 719 491 842 l 476 877 b 378 831 450 857 422 831 b 235 871 321 831 293 871 b 52 709 138 871 66 734 z m 581 831 b 581 109 581 590 581 349 b 338 271 468 115 385 183 l 538 355 l 538 709 b 581 831 538 777 552 809 z m 614 494 l 614 746 l 663 777 l 727 706 l 727 551 z m 614 457 l 727 514 l 727 430 l 614 372 z m 614 335 l 727 392 l 727 173 l 631 110 b 614 108 626 109 620 109 z "},"Û":{"ha":968,"x_min":0,"x_max":0,"o":"m 380 942 l 499 1059 l 624 942 l 709 1033 l 566 1167 l 360 963 z m 79 720 b 306 735 142 818 252 735 b 357 745 324 735 341 738 b 133 381 235 684 133 554 b 535 -13 133 168 314 -11 l 714 109 l 844 0 l 997 126 l 980 143 l 944 112 l 888 161 l 888 769 l 939 810 l 919 835 l 872 798 l 772 881 l 613 779 l 613 873 l 590 873 b 388 609 414 744 388 719 l 388 326 l 324 299 b 291 457 303 349 291 403 b 503 850 291 719 491 842 l 476 877 b 378 831 450 857 422 831 b 235 871 321 831 293 871 b 52 709 138 871 66 734 z m 581 831 b 581 109 581 590 581 349 b 338 271 468 115 385 183 l 538 355 l 538 709 b 581 831 538 777 552 809 z m 614 494 l 614 746 l 663 777 l 727 706 l 727 551 z m 614 457 l 727 514 l 727 430 l 614 372 z m 614 335 l 727 392 l 727 173 l 631 110 b 614 108 626 109 620 109 z "},"Ü":{"ha":968,"x_min":0,"x_max":0,"o":"m 316 1094 l 422 989 l 526 1093 l 420 1198 z m 582 1094 l 688 989 l 792 1093 l 686 1198 z m 79 720 b 306 735 142 818 252 735 b 357 745 324 735 341 738 b 133 381 235 684 133 554 b 535 -13 133 168 314 -11 l 714 109 l 844 0 l 997 126 l 980 143 l 944 112 l 888 161 l 888 769 l 939 810 l 919 835 l 872 798 l 772 881 l 613 779 l 613 873 l 590 873 b 388 609 414 744 388 719 l 388 326 l 324 299 b 291 457 303 349 291 403 b 503 850 291 719 491 842 l 476 877 b 378 831 450 857 422 831 b 235 871 321 831 293 871 b 52 709 138 871 66 734 z m 581 831 b 581 109 581 590 581 349 b 338 271 468 115 385 183 l 538 355 l 538 709 b 581 831 538 777 552 809 z m 614 494 l 614 746 l 663 777 l 727 706 l 727 551 z m 614 457 l 727 514 l 727 430 l 614 372 z m 614 335 l 727 392 l 727 173 l 631 110 b 614 108 626 109 620 109 z "},"Ý":{"ha":826,"x_min":0,"x_max":0,"o":"m 520 1087 l 461 1133 l 362 929 l 372 922 z m 665 -227 b 626 -272 665 -251 646 -268 l 631 -294 b 674 -281 646 -292 660 -287 b 767 -155 720 -261 767 -220 b 603 -32 767 -73 692 -32 b 265 -87 451 -32 341 -87 b 177 -18 221 -87 177 -65 b 296 61 177 40 240 61 b 615 11 410 61 522 11 b 760 170 736 11 760 93 l 759 732 l 818 780 l 797 805 l 754 770 l 637 871 l 480 744 b 480 860 480 783 480 822 l 446 860 b 446 66 446 596 446 331 b 371 84 423 71 398 78 l 371 711 b 238 867 371 807 322 867 b 89 722 149 867 92 797 l 117 722 b 165 777 117 757 134 777 b 209 708 206 777 209 726 l 209 505 b 200 506 206 506 203 506 b 60 375 123 506 60 448 b 142 268 60 321 98 280 l 148 284 b 133 311 139 290 133 300 b 189 349 133 340 159 349 b 209 349 195 349 202 349 l 209 80 b 97 -75 139 53 97 -9 b 271 -228 97 -152 155 -228 b 600 -177 376 -228 522 -177 b 665 -227 633 -177 665 -193 z m 480 63 b 480 335 480 153 480 244 b 598 331 515 360 564 359 b 598 229 598 297 598 263 b 481 63 598 100 550 63 b 480 63 481 63 480 63 z m 480 703 l 535 747 l 598 694 b 598 509 598 632 598 570 b 480 505 564 481 515 479 b 480 703 480 571 480 637 z m 480 471 b 598 475 515 446 564 448 b 598 365 598 438 598 402 b 480 368 562 393 514 392 b 480 471 480 403 480 437 z "},"Þ":{"ha":809,"x_min":0,"x_max":0,"o":"m 79 340 b 146 389 79 383 112 389 b 181 389 158 389 170 389 b 181 197 181 325 181 261 b 17 39 99 153 44 86 l 44 39 b 181 123 81 79 129 108 b 181 -129 181 39 181 -45 l 181 -129 l 344 -129 l 416 -129 l 416 -96 l 416 -96 b 416 91 416 -34 416 29 b 461 57 432 81 447 70 l 765 221 l 765 589 b 621 730 726 644 677 692 l 416 581 b 416 853 416 671 416 762 l 383 853 b 383 556 383 754 383 655 l 344 528 b 344 649 344 568 344 609 b 199 858 344 773 289 858 b 55 710 110 858 60 776 l 82 710 b 137 766 87 737 106 766 b 181 685 168 766 181 737 b 181 505 181 625 181 565 b 45 379 113 508 45 458 b 53 337 45 365 48 351 l 79 337 b 79 340 79 338 79 339 z m 416 431 b 416 545 416 469 416 507 l 509 610 b 604 526 543 585 575 557 z m 416 394 l 617 496 l 617 412 l 416 310 b 416 394 416 338 416 366 z m 416 273 l 617 374 l 617 180 l 592 165 b 416 236 540 203 479 227 b 416 273 416 249 416 261 z m 383 240 b 359 241 375 240 367 241 b 344 240 354 241 349 240 b 344 493 344 325 344 409 l 383 521 b 383 240 383 427 383 334 z m 383 109 b 383 -96 383 40 383 -28 l 344 -96 b 344 123 344 -23 344 50 b 383 109 357 119 370 114 z "},"ß":{"ha":634,"x_min":0,"x_max":0,"o":"m 316 272 l 444 390 l 288 502 l 239 456 l 239 488 l 376 615 l 574 479 l 468 383 b 611 125 589 307 611 184 b 268 -179 611 -96 411 -196 l 266 -151 b 460 66 382 -138 460 -41 b 316 272 460 170 393 244 z m 95 150 l 95 150 l 17 100 l 34 77 l 78 105 l 200 0 l 360 82 l 343 104 l 305 84 l 239 138 l 239 456 l 239 488 l 239 716 l 239 785 l 365 705 l 508 785 l 353 881 l 95 736 l 95 587 l 40 527 l 40 511 b 95 456 64 511 95 501 l 95 150 z "},"à":{"ha":567,"x_min":0,"x_max":0,"o":"m 245 814 l 304 860 l 403 656 l 393 649 z m 181 500 l 317 416 b 317 307 317 380 317 343 b 117 430 240 325 117 356 b 181 500 117 461 146 482 z m 201 -6 l 323 83 l 411 -6 l 572 105 l 567 127 l 517 94 l 461 150 l 461 441 l 522 490 l 501 516 l 455 478 l 284 588 l 156 521 b 84 423 122 503 84 474 b 178 313 84 370 125 336 b 45 147 92 268 45 209 b 201 -6 45 60 127 4 z m 317 273 b 317 98 317 214 317 156 b 293 94 309 95 301 94 b 185 252 221 94 185 186 b 199 305 185 274 192 294 b 317 273 238 291 280 281 z "},"á":{"ha":567,"x_min":0,"x_max":0,"o":"m 403 814 l 344 860 l 245 656 l 255 649 z m 181 500 l 317 416 b 317 307 317 380 317 343 b 117 430 240 325 117 356 b 181 500 117 461 146 482 z m 201 -6 l 323 83 l 411 -6 l 572 105 l 567 127 l 517 94 l 461 150 l 461 441 l 522 490 l 501 516 l 455 478 l 284 588 l 156 521 b 84 423 122 503 84 474 b 178 313 84 370 125 336 b 45 147 92 268 45 209 b 201 -6 45 60 127 4 z m 317 273 b 317 98 317 214 317 156 b 293 94 309 95 301 94 b 185 252 221 94 185 186 b 199 305 185 274 192 294 b 317 273 238 291 280 281 z "},"â":{"ha":567,"x_min":0,"x_max":0,"o":"m 132 627 l 250 744 l 376 627 l 461 718 l 318 852 l 112 648 z m 181 500 l 317 416 b 317 307 317 380 317 343 b 117 430 240 325 117 356 b 181 500 117 461 146 482 z m 201 -6 l 323 83 l 411 -6 l 572 105 l 567 127 l 517 94 l 461 150 l 461 441 l 522 490 l 501 516 l 455 478 l 284 588 l 156 521 b 84 423 122 503 84 474 b 178 313 84 370 125 336 b 45 147 92 268 45 209 b 201 -6 45 60 127 4 z m 317 273 b 317 98 317 214 317 156 b 293 94 309 95 301 94 b 185 252 221 94 185 186 b 199 305 185 274 192 294 b 317 273 238 291 280 281 z "},"ã":{"ha":567,"x_min":0,"x_max":0,"o":"m 190 695 b 380 645 264 695 305 645 b 548 767 465 645 520 706 l 519 782 b 440 739 505 756 478 739 b 241 787 364 739 317 787 b 70 672 156 787 107 725 l 99 656 b 190 695 121 677 150 695 z m 181 500 l 317 416 b 317 307 317 380 317 343 b 117 430 240 325 117 356 b 181 500 117 461 146 482 z m 201 -6 l 323 83 l 411 -6 l 572 105 l 567 127 l 517 94 l 461 150 l 461 441 l 522 490 l 501 516 l 455 478 l 284 588 l 156 521 b 84 423 122 503 84 474 b 178 313 84 370 125 336 b 45 147 92 268 45 209 b 201 -6 45 60 127 4 z m 317 273 b 317 98 317 214 317 156 b 293 94 309 95 301 94 b 185 252 221 94 185 186 b 199 305 185 274 192 294 b 317 273 238 291 280 281 z "},"ä":{"ha":567,"x_min":0,"x_max":0,"o":"m 68 779 l 173 674 l 278 778 l 172 884 z m 334 779 l 440 674 l 544 778 l 438 884 z m 181 500 l 317 416 b 317 307 317 380 317 343 b 117 430 240 325 117 356 b 181 500 117 461 146 482 z m 201 -6 l 323 83 l 411 -6 l 572 105 l 567 127 l 517 94 l 461 150 l 461 441 l 522 490 l 501 516 l 455 478 l 284 588 l 156 521 b 84 423 122 503 84 474 b 178 313 84 370 125 336 b 45 147 92 268 45 209 b 201 -6 45 60 127 4 z m 317 273 b 317 98 317 214 317 156 b 293 94 309 95 301 94 b 185 252 221 94 185 186 b 199 305 185 274 192 294 b 317 273 238 291 280 281 z "},"å":{"ha":567,"x_min":0,"x_max":0,"o":"m 173 669 b 244 567 173 622 203 582 l 156 521 b 84 423 122 503 84 474 b 178 313 84 370 125 336 b 45 147 92 268 45 209 b 201 -6 45 60 127 4 l 323 83 l 411 -6 l 572 105 l 567 127 l 517 94 l 461 150 l 461 441 l 522 490 l 501 516 l 455 478 l 318 566 b 391 669 360 581 391 621 b 282 778 391 729 342 778 b 173 669 222 778 173 729 z m 206 669 b 282 745 206 711 240 745 b 358 669 324 745 358 711 b 282 593 358 627 324 593 b 206 669 240 593 206 627 z m 181 500 l 317 416 b 317 307 317 380 317 343 b 117 430 240 325 117 356 b 181 500 117 461 146 482 z m 317 273 b 317 98 317 214 317 156 b 293 94 309 95 301 94 b 185 252 221 94 185 186 b 199 305 185 274 192 294 b 317 273 238 291 280 281 z "},"æ":{"ha":750,"x_min":0,"x_max":0,"o":"m 176 505 l 320 416 l 320 307 b 120 434 156 346 120 390 b 176 505 120 470 149 494 z m 184 236 b 204 309 184 266 191 288 b 320 274 242 295 284 284 l 320 129 b 275 107 309 114 292 107 b 184 236 216 107 184 179 z m 464 255 l 714 410 l 714 416 l 597 593 l 420 502 l 287 588 l 159 521 b 87 427 125 503 87 478 b 185 317 87 372 130 340 b 45 147 95 270 45 210 b 201 -6 45 60 128 4 l 346 109 l 508 -11 l 747 183 l 730 211 l 603 111 l 464 205 z m 464 283 l 464 473 l 464 473 l 464 492 l 486 505 l 586 360 z "},"ç":{"ha":425,"x_min":0,"x_max":0,"o":"m 211 201 b 342 122 246 138 308 122 l 409 170 l 424 149 l 265 11 b 244 21 258 15 251 18 l 222 10 l 62 119 l 62 465 l 301 598 l 424 500 l 314 417 l 211 502 z m 265 11 l 253 0 l 237 0 l 222 10 l 120 -38 b 227 -145 172 -50 227 -85 b 147 -243 227 -199 176 -231 l 155 -251 b 330 -85 308 -178 330 -120 b 265 11 330 -41 299 -9 z "},"è":{"ha":493,"x_min":0,"x_max":0,"o":"m 209 832 l 268 878 l 367 675 l 357 667 z m 28 75 l 80 116 l 251 -11 l 490 183 l 473 211 l 346 111 l 207 205 l 207 255 l 457 410 l 457 416 l 340 593 l 63 449 l 63 144 l 8 100 z m 207 295 l 207 492 l 229 505 l 323 368 z "},"é":{"ha":493,"x_min":0,"x_max":0,"o":"m 367 832 l 308 878 l 209 675 l 219 667 z m 28 75 l 80 116 l 251 -11 l 490 183 l 473 211 l 346 111 l 207 205 l 207 255 l 457 410 l 457 416 l 340 593 l 63 449 l 63 144 l 8 100 z m 207 295 l 207 492 l 229 505 l 323 368 z "},"ê":{"ha":493,"x_min":0,"x_max":0,"o":"m 97 646 l 215 762 l 340 646 l 425 737 l 282 871 l 76 667 z m 28 75 l 80 116 l 251 -11 l 490 183 l 473 211 l 346 111 l 207 205 l 207 255 l 457 410 l 457 416 l 340 593 l 63 449 l 63 144 l 8 100 z m 207 295 l 207 492 l 229 505 l 323 368 z "},"ë":{"ha":493,"x_min":0,"x_max":0,"o":"m 32 798 l 138 692 l 242 796 l 136 902 z m 298 798 l 404 692 l 508 796 l 402 902 z m 28 75 l 80 116 l 251 -11 l 490 183 l 473 211 l 346 111 l 207 205 l 207 255 l 457 410 l 457 416 l 340 593 l 63 449 l 63 144 l 8 100 z m 207 295 l 207 492 l 229 505 l 323 368 z "},"ì":{"ha":395,"x_min":0,"x_max":0,"o":"m 97 818 l 156 864 l 255 661 l 245 653 z m 350 133 l 300 100 l 261 138 l 261 488 l 173 593 l 17 488 l 34 466 l 78 494 l 117 444 l 117 138 l 45 89 l 62 66 l 101 94 l 212 -6 l 378 111 z "},"í":{"ha":395,"x_min":0,"x_max":0,"o":"m 255 818 l 196 864 l 97 661 l 107 653 z m 350 133 l 300 100 l 261 138 l 261 488 l 173 593 l 17 488 l 34 466 l 78 494 l 117 444 l 117 138 l 45 89 l 62 66 l 101 94 l 212 -6 l 378 111 z "},"î":{"ha":395,"x_min":0,"x_max":0,"o":"m -15 632 l 103 749 l 228 632 l 313 723 l 170 857 l -36 653 z m 350 133 l 300 100 l 261 138 l 261 488 l 173 593 l 17 488 l 34 466 l 78 494 l 117 444 l 117 138 l 45 89 l 62 66 l 101 94 l 212 -6 l 378 111 z "},"ï":{"ha":395,"x_min":0,"x_max":0,"o":"m -80 784 l 26 678 l 130 782 l 24 888 z m 186 784 l 292 678 l 396 782 l 290 888 z m 350 133 l 300 100 l 261 138 l 261 488 l 173 593 l 17 488 l 34 466 l 78 494 l 117 444 l 117 138 l 45 89 l 62 66 l 101 94 l 212 -6 l 378 111 z "},"ð":{"ha":505,"x_min":0,"x_max":0,"o":"m 213 551 l 335 439 l 335 91 l 213 176 z m 204 558 l 63 471 l 63 116 l 230 1 l 484 151 l 484 479 l 534 519 l 514 544 l 471 510 l 247 707 l 286 753 l 263 776 l 222 728 l 72 861 l 72 653 l 95 657 l 133 623 l 92 574 l 115 551 l 157 601 z "},"ñ":{"ha":645,"x_min":0,"x_max":0,"o":"m 230 704 b 420 655 304 704 345 655 b 588 776 505 655 560 715 l 559 791 b 479 749 544 766 518 749 b 281 796 404 749 356 796 b 110 681 195 796 146 734 l 139 666 b 230 704 161 686 189 704 z m 622 133 l 577 100 l 527 144 l 527 446 l 583 492 l 563 517 l 514 478 l 383 590 l 256 491 l 167 590 l 6 479 l 22 457 l 67 485 l 111 435 l 111 127 l 67 89 l 200 -17 l 311 83 l 261 127 l 261 445 l 311 485 l 394 413 l 394 127 l 355 89 l 472 -17 l 644 100 z "},"ò":{"ha":546,"x_min":0,"x_max":0,"o":"m 231 818 l 291 864 l 390 661 l 380 653 z m 226 177 l 226 510 l 360 421 l 360 89 z m 38 78 l 86 117 l 249 0 l 504 155 l 504 471 l 337 599 l 77 449 b 77 152 77 350 77 251 l 17 104 z "},"ó":{"ha":546,"x_min":0,"x_max":0,"o":"m 390 818 l 330 864 l 231 661 l 241 653 z m 226 177 l 226 510 l 360 421 l 360 89 z m 38 78 l 86 117 l 249 0 l 504 155 l 504 471 l 337 599 l 77 449 b 77 152 77 350 77 251 l 17 104 z "},"ô":{"ha":546,"x_min":0,"x_max":0,"o":"m 119 632 l 237 749 l 363 632 l 448 723 l 304 857 l 98 653 z m 226 177 l 226 510 l 360 421 l 360 89 z m 38 78 l 86 117 l 249 0 l 504 155 l 504 471 l 337 599 l 77 449 b 77 152 77 350 77 251 l 17 104 z "},"õ":{"ha":546,"x_min":0,"x_max":0,"o":"m 177 700 b 367 650 250 700 291 650 b 535 771 452 650 507 710 l 505 787 b 426 744 491 761 465 744 b 227 792 351 744 303 792 b 57 677 142 792 93 729 l 86 661 b 177 700 107 682 136 700 z m 226 177 l 226 510 l 360 421 l 360 89 z m 38 78 l 86 117 l 249 0 l 504 155 l 504 471 l 337 599 l 77 449 b 77 152 77 350 77 251 l 17 104 z "},"ö":{"ha":546,"x_min":0,"x_max":0,"o":"m 54 784 l 160 678 l 264 782 l 158 888 z m 320 784 l 426 678 l 530 782 l 424 888 z m 226 177 l 226 510 l 360 421 l 360 89 z m 38 78 l 86 117 l 249 0 l 504 155 l 504 471 l 337 599 l 77 449 b 77 152 77 350 77 251 l 17 104 z "},"÷":{"ha":809,"x_min":0,"x_max":0,"o":"m 311 227 l 416 122 l 520 226 l 415 331 z m 774 540 l 757 557 l 731 529 l 181 529 l 39 371 l 56 354 l 84 382 l 633 382 z m 311 696 l 416 590 l 520 694 l 415 800 z "},"ø":{"ha":521,"x_min":0,"x_max":0,"o":"m 38 78 l 86 117 b 145 74 106 103 126 88 l 58 -78 l 87 -95 l 172 55 b 249 0 198 36 223 18 l 504 155 l 504 471 l 440 520 l 524 667 l 495 683 l 413 541 l 337 599 l 77 449 b 77 152 77 350 77 251 l 17 104 z m 238 169 l 360 380 l 360 89 z m 349 428 l 226 215 l 226 510 z "},"ù":{"ha":603,"x_min":0,"x_max":0,"o":"m 259 832 l 318 878 l 417 675 l 407 667 z m 60 495 b 106 429 95 495 106 465 l 106 429 l 106 157 l 70 127 l 227 -5 l 373 110 b 462 -2 382 36 420 0 l 601 93 l 580 122 l 537 87 b 505 166 514 102 506 131 l 505 214 l 505 489 l 555 530 l 534 555 l 497 524 l 420 590 l 312 490 l 372 437 l 372 199 l 372 143 l 317 102 l 244 171 l 244 450 b 153 589 244 525 207 568 l 3 492 l 15 476 b 60 495 26 485 41 495 z "},"ú":{"ha":603,"x_min":0,"x_max":0,"o":"m 417 832 l 358 878 l 259 675 l 269 667 z m 60 495 b 106 429 95 495 106 465 l 106 429 l 106 157 l 70 127 l 227 -5 l 373 110 b 462 -2 382 36 420 0 l 601 93 l 580 122 l 537 87 b 505 166 514 102 506 131 l 505 214 l 505 489 l 555 530 l 534 555 l 497 524 l 420 590 l 312 490 l 372 437 l 372 199 l 372 143 l 317 102 l 244 171 l 244 450 b 153 589 244 525 207 568 l 3 492 l 15 476 b 60 495 26 485 41 495 z "},"û":{"ha":603,"x_min":0,"x_max":0,"o":"m 147 646 l 265 762 l 390 646 l 475 737 l 332 871 l 126 667 z m 60 495 b 106 429 95 495 106 465 l 106 429 l 106 157 l 70 127 l 227 -5 l 373 110 b 462 -2 382 36 420 0 l 601 93 l 580 122 l 537 87 b 505 166 514 102 506 131 l 505 214 l 505 489 l 555 530 l 534 555 l 497 524 l 420 590 l 312 490 l 372 437 l 372 199 l 372 143 l 317 102 l 244 171 l 244 450 b 153 589 244 525 207 568 l 3 492 l 15 476 b 60 495 26 485 41 495 z "},"ü":{"ha":603,"x_min":0,"x_max":0,"o":"m 82 798 l 188 692 l 292 796 l 186 902 z m 348 798 l 454 692 l 558 796 l 452 902 z m 60 495 b 106 429 95 495 106 465 l 106 429 l 106 157 l 70 127 l 227 -5 l 373 110 b 462 -2 382 36 420 0 l 601 93 l 580 122 l 537 87 b 505 166 514 102 506 131 l 505 214 l 505 489 l 555 530 l 534 555 l 497 524 l 420 590 l 312 490 l 372 437 l 372 199 l 372 143 l 317 102 l 244 171 l 244 450 b 153 589 244 525 207 568 l 3 492 l 15 476 b 60 495 26 485 41 495 z "},"ý":{"ha":600,"x_min":0,"x_max":0,"o":"m 424 828 l 365 873 l 266 670 l 276 662 z m 160 -149 b 72 -178 128 -149 97 -159 l 56 -167 b 240 -39 81 -98 150 -39 b 383 -100 293 -39 346 -62 b 425 -49 408 -98 425 -77 b 387 75 425 -1 396 3 l 278 0 l 111 116 l 111 441 l 69 491 l 22 463 l 6 485 l 161 590 l 250 485 l 250 188 l 385 104 b 384 119 385 109 384 114 l 384 441 l 321 515 l 433 591 l 538 466 l 538 161 b 572 23 538 65 572 66 b 492 -61 572 -28 522 -40 l 278 -212 b 160 -149 253 -176 214 -149 z "},"þ":{"ha":566,"x_min":0,"x_max":0,"o":"m 56 724 b 101 657 86 724 101 696 b 101 151 101 489 101 320 l 42 101 b 101 91 62 98 82 95 b 101 -201 101 -6 101 -104 l 124 -201 l 289 -102 l 289 -85 b 236 -4 251 -79 236 -49 l 236 49 b 314 9 263 37 289 24 b 506 143 373 59 437 104 l 506 465 l 549 500 l 529 526 l 494 497 l 382 595 l 236 486 l 236 739 b 158 826 218 775 191 804 l 17 731 l 30 713 b 56 724 37 720 46 724 z m 236 448 l 286 487 l 363 424 l 363 80 b 236 135 322 99 279 118 z "},"ÿ":{"ha":600,"x_min":0,"x_max":0,"o":"m 89 793 l 195 688 l 299 792 l 193 897 z m 355 793 l 461 688 l 565 792 l 459 897 z m 160 -149 b 72 -178 128 -149 97 -159 l 56 -167 b 240 -39 81 -98 150 -39 b 383 -100 293 -39 346 -62 b 425 -49 408 -98 425 -77 b 387 75 425 -1 396 3 l 278 0 l 111 116 l 111 441 l 69 491 l 22 463 l 6 485 l 161 590 l 250 485 l 250 188 l 385 104 b 384 119 385 109 384 114 l 384 441 l 321 515 l 433 591 l 538 466 l 538 161 b 572 23 538 65 572 66 b 492 -61 572 -28 522 -40 l 278 -212 b 160 -149 253 -176 214 -149 z "},"Ā":{"ha":888,"x_min":0,"x_max":0,"o":"m 439 1005 l 754 1004 l 754 1128 l 439 1129 z m 803 861 l 778 882 l 701 817 b 500 877 642 855 571 877 b 184 588 336 877 184 764 b 321 364 184 482 243 403 l 201 163 b 51 -12 129 124 77 59 l 73 -12 b 275 75 125 43 199 75 b 456 8 340 75 406 51 l 585 120 b 725 -4 625 73 672 31 l 878 120 l 845 158 l 806 126 b 756 291 760 161 756 214 l 756 734 b 783 839 756 779 763 812 z m 580 734 b 606 718 589 729 598 724 l 606 421 l 394 421 z m 550 748 l 333 383 b 248 555 283 421 248 480 b 464 763 248 677 342 763 b 550 748 494 763 523 758 z m 331 315 l 324 302 l 606 302 l 606 206 l 537 147 b 356 201 484 182 420 201 b 253 185 319 201 285 195 z "},"ā":{"ha":567,"x_min":0,"x_max":0,"o":"m 164 681 l 480 680 l 480 803 l 164 805 z m 181 500 l 317 416 b 317 307 317 380 317 343 b 117 430 240 325 117 356 b 181 500 117 461 146 482 z m 201 -6 l 323 83 l 411 -6 l 572 105 l 567 127 l 517 94 l 461 150 l 461 441 l 522 490 l 501 516 l 455 478 l 284 588 l 156 521 b 84 423 122 503 84 474 b 178 313 84 370 125 336 b 45 147 92 268 45 209 b 201 -6 45 60 127 4 z m 317 273 b 317 98 317 214 317 156 b 293 94 309 95 301 94 b 185 252 221 94 185 186 b 199 305 185 274 192 294 b 317 273 238 291 280 281 z "},"Ă":{"ha":888,"x_min":0,"x_max":0,"o":"m 412 1068 l 491 1138 b 622 1075 517 1101 562 1075 b 716 1123 667 1075 701 1092 l 746 1109 b 576 980 718 1045 665 980 b 412 1068 500 980 447 1021 z m 803 861 l 778 882 l 701 817 b 500 877 642 855 571 877 b 184 588 336 877 184 764 b 321 364 184 482 243 403 l 201 163 b 51 -12 129 124 77 59 l 73 -12 b 275 75 125 43 199 75 b 456 8 340 75 406 51 l 585 120 b 725 -4 625 73 672 31 l 878 120 l 845 158 l 806 126 b 756 291 760 161 756 214 l 756 734 b 783 839 756 779 763 812 z m 580 734 b 606 718 589 729 598 724 l 606 421 l 394 421 z m 550 748 l 333 383 b 248 555 283 421 248 480 b 464 763 248 677 342 763 b 550 748 494 763 523 758 z m 331 315 l 324 302 l 606 302 l 606 206 l 537 147 b 356 201 484 182 420 201 b 253 185 319 201 285 195 z "},"ă":{"ha":567,"x_min":0,"x_max":0,"o":"m 137 744 l 216 814 b 348 751 242 777 288 751 b 441 799 393 751 427 768 l 471 785 b 301 656 443 721 390 656 b 137 744 226 656 172 697 z m 181 500 l 317 416 b 317 307 317 380 317 343 b 117 430 240 325 117 356 b 181 500 117 461 146 482 z m 201 -6 l 323 83 l 411 -6 l 572 105 l 567 127 l 517 94 l 461 150 l 461 441 l 522 490 l 501 516 l 455 478 l 284 588 l 156 521 b 84 423 122 503 84 474 b 178 313 84 370 125 336 b 45 147 92 268 45 209 b 201 -6 45 60 127 4 z m 317 273 b 317 98 317 214 317 156 b 293 94 309 95 301 94 b 185 252 221 94 185 186 b 199 305 185 274 192 294 b 317 273 238 291 280 281 z "},"Ą":{"ha":888,"x_min":0,"x_max":0,"o":"m 702 -90 b 731 1 702 -54 713 -23 l 794 52 b 809 58 799 54 804 56 l 805 61 l 878 120 l 845 158 l 806 126 b 756 291 760 161 756 214 l 756 734 b 783 839 756 779 763 812 l 803 861 l 778 882 l 701 817 b 500 877 642 855 571 877 b 184 588 336 877 184 764 b 321 364 184 482 243 403 l 201 163 b 51 -12 129 124 77 59 l 73 -12 b 275 75 125 43 199 75 b 456 8 340 75 406 51 l 585 120 b 623 79 597 106 610 92 b 599 -7 608 55 599 26 b 774 -237 599 -123 734 -210 l 782 -225 b 702 -90 737 -200 702 -154 z m 580 734 b 606 718 589 729 598 724 l 606 421 l 394 421 z m 550 748 l 333 383 b 248 555 283 421 248 480 b 464 763 248 677 342 763 b 550 748 494 763 523 758 z m 331 315 l 324 302 l 606 302 l 606 206 l 537 147 b 356 201 484 182 420 201 b 253 185 319 201 285 195 z "},"ą":{"ha":567,"x_min":0,"x_max":0,"o":"m 404 -85 b 439 14 404 -46 418 -12 l 509 62 b 511 63 510 62 511 62 l 511 63 l 572 105 l 567 127 l 517 94 l 461 150 l 461 441 l 522 490 l 501 516 l 455 478 l 284 588 l 156 521 b 84 423 122 503 84 474 b 178 313 84 370 125 336 b 45 147 92 268 45 209 b 201 -6 45 60 127 4 l 323 83 l 324 82 b 301 -2 310 58 301 30 b 476 -232 301 -118 436 -206 l 484 -220 b 404 -85 439 -195 404 -149 z m 181 500 l 317 416 b 317 307 317 380 317 343 b 117 430 240 325 117 356 b 181 500 117 461 146 482 z m 317 273 b 317 98 317 214 317 156 b 293 94 309 95 301 94 b 185 252 221 94 185 186 b 199 305 185 274 192 294 b 317 273 238 291 280 281 z "},"Ć":{"ha":866,"x_min":0,"x_max":0,"o":"m 679 1110 l 620 1156 l 520 953 l 530 945 z m 615 890 l 615 890 l 615 890 l 311 704 b 434 820 341 754 383 794 l 423 837 b 108 400 255 780 108 616 b 502 -20 108 179 281 -20 b 828 278 681 -20 820 104 l 806 278 b 578 113 766 198 686 127 b 578 735 578 320 578 527 b 720 666 623 709 670 686 l 857 810 l 848 821 l 811 791 b 615 890 737 814 673 848 z m 280 288 b 249 460 260 339 249 398 b 283 648 249 531 261 594 l 344 685 b 344 315 344 562 344 439 z m 293 260 l 493 344 l 493 777 l 502 782 b 545 754 516 773 531 763 b 545 110 545 540 545 325 b 539 110 543 110 541 110 b 293 260 421 110 338 169 z "},"ć":{"ha":425,"x_min":0,"x_max":0,"o":"m 374 837 l 315 883 l 216 679 l 226 672 z m 211 201 b 342 122 246 138 308 122 l 409 170 l 424 149 l 253 0 l 237 0 l 62 119 l 62 465 l 301 598 l 424 500 l 314 417 l 211 502 z "},"Ĉ":{"ha":866,"x_min":0,"x_max":0,"o":"m 408 923 l 526 1040 l 652 923 l 737 1015 l 593 1148 l 387 944 z m 615 890 l 615 890 l 615 890 l 311 704 b 434 820 341 754 383 794 l 423 837 b 108 400 255 780 108 616 b 502 -20 108 179 281 -20 b 828 278 681 -20 820 104 l 806 278 b 578 113 766 198 686 127 b 578 735 578 320 578 527 b 720 666 623 709 670 686 l 857 810 l 848 821 l 811 791 b 615 890 737 814 673 848 z m 280 288 b 249 460 260 339 249 398 b 283 648 249 531 261 594 l 344 685 b 344 315 344 562 344 439 z m 293 260 l 493 344 l 493 777 l 502 782 b 545 754 516 773 531 763 b 545 110 545 540 545 325 b 539 110 543 110 541 110 b 293 260 421 110 338 169 z "},"ĉ":{"ha":425,"x_min":0,"x_max":0,"o":"m 104 650 l 222 767 l 347 650 l 432 742 l 289 875 l 83 671 z m 211 201 b 342 122 246 138 308 122 l 409 170 l 424 149 l 253 0 l 237 0 l 62 119 l 62 465 l 301 598 l 424 500 l 314 417 l 211 502 z "},"Ċ":{"ha":866,"x_min":0,"x_max":0,"o":"m 482 1085 l 588 979 l 692 1083 l 586 1189 z m 615 890 l 615 890 l 615 890 l 311 704 b 434 820 341 754 383 794 l 423 837 b 108 400 255 780 108 616 b 502 -20 108 179 281 -20 b 828 278 681 -20 820 104 l 806 278 b 578 113 766 198 686 127 b 578 735 578 320 578 527 b 720 666 623 709 670 686 l 857 810 l 848 821 l 811 791 b 615 890 737 814 673 848 z m 280 288 b 249 460 260 339 249 398 b 283 648 249 531 261 594 l 344 685 b 344 315 344 562 344 439 z m 293 260 l 493 344 l 493 777 l 502 782 b 545 754 516 773 531 763 b 545 110 545 540 545 325 b 539 110 543 110 541 110 b 293 260 421 110 338 169 z "},"ċ":{"ha":425,"x_min":0,"x_max":0,"o":"m 178 812 l 284 706 l 388 810 l 282 916 z m 211 201 b 342 122 246 138 308 122 l 409 170 l 424 149 l 253 0 l 237 0 l 62 119 l 62 465 l 301 598 l 424 500 l 314 417 l 211 502 z "},"Č":{"ha":866,"x_min":0,"x_max":0,"o":"m 430 1092 l 587 948 l 797 1163 l 776 1184 l 652 1058 l 515 1184 z m 615 890 l 615 890 l 615 890 l 311 704 b 434 820 341 754 383 794 l 423 837 b 108 400 255 780 108 616 b 502 -20 108 179 281 -20 b 828 278 681 -20 820 104 l 806 278 b 578 113 766 198 686 127 b 578 735 578 320 578 527 b 720 666 623 709 670 686 l 857 810 l 848 821 l 811 791 b 615 890 737 814 673 848 z m 280 288 b 249 460 260 339 249 398 b 283 648 249 531 261 594 l 344 685 b 344 315 344 562 344 439 z m 293 260 l 493 344 l 493 777 l 502 782 b 545 754 516 773 531 763 b 545 110 545 540 545 325 b 539 110 543 110 541 110 b 293 260 421 110 338 169 z "},"č":{"ha":425,"x_min":0,"x_max":0,"o":"m 126 819 l 282 675 l 493 889 l 471 911 l 347 785 l 210 910 z m 211 201 b 342 122 246 138 308 122 l 409 170 l 424 149 l 253 0 l 237 0 l 62 119 l 62 465 l 301 598 l 424 500 l 314 417 l 211 502 z "},"Ď":{"ha":911,"x_min":0,"x_max":0,"o":"m 361 1069 l 517 925 l 728 1139 l 706 1161 l 583 1035 l 446 1160 z m 132 165 l 143 137 b 352 378 251 164 352 236 l 352 497 l 352 587 b 408 715 352 651 373 684 l 444 715 b 393 545 407 676 393 619 l 393 337 b 298 164 393 251 343 208 b 57 -36 186 132 105 55 l 90 -36 b 322 53 152 21 237 53 b 521 -11 395 53 464 30 l 811 148 b 887 471 854 235 887 351 b 558 856 887 693 801 856 l 242 856 b 157 908 197 856 165 870 l 133 909 b 205 715 111 829 111 715 l 366 715 l 275 656 b 203 534 233 629 203 603 b 203 506 203 525 203 516 b 69 377 130 494 69 467 b 86 309 69 354 75 330 l 108 309 b 175 376 104 350 127 376 b 203 376 184 376 193 376 b 203 373 203 375 203 374 b 132 165 203 277 196 201 z m 519 167 b 519 318 519 217 519 268 l 730 425 b 665 96 729 299 704 193 b 519 167 622 129 572 153 z m 519 715 b 597 705 546 715 572 713 b 710 578 655 685 690 639 l 519 481 b 519 715 519 559 519 637 z m 486 174 b 414 180 462 178 438 180 b 356 176 394 180 374 179 b 426 337 393 216 426 263 l 426 545 b 486 709 426 623 439 676 b 486 174 486 531 486 352 z m 519 444 l 719 545 b 729 462 725 519 728 491 l 519 355 b 519 444 519 385 519 414 z "},"ď":{"ha":550,"x_min":0,"x_max":0,"o":"m 349 897 b 451 717 349 831 451 835 b 442 665 451 684 442 678 b 457 650 442 657 449 650 b 468 656 461 650 466 652 b 526 806 500 699 526 742 b 411 959 526 895 454 959 b 349 897 377 959 349 931 z m 212 539 l 335 427 l 335 79 l 212 165 z m 204 547 l 63 460 l 63 104 l 230 -10 l 484 139 l 484 468 l 534 508 l 514 533 l 471 498 l 72 849 l 72 642 l 95 646 z "},"Đ":{"ha":865,"x_min":0,"x_max":0,"o":"m 93 165 l 103 137 b 313 378 212 164 313 236 b 313 388 313 382 313 385 l 354 391 l 354 337 b 258 164 354 251 304 208 b 17 -36 147 132 66 55 l 50 -36 b 282 53 113 21 197 53 b 482 -11 356 53 424 30 l 771 148 b 848 471 814 235 848 351 b 519 856 848 693 762 856 l 203 856 b 118 908 158 856 125 870 l 93 909 b 166 715 72 829 72 715 l 327 715 l 235 656 b 163 534 194 629 163 603 b 163 509 163 526 163 517 b 28 374 90 494 28 459 b 47 309 28 351 35 329 l 69 309 b 68 320 68 313 68 316 b 135 376 68 359 98 374 l 163 378 b 163 373 163 376 163 375 b 93 165 163 277 157 201 z m 313 523 l 313 587 b 368 715 313 651 334 684 l 405 715 b 354 545 367 676 354 619 b 354 526 354 539 354 533 b 313 523 342 525 328 524 z m 480 167 b 480 318 480 217 480 268 l 691 425 b 626 96 690 299 664 193 b 480 167 583 129 533 153 z m 480 715 b 557 705 506 715 533 713 b 671 578 615 685 651 639 l 480 481 b 480 715 480 559 480 637 z m 447 174 b 375 180 423 178 399 180 b 316 176 355 180 335 179 b 386 337 354 216 386 263 l 386 545 b 447 709 386 623 400 676 b 447 174 447 531 447 352 z m 480 444 l 680 545 b 690 462 685 519 689 491 l 480 355 b 480 444 480 385 480 414 z "},"đ":{"ha":505,"x_min":0,"x_max":0,"o":"m 213 551 l 335 439 l 335 91 l 213 176 z m 204 558 l 63 471 l 63 116 l 230 1 l 484 151 l 484 479 l 534 519 l 514 544 l 471 510 l 247 707 l 286 753 l 263 776 l 222 728 l 72 861 l 72 653 l 95 657 l 133 623 l 92 574 l 115 551 l 157 601 z "},"Ē":{"ha":853,"x_min":0,"x_max":0,"o":"m 416 977 l 732 976 l 732 1100 l 416 1101 z m 616 890 l 616 890 l 616 890 l 311 704 b 435 820 342 754 384 794 l 424 837 b 108 406 256 783 108 619 b 512 -20 108 182 288 -20 b 841 278 691 -20 832 103 l 818 278 b 579 112 775 198 691 126 b 579 385 579 203 579 294 l 708 385 l 849 532 l 579 532 b 579 735 579 600 579 667 b 720 666 624 709 671 686 l 858 810 l 848 821 l 812 791 b 616 890 738 814 674 848 z m 281 288 b 250 459 260 339 250 397 b 283 648 250 530 262 594 l 345 685 b 345 315 345 562 345 439 z m 293 260 l 494 344 l 494 777 l 503 782 b 546 754 517 773 531 763 b 546 110 546 540 546 325 b 542 110 544 110 543 110 b 293 260 422 110 339 169 z "},"ē":{"ha":493,"x_min":0,"x_max":0,"o":"m 128 699 l 444 698 l 444 822 l 128 823 z m 28 75 l 80 116 l 251 -11 l 490 183 l 473 211 l 346 111 l 207 205 l 207 255 l 457 410 l 457 416 l 340 593 l 63 449 l 63 144 l 8 100 z m 207 295 l 207 492 l 229 505 l 323 368 z "},"Ĕ":{"ha":853,"x_min":0,"x_max":0,"o":"m 378 1041 l 457 1110 b 589 1048 483 1073 528 1048 b 682 1095 633 1048 667 1064 l 712 1081 b 542 953 684 1018 631 953 b 378 1041 466 953 413 993 z m 616 890 l 616 890 l 616 890 l 311 704 b 435 820 342 754 384 794 l 424 837 b 108 406 256 783 108 619 b 512 -20 108 182 288 -20 b 841 278 691 -20 832 103 l 818 278 b 579 112 775 198 691 126 b 579 385 579 203 579 294 l 708 385 l 849 532 l 579 532 b 579 735 579 600 579 667 b 720 666 624 709 671 686 l 858 810 l 848 821 l 812 791 b 616 890 738 814 674 848 z m 281 288 b 250 459 260 339 250 397 b 283 648 250 530 262 594 l 345 685 b 345 315 345 562 345 439 z m 293 260 l 494 344 l 494 777 l 503 782 b 546 754 517 773 531 763 b 546 110 546 540 546 325 b 542 110 544 110 543 110 b 293 260 422 110 339 169 z "},"ĕ":{"ha":493,"x_min":0,"x_max":0,"o":"m 101 763 l 180 832 b 312 770 206 795 252 770 b 406 818 357 770 391 786 l 435 803 b 265 675 407 740 355 675 b 101 763 190 675 136 715 z m 28 75 l 80 116 l 251 -11 l 490 183 l 473 211 l 346 111 l 207 205 l 207 255 l 457 410 l 457 416 l 340 593 l 63 449 l 63 144 l 8 100 z m 207 295 l 207 492 l 229 505 l 323 368 z "},"Ė":{"ha":853,"x_min":0,"x_max":0,"o":"m 505 1085 l 611 979 l 715 1083 l 609 1189 z m 616 890 l 616 890 l 616 890 l 311 704 b 435 820 342 754 384 794 l 424 837 b 108 406 256 783 108 619 b 512 -20 108 182 288 -20 b 841 278 691 -20 832 103 l 818 278 b 579 112 775 198 691 126 b 579 385 579 203 579 294 l 708 385 l 849 532 l 579 532 b 579 735 579 600 579 667 b 720 666 624 709 671 686 l 858 810 l 848 821 l 812 791 b 616 890 738 814 674 848 z m 281 288 b 250 459 260 339 250 397 b 283 648 250 530 262 594 l 345 685 b 345 315 345 562 345 439 z m 293 260 l 494 344 l 494 777 l 503 782 b 546 754 517 773 531 763 b 546 110 546 540 546 325 b 542 110 544 110 543 110 b 293 260 422 110 339 169 z "},"ė":{"ha":493,"x_min":0,"x_max":0,"o":"m 171 807 l 277 701 l 381 805 l 275 911 z m 28 75 l 80 116 l 251 -11 l 490 183 l 473 211 l 346 111 l 207 205 l 207 255 l 457 410 l 457 416 l 340 593 l 63 449 l 63 144 l 8 100 z m 207 295 l 207 492 l 229 505 l 323 368 z "},"Ę":{"ha":853,"x_min":0,"x_max":0,"o":"m 554 -132 b 621 -4 554 -75 583 -30 b 841 278 746 35 834 141 l 818 278 b 579 112 775 198 691 126 b 579 385 579 203 579 294 l 708 385 l 849 532 l 579 532 b 579 735 579 600 579 667 b 720 666 624 709 671 686 l 858 810 l 848 821 l 812 791 b 616 890 738 814 674 848 l 616 890 l 616 890 l 311 704 b 435 820 342 754 384 794 l 424 837 b 108 406 256 783 108 619 b 455 -16 108 201 258 15 b 451 -48 452 -26 451 -37 b 627 -278 451 -164 587 -252 l 634 -267 b 554 -132 589 -242 554 -196 z m 281 288 b 250 459 260 339 250 397 b 283 648 250 530 262 594 l 345 685 b 345 315 345 562 345 439 z m 293 260 l 494 344 l 494 777 l 503 782 b 546 754 517 773 531 763 b 546 110 546 540 546 325 b 542 110 544 110 543 110 b 293 260 422 110 339 169 z "},"ę":{"ha":493,"x_min":0,"x_max":0,"o":"m 205 -104 b 241 -4 205 -64 219 -30 l 251 -11 l 490 183 l 473 211 l 346 111 l 207 205 l 207 255 l 457 410 l 457 416 l 340 593 l 63 449 l 63 144 l 8 100 l 28 75 l 80 116 l 134 76 b 102 -20 115 50 102 17 b 277 -251 102 -137 237 -224 l 285 -239 b 205 -104 240 -214 205 -168 z m 207 295 l 207 492 l 229 505 l 323 368 z "},"Ě":{"ha":853,"x_min":0,"x_max":0,"o":"m 395 1092 l 551 948 l 762 1163 l 741 1184 l 617 1058 l 480 1184 z m 616 890 l 616 890 l 616 890 l 311 704 b 435 820 342 754 384 794 l 424 837 b 108 406 256 783 108 619 b 512 -20 108 182 288 -20 b 841 278 691 -20 832 103 l 818 278 b 579 112 775 198 691 126 b 579 385 579 203 579 294 l 708 385 l 849 532 l 579 532 b 579 735 579 600 579 667 b 720 666 624 709 671 686 l 858 810 l 848 821 l 812 791 b 616 890 738 814 674 848 z m 281 288 b 250 459 260 339 250 397 b 283 648 250 530 262 594 l 345 685 b 345 315 345 562 345 439 z m 293 260 l 494 344 l 494 777 l 503 782 b 546 754 517 773 531 763 b 546 110 546 540 546 325 b 542 110 544 110 543 110 b 293 260 422 110 339 169 z "},"ě":{"ha":493,"x_min":0,"x_max":0,"o":"m 119 814 l 275 670 l 486 885 l 464 906 l 340 780 l 204 906 z m 28 75 l 80 116 l 251 -11 l 490 183 l 473 211 l 346 111 l 207 205 l 207 255 l 457 410 l 457 416 l 340 593 l 63 449 l 63 144 l 8 100 z m 207 295 l 207 492 l 229 505 l 323 368 z "},"Ĝ":{"ha":934,"x_min":0,"x_max":0,"o":"m 398 937 l 516 1054 l 642 937 l 727 1029 l 583 1162 l 377 958 z m 573 281 l 722 356 b 746 284 733 334 742 309 l 573 197 b 573 281 573 225 573 253 z m 573 318 b 573 489 573 375 573 432 b 705 384 625 469 672 432 z m 573 159 l 750 248 b 750 239 750 245 750 242 b 573 18 750 129 678 35 b 573 159 573 65 573 112 z m 288 237 b 253 502 262 319 253 413 b 329 731 253 601 279 678 b 329 392 329 618 329 505 b 326 324 329 369 329 346 b 288 237 321 290 308 260 z m 307 184 b 469 320 385 203 448 252 b 479 397 477 345 479 371 l 479 417 l 540 478 b 540 15 540 324 540 169 b 539 15 540 15 540 15 b 307 184 423 15 350 85 z m 479 808 b 489 810 482 809 486 809 b 688 671 550 763 617 706 l 479 463 l 479 556 z m 675 611 l 868 802 l 844 825 l 806 788 b 603 901 729 815 662 854 l 495 835 b 93 375 281 812 93 609 b 494 -28 93 148 263 -28 b 898 331 706 -28 898 118 b 675 611 898 478 796 586 z "},"ĝ":{"ha":565,"x_min":0,"x_max":0,"o":"m 164 641 l 282 758 l 408 641 l 493 732 l 350 866 l 144 662 z m 330 -100 b 187 -39 293 -62 240 -39 b 3 -167 97 -39 28 -98 l 19 -178 b 107 -149 44 -159 75 -149 b 225 -212 161 -149 201 -176 l 439 -61 b 519 23 469 -40 519 -27 b 485 161 519 66 485 65 b 485 455 485 259 485 357 l 541 500 l 520 525 l 471 485 l 319 599 l 58 449 l 58 116 l 225 0 l 332 74 b 373 -48 342 11 373 -3 b 330 -100 373 -76 355 -97 z m 329 105 l 197 188 l 197 493 l 330 404 l 329 119 b 329 105 329 114 329 110 z "},"Ğ":{"ha":934,"x_min":0,"x_max":0,"o":"m 403 1054 l 482 1124 b 614 1061 508 1087 553 1061 b 707 1109 658 1061 692 1078 l 737 1095 b 567 967 709 1032 656 967 b 403 1054 491 967 438 1007 z m 573 281 l 722 356 b 746 284 733 334 742 309 l 573 197 b 573 281 573 225 573 253 z m 573 318 b 573 489 573 375 573 432 b 705 384 625 469 672 432 z m 573 159 l 750 248 b 750 239 750 245 750 242 b 573 18 750 129 678 35 b 573 159 573 65 573 112 z m 288 237 b 253 502 262 319 253 413 b 329 731 253 601 279 678 b 329 392 329 618 329 505 b 326 324 329 369 329 346 b 288 237 321 290 308 260 z m 307 184 b 469 320 385 203 448 252 b 479 397 477 345 479 371 l 479 417 l 540 478 b 540 15 540 324 540 169 b 539 15 540 15 540 15 b 307 184 423 15 350 85 z m 479 808 b 489 810 482 809 486 809 b 688 671 550 763 617 706 l 479 463 l 479 556 z m 675 611 l 868 802 l 844 825 l 806 788 b 603 901 729 815 662 854 l 495 835 b 93 375 281 812 93 609 b 494 -28 93 148 263 -28 b 898 331 706 -28 898 118 b 675 611 898 478 796 586 z "},"ğ":{"ha":565,"x_min":0,"x_max":0,"o":"m 169 758 l 248 828 b 380 765 274 791 320 765 b 473 813 425 765 459 782 l 503 799 b 333 670 475 735 422 670 b 169 758 258 670 204 711 z m 330 -100 b 187 -39 293 -62 240 -39 b 3 -167 97 -39 28 -98 l 19 -178 b 107 -149 44 -159 75 -149 b 225 -212 161 -149 201 -176 l 439 -61 b 519 23 469 -40 519 -27 b 485 161 519 66 485 65 b 485 455 485 259 485 357 l 541 500 l 520 525 l 471 485 l 319 599 l 58 449 l 58 116 l 225 0 l 332 74 b 373 -48 342 11 373 -3 b 330 -100 373 -76 355 -97 z m 329 105 l 197 188 l 197 493 l 330 404 l 329 119 b 329 105 329 114 329 110 z "},"Ġ":{"ha":934,"x_min":0,"x_max":0,"o":"m 472 1099 l 578 993 l 682 1097 l 576 1203 z m 573 281 l 722 356 b 746 284 733 334 742 309 l 573 197 b 573 281 573 225 573 253 z m 573 318 b 573 489 573 375 573 432 b 705 384 625 469 672 432 z m 573 159 l 750 248 b 750 239 750 245 750 242 b 573 18 750 129 678 35 b 573 159 573 65 573 112 z m 288 237 b 253 502 262 319 253 413 b 329 731 253 601 279 678 b 329 392 329 618 329 505 b 326 324 329 369 329 346 b 288 237 321 290 308 260 z m 307 184 b 469 320 385 203 448 252 b 479 397 477 345 479 371 l 479 417 l 540 478 b 540 15 540 324 540 169 b 539 15 540 15 540 15 b 307 184 423 15 350 85 z m 479 808 b 489 810 482 809 486 809 b 688 671 550 763 617 706 l 479 463 l 479 556 z m 675 611 l 868 802 l 844 825 l 806 788 b 603 901 729 815 662 854 l 495 835 b 93 375 281 812 93 609 b 494 -28 93 148 263 -28 b 898 331 706 -28 898 118 b 675 611 898 478 796 586 z "},"ġ":{"ha":565,"x_min":0,"x_max":0,"o":"m 239 803 l 344 697 l 448 801 l 343 907 z m 330 -100 b 187 -39 293 -62 240 -39 b 3 -167 97 -39 28 -98 l 19 -178 b 107 -149 44 -159 75 -149 b 225 -212 161 -149 201 -176 l 439 -61 b 519 23 469 -40 519 -27 b 485 161 519 66 485 65 b 485 455 485 259 485 357 l 541 500 l 520 525 l 471 485 l 319 599 l 58 449 l 58 116 l 225 0 l 332 74 b 373 -48 342 11 373 -3 b 330 -100 373 -76 355 -97 z m 329 105 l 197 188 l 197 493 l 330 404 l 329 119 b 329 105 329 114 329 110 z "},"Ģ":{"ha":934,"x_min":0,"x_max":0,"o":"m 573 281 l 722 356 b 746 284 733 334 742 309 l 573 197 b 573 281 573 225 573 253 z m 573 318 b 573 489 573 375 573 432 b 705 384 625 469 672 432 z m 573 159 l 750 248 b 750 239 750 245 750 242 b 573 18 750 129 678 35 b 573 159 573 65 573 112 z m 288 237 b 253 502 262 319 253 413 b 329 731 253 601 279 678 b 329 392 329 618 329 505 b 326 324 329 369 329 346 b 288 237 321 290 308 260 z m 307 184 b 469 320 385 203 448 252 b 479 397 477 345 479 371 l 479 417 l 540 478 b 540 15 540 324 540 169 b 539 15 540 15 540 15 b 307 184 423 15 350 85 z m 479 808 b 489 810 482 809 486 809 b 688 671 550 763 617 706 l 479 463 l 479 556 z m 547 -25 b 898 331 737 -2 898 137 b 675 611 898 478 796 586 l 868 802 l 844 825 l 806 788 b 603 901 729 815 662 854 l 495 835 b 93 375 281 812 93 609 b 494 -28 93 148 263 -28 b 505 -28 497 -28 501 -28 l 405 -75 b 512 -182 457 -87 512 -122 b 432 -280 512 -236 462 -268 l 440 -288 b 616 -122 593 -215 616 -157 b 547 -25 616 -77 582 -44 z "},"ģ":{"ha":565,"x_min":0,"x_max":0,"o":"m 330 -100 b 187 -39 293 -62 240 -39 b 3 -167 97 -39 28 -98 l 19 -178 b 107 -149 44 -159 75 -149 b 215 -198 154 -149 190 -169 l 153 -228 b 260 -335 205 -240 260 -275 b 180 -433 260 -389 209 -421 l 188 -441 b 363 -274 341 -368 363 -310 b 283 -171 363 -225 322 -190 l 439 -61 b 519 23 469 -40 519 -27 b 485 161 519 66 485 65 b 485 455 485 259 485 357 l 541 500 l 520 525 l 471 485 l 319 599 l 58 449 l 58 116 l 225 0 l 332 74 b 373 -48 342 11 373 -3 b 330 -100 373 -76 355 -97 z m 329 105 l 197 188 l 197 493 l 330 404 l 329 119 b 329 105 329 114 329 110 z "},"Ĥ":{"ha":903,"x_min":0,"x_max":0,"o":"m 393 980 l 511 1096 l 637 980 l 722 1071 l 578 1204 l 372 1001 z m 83 714 b 175 761 104 751 142 761 b 281 751 209 761 245 751 b 480 878 383 751 443 837 l 458 889 b 364 864 427 869 395 864 b 244 874 323 864 283 874 b 61 725 103 874 64 734 z m 183 166 l 183 137 b 312 180 229 142 273 156 b 396 352 396 233 396 310 l 396 610 b 449 778 396 705 411 737 b 449 123 449 560 449 342 b 342 141 414 135 378 141 b 52 -40 148 141 64 -15 l 87 -40 b 254 31 130 5 192 31 b 385 -10 316 31 362 5 l 500 100 b 482 110 494 104 488 107 b 482 397 482 205 482 301 l 640 397 l 640 140 l 581 94 l 594 77 l 622 98 l 734 -4 l 887 126 l 871 143 l 834 112 l 802 149 l 802 776 l 845 812 l 825 837 l 791 809 l 703 881 l 569 772 l 570 740 l 609 770 l 641 741 l 640 532 l 482 532 b 482 813 482 626 482 720 l 449 813 l 419 780 b 363 726 402 760 384 742 b 247 557 298 677 247 662 l 247 528 b 112 400 185 517 112 495 b 130 332 112 377 118 353 l 152 332 b 218 399 145 372 170 399 b 247 399 228 399 237 399 l 247 396 b 183 166 247 223 234 194 z "},"ĥ":{"ha":609,"x_min":0,"x_max":0,"o":"m 204 957 l 322 1074 l 448 957 l 533 1048 l 389 1182 l 183 978 z m 264 138 l 264 424 l 329 484 l 397 427 l 397 132 b 270 -100 397 12 355 -100 l 270 -128 b 306 -130 282 -130 294 -130 b 547 132 507 -130 547 13 l 547 463 l 597 503 l 577 528 l 531 491 l 408 593 l 264 458 l 264 887 l 242 887 l 53 754 l 53 738 b 109 677 109 721 109 695 l 109 150 l 31 100 l 51 73 l 95 101 l 214 0 l 359 100 l 338 126 l 302 101 z "},"Ĩ":{"ha":712,"x_min":0,"x_max":0,"o":"m 332 1037 b 522 988 405 1037 447 988 b 690 1109 607 988 662 1048 l 661 1125 b 581 1082 646 1099 620 1082 b 382 1130 506 1082 458 1130 b 212 1015 297 1130 248 1067 l 241 999 b 332 1037 262 1020 291 1037 z m 204 174 l 242 174 b 408 282 307 193 377 226 b 425 371 421 307 425 335 l 425 460 l 425 624 b 486 756 425 725 457 730 b 587 848 519 784 557 801 l 589 878 b 490 841 557 848 518 841 b 318 870 433 841 377 870 b 109 703 195 870 128 748 l 137 703 b 215 749 148 731 177 749 b 358 733 262 749 308 733 b 386 734 367 733 376 733 b 347 707 373 726 360 717 b 275 581 280 656 275 631 l 275 551 b 128 418 213 541 128 522 b 145 350 128 395 134 371 l 167 350 b 166 363 166 354 166 359 b 233 424 166 389 177 424 b 275 424 247 424 261 424 l 275 340 b 273 281 275 320 275 300 b 204 174 266 232 241 193 z m 192 153 b 455 90 271 153 365 115 b 490 185 480 102 490 104 l 490 623 b 621 816 490 750 532 757 l 689 861 l 706 842 b 653 716 668 818 653 776 l 653 271 b 410 4 590 165 507 74 b 335 -23 390 -11 369 -23 b 288 -18 319 -23 304 -20 l 182 -4 b 166 -3 176 -4 171 -3 b 122 -44 141 -3 122 -19 b 179 -97 122 -74 149 -97 b 179 -97 179 -97 179 -97 l 179 -116 b 52 20 90 -116 52 -56 b 192 153 52 100 115 153 z "},"ĩ":{"ha":395,"x_min":0,"x_max":0,"o":"m 42 700 b 232 650 116 700 157 650 b 400 771 318 650 372 710 l 371 787 b 292 744 357 761 330 744 b 93 792 216 744 169 792 b -78 677 8 792 -41 729 l -48 661 b 42 700 -27 682 2 700 z m 350 133 l 300 100 l 261 138 l 261 488 l 173 593 l 17 488 l 34 466 l 78 494 l 117 444 l 117 138 l 45 89 l 62 66 l 101 94 l 212 -6 l 378 111 z "},"Ī":{"ha":712,"x_min":0,"x_max":0,"o":"m 305 1023 l 621 1022 l 621 1146 l 305 1147 z m 204 174 l 242 174 b 408 282 307 193 377 226 b 425 371 421 307 425 335 l 425 460 l 425 624 b 486 756 425 725 457 730 b 587 848 519 784 557 801 l 589 878 b 490 841 557 848 518 841 b 318 870 433 841 377 870 b 109 703 195 870 128 748 l 137 703 b 215 749 148 731 177 749 b 358 733 262 749 308 733 b 386 734 367 733 376 733 b 347 707 373 726 360 717 b 275 581 280 656 275 631 l 275 551 b 128 418 213 541 128 522 b 145 350 128 395 134 371 l 167 350 b 166 363 166 354 166 359 b 233 424 166 389 177 424 b 275 424 247 424 261 424 l 275 340 b 273 281 275 320 275 300 b 204 174 266 232 241 193 z m 192 153 b 455 90 271 153 365 115 b 490 185 480 102 490 104 l 490 623 b 621 816 490 750 532 757 l 689 861 l 706 842 b 653 716 668 818 653 776 l 653 271 b 410 4 590 165 507 74 b 335 -23 390 -11 369 -23 b 288 -18 319 -23 304 -20 l 182 -4 b 166 -3 176 -4 171 -3 b 122 -44 141 -3 122 -19 b 179 -97 122 -74 149 -97 b 179 -97 179 -97 179 -97 l 179 -116 b 52 20 90 -116 52 -56 b 192 153 52 100 115 153 z "},"ī":{"ha":395,"x_min":0,"x_max":0,"o":"m 16 685 l 332 684 l 332 808 l 16 809 z m 350 133 l 300 100 l 261 138 l 261 488 l 173 593 l 17 488 l 34 466 l 78 494 l 117 444 l 117 138 l 45 89 l 62 66 l 101 94 l 212 -6 l 378 111 z "},"Ĭ":{"ha":712,"x_min":0,"x_max":0,"o":"m 279 1087 l 357 1156 b 489 1094 384 1119 429 1094 b 583 1142 534 1094 568 1110 l 613 1127 b 442 999 584 1064 532 999 b 279 1087 367 999 313 1040 z m 204 174 l 242 174 b 408 282 307 193 377 226 b 425 371 421 307 425 335 l 425 460 l 425 624 b 486 756 425 725 457 730 b 587 848 519 784 557 801 l 589 878 b 490 841 557 848 518 841 b 318 870 433 841 377 870 b 109 703 195 870 128 748 l 137 703 b 215 749 148 731 177 749 b 358 733 262 749 308 733 b 386 734 367 733 376 733 b 347 707 373 726 360 717 b 275 581 280 656 275 631 l 275 551 b 128 418 213 541 128 522 b 145 350 128 395 134 371 l 167 350 b 166 363 166 354 166 359 b 233 424 166 389 177 424 b 275 424 247 424 261 424 l 275 340 b 273 281 275 320 275 300 b 204 174 266 232 241 193 z m 192 153 b 455 90 271 153 365 115 b 490 185 480 102 490 104 l 490 623 b 621 816 490 750 532 757 l 689 861 l 706 842 b 653 716 668 818 653 776 l 653 271 b 410 4 590 165 507 74 b 335 -23 390 -11 369 -23 b 288 -18 319 -23 304 -20 l 182 -4 b 166 -3 176 -4 171 -3 b 122 -44 141 -3 122 -19 b 179 -97 122 -74 149 -97 b 179 -97 179 -97 179 -97 l 179 -116 b 52 20 90 -116 52 -56 b 192 153 52 100 115 153 z "},"ĭ":{"ha":395,"x_min":0,"x_max":0,"o":"m -11 749 l 68 818 b 200 756 94 781 140 756 b 294 804 245 756 279 772 l 323 789 b 153 661 295 726 243 661 b -11 749 78 661 24 702 z m 350 133 l 300 100 l 261 138 l 261 488 l 173 593 l 17 488 l 34 466 l 78 494 l 117 444 l 117 138 l 45 89 l 62 66 l 101 94 l 212 -6 l 378 111 z "},"Į":{"ha":712,"x_min":0,"x_max":0,"o":"m 178 -333 b 285 -185 178 -257 228 -203 l 179 -116 l 179 -116 b 146 -113 167 -116 157 -115 b 75 -249 108 -141 75 -189 b 250 -479 75 -366 210 -453 l 258 -468 b 178 -333 213 -443 178 -397 z m 204 174 l 242 174 b 408 282 307 193 377 226 b 425 371 421 307 425 335 l 425 460 l 425 624 b 486 756 425 725 457 730 b 587 848 519 784 557 801 l 589 878 b 490 841 557 848 518 841 b 318 870 433 841 377 870 b 109 703 195 870 128 748 l 137 703 b 215 749 148 731 177 749 b 358 733 262 749 308 733 b 386 734 367 733 376 733 b 347 707 373 726 360 717 b 275 581 280 656 275 631 l 275 551 b 128 418 213 541 128 522 b 145 350 128 395 134 371 l 167 350 b 166 363 166 354 166 359 b 233 424 166 389 177 424 b 275 424 247 424 261 424 l 275 340 b 273 281 275 320 275 300 b 204 174 266 232 241 193 z m 192 153 b 455 90 271 153 365 115 b 490 185 480 102 490 104 l 490 623 b 621 816 490 750 532 757 l 689 861 l 706 842 b 653 716 668 818 653 776 l 653 271 b 410 4 590 165 507 74 b 335 -23 390 -11 369 -23 b 288 -18 319 -23 304 -20 l 182 -4 b 166 -3 176 -4 171 -3 b 122 -44 141 -3 122 -19 b 179 -97 122 -74 149 -97 b 179 -97 179 -97 179 -97 l 179 -116 l 160 -103 b 146 -113 156 -106 151 -109 b 52 20 81 -99 52 -46 b 192 153 52 100 115 153 z "},"į":{"ha":358,"x_min":0,"x_max":0,"o":"m 217 -223 b 324 -75 217 -147 267 -94 l 213 -2 l 374 111 l 347 133 l 297 100 l 258 138 l 258 488 l 169 593 l 14 488 l 30 466 l 75 494 l 114 444 l 114 138 l 42 89 l 58 66 l 97 94 l 196 5 b 113 -139 153 -23 113 -74 b 289 -370 113 -256 249 -343 l 296 -358 b 217 -223 251 -333 217 -287 z m 77 750 l 175 637 l 286 734 l 187 847 z "},"İ":{"ha":712,"x_min":0,"x_max":0,"o":"m 348 1131 l 454 1025 l 558 1130 l 452 1235 z m 204 174 l 242 174 b 408 282 307 193 377 226 b 425 371 421 307 425 335 l 425 460 l 425 624 b 486 756 425 725 457 730 b 587 848 519 784 557 801 l 589 878 b 490 841 557 848 518 841 b 318 870 433 841 377 870 b 109 703 195 870 128 748 l 137 703 b 215 749 148 731 177 749 b 358 733 262 749 308 733 b 386 734 367 733 376 733 b 347 707 373 726 360 717 b 275 581 280 656 275 631 l 275 551 b 128 418 213 541 128 522 b 145 350 128 395 134 371 l 167 350 b 166 363 166 354 166 359 b 233 424 166 389 177 424 b 275 424 247 424 261 424 l 275 340 b 273 281 275 320 275 300 b 204 174 266 232 241 193 z m 192 153 b 455 90 271 153 365 115 b 490 185 480 102 490 104 l 490 623 b 621 816 490 750 532 757 l 689 861 l 706 842 b 653 716 668 818 653 776 l 653 271 b 410 4 590 165 507 74 b 335 -23 390 -11 369 -23 b 288 -18 319 -23 304 -20 l 182 -4 b 166 -3 176 -4 171 -3 b 122 -44 141 -3 122 -19 b 179 -97 122 -74 149 -97 b 179 -97 179 -97 179 -97 l 179 -116 b 52 20 90 -116 52 -56 b 192 153 52 100 115 153 z "},"ı":{"ha":395,"x_min":0,"x_max":0,"o":"m 350 133 l 300 100 l 261 138 l 261 488 l 173 593 l 17 488 l 34 466 l 78 494 l 117 444 l 117 138 l 45 89 l 62 66 l 101 94 l 212 -6 l 378 111 z "},"Ĳ":{"ha":1377,"x_min":0,"x_max":0,"o":"m 965 358 b 994 358 975 358 985 358 l 994 58 b 939 -16 994 16 971 -7 l 939 -54 b 1147 153 1073 -54 1147 49 l 1147 628 b 1303 861 1147 727 1180 771 l 1277 885 b 1153 844 1242 858 1201 844 b 944 876 1080 844 1016 876 b 773 722 851 876 773 815 b 871 582 773 652 819 601 l 876 592 b 836 648 854 599 836 620 b 945 725 836 703 890 725 b 1068 716 986 725 1025 716 b 1132 721 1090 716 1111 718 b 994 534 1009 631 994 596 l 994 488 b 859 359 937 479 859 454 b 877 291 859 336 865 312 l 899 291 b 965 358 891 335 922 358 z m 845 179 b 933 93 893 179 933 140 b 850 10 933 45 897 10 b 815 17 838 10 826 12 b 975 -82 842 -40 897 -82 b 1197 177 1060 -82 1197 -27 l 1197 529 b 1384 863 1197 759 1267 775 l 1398 848 b 1350 624 1363 810 1350 751 l 1350 304 b 979 -110 1350 -95 1044 -110 b 845 -80 932 -110 886 -101 b 743 67 795 -55 743 -5 b 845 179 743 127 786 179 z m 204 174 l 242 174 b 408 282 307 193 377 226 b 425 371 421 307 425 335 l 425 460 l 425 624 b 486 756 425 725 457 730 b 587 848 519 784 557 801 l 589 878 b 490 841 557 848 518 841 b 318 870 433 841 377 870 b 109 703 195 870 128 748 l 137 703 b 215 749 148 731 177 749 b 358 733 262 749 308 733 b 386 734 367 733 376 733 b 347 707 373 726 360 717 b 275 581 280 656 275 631 l 275 551 b 128 418 213 541 128 522 b 145 350 128 395 134 371 l 167 350 b 166 363 166 354 166 359 b 233 424 166 389 177 424 b 275 424 247 424 261 424 l 275 340 b 273 281 275 320 275 300 b 204 174 266 232 241 193 z m 192 153 b 455 90 271 153 365 115 b 490 185 480 102 490 104 l 490 623 b 621 816 490 750 532 757 l 689 861 l 706 842 b 653 716 668 818 653 776 l 653 271 b 410 4 590 165 507 74 b 335 -23 390 -11 369 -23 b 288 -18 319 -23 304 -20 l 182 -4 b 166 -3 176 -4 171 -3 b 122 -44 141 -3 122 -19 b 179 -97 122 -74 149 -97 b 179 -97 179 -97 179 -97 l 179 -116 b 52 20 90 -116 52 -56 b 192 153 52 100 115 153 z "},"ĳ":{"ha":721,"x_min":0,"x_max":0,"o":"m 643 138 l 643 471 l 692 510 l 671 536 l 631 503 l 555 593 l 399 488 l 416 466 l 460 494 l 499 444 l 499 47 b 409 -175 499 -91 490 -175 l 409 -207 b 418 -207 412 -207 415 -207 b 641 30 504 -207 636 -156 z m 462 750 l 561 637 l 671 734 l 573 847 z m 347 133 l 297 100 l 258 138 l 258 488 l 169 593 l 14 488 l 30 466 l 75 494 l 114 444 l 114 138 l 42 89 l 58 66 l 97 94 l 208 -6 l 374 111 z m 77 750 l 175 637 l 286 734 l 187 847 z "},"Ĵ":{"ha":719,"x_min":0,"x_max":0,"o":"m 235 974 l 353 1091 l 478 974 l 563 1066 l 420 1199 l 214 995 z m 277 358 b 305 358 286 358 296 358 l 305 58 b 250 -16 305 16 282 -7 l 250 -54 b 458 153 384 -54 458 49 l 458 628 b 614 861 458 727 491 771 l 588 885 b 464 844 553 858 512 844 b 256 876 392 844 327 876 b 84 722 163 876 84 815 b 183 582 84 652 130 601 l 187 592 b 147 648 166 599 147 620 b 256 725 147 703 201 725 b 379 716 297 725 337 716 b 444 721 401 716 422 718 b 305 534 320 631 305 596 l 305 488 b 171 359 249 479 171 454 b 188 291 171 336 177 312 l 210 291 b 277 358 203 335 233 358 z m 156 179 b 245 93 204 179 245 140 b 162 10 245 45 209 10 b 127 17 150 10 138 12 b 287 -82 153 -40 209 -82 b 508 177 372 -82 508 -27 l 508 529 b 695 863 508 759 579 775 l 709 848 b 661 624 675 810 661 751 l 661 304 b 290 -110 661 -95 355 -110 b 156 -80 244 -110 197 -101 b 54 67 106 -55 54 -5 b 156 179 54 127 97 179 z "},"ĵ":{"ha":319,"x_min":0,"x_max":0,"o":"m -17 632 l 102 749 l 227 632 l 312 723 l 169 857 l -37 653 z m 246 138 l 246 471 l 295 510 l 274 536 l 234 503 l 158 593 l 2 488 l 19 466 l 63 494 l 102 444 l 102 47 b 12 -175 102 -91 93 -175 l 12 -207 b 21 -207 15 -207 18 -207 b 244 30 107 -207 239 -156 z "},"Ķ":{"ha":949,"x_min":0,"x_max":0,"o":"m 208 426 b 240 426 219 426 229 426 l 240 329 b 235 262 240 307 239 284 b 168 169 226 220 202 186 l 206 169 b 370 293 271 194 339 233 b 389 395 384 321 389 354 l 389 484 l 389 589 b 501 842 389 720 443 795 b 509 849 503 844 506 846 l 511 866 b 422 837 487 849 459 837 b 273 869 366 837 328 869 b 85 703 177 869 111 751 l 112 703 b 180 752 118 732 145 752 b 306 729 224 752 259 729 b 373 746 330 729 352 735 l 324 705 b 240 555 276 664 246 653 b 106 428 185 553 106 533 b 121 359 106 404 112 381 l 143 359 b 208 426 136 399 162 426 z m 535 688 l 552 671 l 596 720 b 683 688 622 703 652 692 l 468 435 l 472 609 b 608 856 475 728 520 795 l 589 883 b 440 610 427 770 441 640 l 434 358 b 298 161 432 272 403 229 b 96 -26 209 126 137 55 l 132 -26 b 210 43 150 3 177 27 b 310 -62 260 30 310 -5 b 230 -159 310 -116 259 -148 l 237 -168 b 413 -1 391 -95 413 -37 b 395 53 413 19 406 37 b 516 -9 439 40 480 19 l 678 118 b 781 -8 697 65 726 18 l 958 133 l 958 168 l 879 106 b 785 309 822 155 807 232 b 587 537 758 402 722 496 l 714 685 b 714 685 714 685 714 685 b 889 848 821 685 889 765 b 886 875 889 857 888 866 l 871 875 b 778 810 860 839 825 810 b 678 858 734 810 701 831 z m 383 183 b 467 357 451 241 465 288 l 468 403 l 472 403 l 487 420 b 638 256 580 402 614 334 b 671 138 649 217 658 177 l 637 111 b 425 186 578 159 501 186 b 383 183 411 186 397 185 z "},"ķ":{"ha":668,"x_min":0,"x_max":0,"o":"m 95 677 l 95 150 l 17 100 l 34 77 l 61 94 b 159 -11 110 80 159 46 b 79 -109 159 -65 108 -97 l 87 -117 b 262 42 230 -49 259 6 l 345 100 l 328 122 l 295 94 l 250 138 l 250 887 l 228 887 l 40 754 l 40 738 b 95 677 69 729 95 716 z m 485 422 b 628 588 579 422 616 506 l 606 588 b 531 543 593 564 566 543 b 456 588 496 543 469 564 l 445 588 l 273 322 l 500 -11 l 678 105 l 656 133 l 606 100 l 378 438 l 389 460 b 485 422 413 438 444 422 z "},"ĸ":{"ha":694,"x_min":0,"x_max":0,"o":"m 95 487 l 95 150 l 17 100 l 34 77 l 78 105 l 200 0 l 345 100 l 328 122 l 295 94 l 250 138 l 250 590 l 40 590 l 40 548 b 95 487 69 539 95 527 z m 485 422 b 628 588 579 422 616 506 l 606 588 b 531 543 593 564 566 543 b 456 588 496 543 469 564 l 445 588 l 273 322 l 500 -11 l 678 105 l 656 133 l 606 100 l 378 438 l 389 460 b 485 422 413 438 444 422 z "},"Ĺ":{"ha":832,"x_min":0,"x_max":0,"o":"m 552 1152 l 492 1198 l 393 994 l 403 986 z m 167 402 b 201 402 179 402 190 402 l 201 329 b 130 111 201 219 177 141 l 168 111 b 351 359 253 111 351 231 l 351 589 b 403 756 351 654 365 721 b 418 769 408 761 413 765 b 507 848 469 801 501 841 l 509 879 b 410 841 485 857 452 841 b 256 869 355 841 312 869 b 59 703 132 869 65 714 l 86 703 b 164 749 97 731 126 749 b 297 732 209 749 250 732 b 345 738 314 732 330 734 b 201 546 258 674 201 665 l 201 530 b 133 518 165 529 149 525 b 66 404 93 501 66 460 b 80 335 66 380 71 356 l 102 335 b 167 402 95 375 121 402 z m 424 175 b 551 378 520 248 551 288 l 551 646 b 666 847 551 745 577 821 l 685 853 l 685 878 l 672 876 b 402 546 490 843 402 770 l 402 373 b 354 162 402 272 391 204 b 106 -30 240 132 155 59 l 106 -52 b 400 45 190 11 290 45 b 650 -22 487 45 574 22 l 820 105 l 801 131 l 763 103 b 474 177 684 144 586 177 b 424 175 457 177 440 176 z "},"ĺ":{"ha":332,"x_min":0,"x_max":0,"o":"m 279 1115 l 219 1160 l 120 957 l 130 949 z m 250 138 l 250 887 l 228 887 l 40 754 l 40 738 b 95 653 90 721 95 708 l 95 150 l 17 100 l 34 77 l 78 105 l 200 0 l 345 100 l 328 122 l 295 94 z "},"Ļ":{"ha":832,"x_min":0,"x_max":0,"o":"m 167 402 b 201 402 179 402 190 402 l 201 329 b 130 111 201 219 177 141 l 168 111 b 351 359 253 111 351 231 l 351 589 b 403 756 351 654 365 721 b 418 769 408 761 413 765 b 507 848 469 801 501 841 l 509 879 b 410 841 485 857 452 841 b 256 869 355 841 312 869 b 59 703 132 869 65 714 l 86 703 b 164 749 97 731 126 749 b 297 732 209 749 250 732 b 345 738 314 732 330 734 b 201 546 258 674 201 665 l 201 530 b 133 518 165 529 149 525 b 66 404 93 501 66 460 b 80 335 66 380 71 356 l 102 335 b 167 402 95 375 121 402 z m 394 45 l 306 4 b 414 -103 359 -9 414 -44 b 334 -201 414 -158 363 -189 l 341 -210 b 517 -43 495 -136 517 -79 b 470 40 517 -7 496 21 b 650 -22 533 31 595 10 l 820 105 l 801 131 l 763 103 b 474 177 684 144 586 177 b 424 175 457 177 440 176 b 551 378 520 248 551 288 l 551 646 b 666 847 551 745 577 821 l 685 853 l 685 878 l 672 876 b 402 546 490 843 402 770 l 402 373 b 354 162 402 272 391 204 b 106 -30 240 132 155 59 l 106 -52 b 394 45 189 10 287 44 z "},"ļ":{"ha":332,"x_min":0,"x_max":0,"o":"m 250 138 l 250 887 l 228 887 l 40 754 l 40 738 b 95 653 90 721 95 708 l 95 150 l 17 100 l 34 77 l 64 96 b 154 -6 111 81 154 47 b 74 -104 154 -61 104 -92 l 82 -112 b 256 38 214 -49 249 2 l 345 100 l 328 122 l 295 94 z "},"Ľ":{"ha":832,"x_min":0,"x_max":0,"o":"m 292 1143 l 448 1000 l 658 1214 l 637 1235 l 513 1109 l 376 1235 z m 167 402 b 201 402 179 402 190 402 l 201 329 b 130 111 201 219 177 141 l 168 111 b 351 359 253 111 351 231 l 351 589 b 403 756 351 654 365 721 b 418 769 408 761 413 765 b 507 848 469 801 501 841 l 509 879 b 410 841 485 857 452 841 b 256 869 355 841 312 869 b 59 703 132 869 65 714 l 86 703 b 164 749 97 731 126 749 b 297 732 209 749 250 732 b 345 738 314 732 330 734 b 201 546 258 674 201 665 l 201 530 b 133 518 165 529 149 525 b 66 404 93 501 66 460 b 80 335 66 380 71 356 l 102 335 b 167 402 95 375 121 402 z m 424 175 b 551 378 520 248 551 288 l 551 646 b 666 847 551 745 577 821 l 685 853 l 685 878 l 672 876 b 402 546 490 843 402 770 l 402 373 b 354 162 402 272 391 204 b 106 -30 240 132 155 59 l 106 -52 b 400 45 190 11 290 45 b 650 -22 487 45 574 22 l 820 105 l 801 131 l 763 103 b 474 177 684 144 586 177 b 424 175 457 177 440 176 z "},"ľ":{"ha":332,"x_min":0,"x_max":0,"o":"m 296 1002 b 398 822 296 936 398 940 b 389 769 398 788 389 783 b 404 755 389 761 396 755 b 415 761 408 755 413 757 b 473 911 447 804 473 847 b 358 1064 473 1000 401 1064 b 296 1002 324 1064 296 1036 z m 250 138 l 250 887 l 228 887 l 40 754 l 40 738 b 95 653 90 721 95 708 l 95 150 l 17 100 l 34 77 l 78 105 l 200 0 l 345 100 l 328 122 l 295 94 z "},"Ŀ":{"ha":832,"x_min":0,"x_max":0,"o":"m 602 452 l 708 346 l 812 450 l 706 556 z m 167 402 b 201 402 179 402 190 402 l 201 329 b 130 111 201 219 177 141 l 168 111 b 351 359 253 111 351 231 l 351 589 b 403 756 351 654 365 721 b 418 769 408 761 413 765 b 507 848 469 801 501 841 l 509 879 b 410 841 485 857 452 841 b 256 869 355 841 312 869 b 59 703 132 869 65 714 l 86 703 b 164 749 97 731 126 749 b 297 732 209 749 250 732 b 345 738 314 732 330 734 b 201 546 258 674 201 665 l 201 530 b 133 518 165 529 149 525 b 66 404 93 501 66 460 b 80 335 66 380 71 356 l 102 335 b 167 402 95 375 121 402 z m 424 175 b 551 378 520 248 551 288 l 551 646 b 666 847 551 745 577 821 l 685 853 l 685 878 l 672 876 b 402 546 490 843 402 770 l 402 373 b 354 162 402 272 391 204 b 106 -30 240 132 155 59 l 106 -52 b 400 45 190 11 290 45 b 650 -22 487 45 574 22 l 820 105 l 801 131 l 763 103 b 474 177 684 144 586 177 b 424 175 457 177 440 176 z "},"ŀ":{"ha":605,"x_min":0,"x_max":0,"o":"m 384 468 l 490 362 l 594 466 l 488 572 z m 250 138 l 250 887 l 228 887 l 40 754 l 40 738 b 95 653 90 721 95 708 l 95 150 l 17 100 l 34 77 l 78 105 l 200 0 l 345 100 l 328 122 l 295 94 z "},"Ł":{"ha":795,"x_min":0,"x_max":0,"o":"m 28 203 l 157 267 b 89 111 149 190 126 135 l 127 111 b 309 343 208 111 301 222 l 360 369 b 312 162 360 270 349 204 b 64 -30 198 132 113 59 l 64 -52 b 358 45 148 11 249 45 b 608 -22 446 45 533 22 l 778 105 l 759 131 l 722 103 b 432 177 642 144 544 177 b 382 175 415 177 399 176 b 509 378 478 248 509 288 l 509 444 l 734 557 l 720 586 l 509 481 l 509 669 b 624 870 509 768 536 844 l 644 876 l 644 902 l 631 899 b 360 546 448 866 360 770 l 360 406 l 310 381 l 310 612 b 361 779 310 677 323 744 b 376 793 366 784 371 788 b 465 871 427 824 460 865 l 467 902 b 369 864 444 880 410 864 b 215 892 313 864 270 892 b 17 726 90 892 23 738 l 45 726 b 122 772 56 754 84 772 b 255 755 167 772 208 755 b 303 761 272 755 288 757 b 160 569 216 697 160 688 l 160 329 b 159 305 160 321 160 313 l 13 232 z "},"ł":{"ha":332,"x_min":0,"x_max":0,"o":"m 39 348 l 95 377 l 95 150 l 17 100 l 34 77 l 78 105 l 200 0 l 345 100 l 328 122 l 295 94 l 250 138 l 250 454 l 344 501 l 329 531 l 250 491 l 250 887 l 228 887 l 40 754 l 40 738 b 95 653 90 721 95 708 l 95 414 l 24 378 z "},"Ń":{"ha":802,"x_min":0,"x_max":0,"o":"m 597 1101 l 537 1147 l 438 943 l 448 936 z m 161 366 b 217 404 161 395 187 404 b 229 404 221 404 225 404 l 229 214 b 228 214 229 214 229 214 b 53 57 132 214 53 150 b 226 -89 53 -45 145 -102 l 232 -68 b 155 -4 192 -72 155 -43 b 214 50 155 29 181 50 b 310 0 256 50 288 24 l 459 166 l 443 183 l 404 138 b 262 211 355 188 300 205 l 262 672 b 271 657 265 667 268 662 l 659 0 l 703 0 l 703 681 b 850 818 782 687 850 739 b 836 876 850 838 846 858 l 821 877 b 750 816 817 842 788 816 b 660 865 709 816 679 841 l 637 866 l 493 699 l 510 682 l 554 732 b 670 681 581 706 622 685 b 670 299 670 554 670 426 l 392 765 b 246 877 361 817 330 877 b 101 725 166 877 101 809 b 104 693 101 714 102 704 l 127 688 b 178 750 127 727 145 750 b 229 717 195 750 212 737 l 229 560 b 228 560 229 560 228 560 b 88 430 151 560 88 503 b 170 323 88 375 126 334 l 176 339 b 161 366 167 345 161 355 z "},"ń":{"ha":645,"x_min":0,"x_max":0,"o":"m 443 823 l 383 869 l 284 666 l 294 658 z m 622 133 l 577 100 l 527 144 l 527 446 l 583 492 l 563 517 l 514 478 l 383 590 l 256 491 l 167 590 l 6 479 l 22 457 l 67 485 l 111 435 l 111 127 l 67 89 l 200 -17 l 311 83 l 261 127 l 261 445 l 311 485 l 394 413 l 394 127 l 355 89 l 472 -17 l 644 100 z "},"Ņ":{"ha":802,"x_min":0,"x_max":0,"o":"m 161 366 b 217 404 161 395 187 404 b 229 404 221 404 225 404 l 229 214 b 228 214 229 214 229 214 b 53 57 132 214 53 150 b 194 -91 53 -32 123 -87 l 88 -141 b 195 -248 140 -153 195 -188 b 115 -346 195 -303 144 -334 l 123 -355 b 298 -188 276 -281 298 -224 b 227 -89 298 -141 263 -108 l 232 -68 b 155 -4 192 -72 155 -43 b 214 50 155 29 181 50 b 310 0 256 50 288 24 l 459 166 l 443 183 l 404 138 b 262 211 355 188 300 205 l 262 672 b 271 657 265 667 268 662 l 659 0 l 703 0 l 703 681 b 850 818 782 687 850 739 b 836 876 850 838 846 858 l 821 877 b 750 816 817 842 788 816 b 660 865 709 816 679 841 l 637 866 l 493 699 l 510 682 l 554 732 b 670 681 581 706 622 685 b 670 299 670 554 670 426 l 392 765 b 246 877 361 817 330 877 b 101 725 166 877 101 809 b 104 693 101 714 102 704 l 127 688 b 178 750 127 727 145 750 b 229 717 195 750 212 737 l 229 560 b 228 560 229 560 228 560 b 88 430 151 560 88 503 b 170 323 88 375 126 334 l 176 339 b 161 366 167 345 161 355 z "},"ņ":{"ha":645,"x_min":0,"x_max":0,"o":"m 322 -8 l 197 -67 b 305 -174 250 -79 305 -114 b 225 -272 305 -229 254 -260 l 232 -280 b 408 -114 386 -207 408 -149 b 322 -8 408 -61 363 -26 z m 622 133 l 577 100 l 527 144 l 527 446 l 583 492 l 563 517 l 514 478 l 383 590 l 256 491 l 167 590 l 6 479 l 22 457 l 67 485 l 111 435 l 111 127 l 67 89 l 200 -17 l 311 83 l 261 127 l 261 445 l 311 485 l 394 413 l 394 127 l 355 89 l 472 -17 l 644 100 z "},"Ň":{"ha":802,"x_min":0,"x_max":0,"o":"m 348 1082 l 504 939 l 715 1153 l 693 1174 l 570 1048 l 433 1174 z m 161 366 b 217 404 161 395 187 404 b 229 404 221 404 225 404 l 229 214 b 228 214 229 214 229 214 b 53 57 132 214 53 150 b 226 -89 53 -45 145 -102 l 232 -68 b 155 -4 192 -72 155 -43 b 214 50 155 29 181 50 b 310 0 256 50 288 24 l 459 166 l 443 183 l 404 138 b 262 211 355 188 300 205 l 262 672 b 271 657 265 667 268 662 l 659 0 l 703 0 l 703 681 b 850 818 782 687 850 739 b 836 876 850 838 846 858 l 821 877 b 750 816 817 842 788 816 b 660 865 709 816 679 841 l 637 866 l 493 699 l 510 682 l 554 732 b 670 681 581 706 622 685 b 670 299 670 554 670 426 l 392 765 b 246 877 361 817 330 877 b 101 725 166 877 101 809 b 104 693 101 714 102 704 l 127 688 b 178 750 127 727 145 750 b 229 717 195 750 212 737 l 229 560 b 228 560 229 560 228 560 b 88 430 151 560 88 503 b 170 323 88 375 126 334 l 176 339 b 161 366 167 345 161 355 z "},"ň":{"ha":645,"x_min":0,"x_max":0,"o":"m 194 805 l 350 661 l 561 876 l 540 897 l 416 771 l 279 897 z m 622 133 l 577 100 l 527 144 l 527 446 l 583 492 l 563 517 l 514 478 l 383 590 l 256 491 l 167 590 l 6 479 l 22 457 l 67 485 l 111 435 l 111 127 l 67 89 l 200 -17 l 311 83 l 261 127 l 261 445 l 311 485 l 394 413 l 394 127 l 355 89 l 472 -17 l 644 100 z "},"Ō":{"ha":873,"x_min":0,"x_max":0,"o":"m 362 1028 l 678 1027 l 678 1151 l 362 1152 z m 231 698 l 302 728 b 302 354 302 603 302 479 l 222 320 b 192 497 202 374 192 435 b 231 698 192 571 206 639 z m 252 742 b 380 889 284 803 329 853 l 364 910 b 49 424 189 839 49 662 b 405 -33 49 163 211 -33 b 852 485 608 -33 852 221 b 585 885 852 682 727 823 z m 233 291 l 451 383 l 451 790 l 454 791 b 505 766 472 783 489 775 b 505 94 505 542 505 318 b 493 94 501 94 497 94 b 233 291 373 94 282 176 z m 538 99 b 538 319 538 172 538 246 l 731 417 b 733 366 733 400 733 383 b 538 99 733 219 643 121 z m 538 746 b 697 558 612 696 665 632 l 538 478 b 538 746 538 567 538 656 z m 538 441 l 708 527 b 727 452 717 503 723 477 l 538 356 b 538 441 538 384 538 412 z "},"ō":{"ha":546,"x_min":0,"x_max":0,"o":"m 150 685 l 466 684 l 466 808 l 150 809 z m 226 177 l 226 510 l 360 421 l 360 89 z m 38 78 l 86 117 l 249 0 l 504 155 l 504 471 l 337 599 l 77 449 b 77 152 77 350 77 251 l 17 104 z "},"Ŏ":{"ha":873,"x_min":0,"x_max":0,"o":"m 335 1091 l 414 1161 b 546 1099 440 1124 486 1099 b 639 1146 591 1099 625 1115 l 669 1132 b 499 1004 641 1069 588 1004 b 335 1091 424 1004 370 1044 z m 231 698 l 302 728 b 302 354 302 603 302 479 l 222 320 b 192 497 202 374 192 435 b 231 698 192 571 206 639 z m 252 742 b 380 889 284 803 329 853 l 364 910 b 49 424 189 839 49 662 b 405 -33 49 163 211 -33 b 852 485 608 -33 852 221 b 585 885 852 682 727 823 z m 233 291 l 451 383 l 451 790 l 454 791 b 505 766 472 783 489 775 b 505 94 505 542 505 318 b 493 94 501 94 497 94 b 233 291 373 94 282 176 z m 538 99 b 538 319 538 172 538 246 l 731 417 b 733 366 733 400 733 383 b 538 99 733 219 643 121 z m 538 746 b 697 558 612 696 665 632 l 538 478 b 538 746 538 567 538 656 z m 538 441 l 708 527 b 727 452 717 503 723 477 l 538 356 b 538 441 538 384 538 412 z "},"ŏ":{"ha":546,"x_min":0,"x_max":0,"o":"m 124 749 l 202 818 b 334 756 229 781 274 756 b 428 804 379 756 413 772 l 458 789 b 287 661 429 726 377 661 b 124 749 212 661 158 702 z m 226 177 l 226 510 l 360 421 l 360 89 z m 38 78 l 86 117 l 249 0 l 504 155 l 504 471 l 337 599 l 77 449 b 77 152 77 350 77 251 l 17 104 z "},"Ő":{"ha":873,"x_min":0,"x_max":0,"o":"m 601 1161 l 542 1207 l 443 1003 l 453 996 z m 724 1161 l 664 1207 l 565 1003 l 575 996 z m 231 698 l 302 728 b 302 354 302 603 302 479 l 222 320 b 192 497 202 374 192 435 b 231 698 192 571 206 639 z m 252 742 b 380 889 284 803 329 853 l 364 910 b 49 424 189 839 49 662 b 405 -33 49 163 211 -33 b 852 485 608 -33 852 221 b 585 885 852 682 727 823 z m 233 291 l 451 383 l 451 790 l 454 791 b 505 766 472 783 489 775 b 505 94 505 542 505 318 b 493 94 501 94 497 94 b 233 291 373 94 282 176 z m 538 99 b 538 319 538 172 538 246 l 731 417 b 733 366 733 400 733 383 b 538 99 733 219 643 121 z m 538 746 b 697 558 612 696 665 632 l 538 478 b 538 746 538 567 538 656 z m 538 441 l 708 527 b 727 452 717 503 723 477 l 538 356 b 538 441 538 384 538 412 z "},"ő":{"ha":546,"x_min":0,"x_max":0,"o":"m 390 818 l 330 864 l 231 661 l 241 653 z m 512 818 l 453 864 l 354 661 l 364 653 z m 226 177 l 226 510 l 360 421 l 360 89 z m 38 78 l 86 117 l 249 0 l 504 155 l 504 471 l 337 599 l 77 449 b 77 152 77 350 77 251 l 17 104 z "},"Œ":{"ha":1485,"x_min":0,"x_max":0,"o":"m 1322 890 l 1322 890 l 1322 890 l 1017 704 b 1141 820 1048 754 1090 794 l 1130 837 b 844 567 1007 797 896 700 b 585 885 815 721 707 832 l 252 742 b 380 889 284 803 329 853 l 364 910 b 49 424 189 839 49 662 b 405 -33 49 163 211 -33 b 823 323 565 -33 752 126 b 1218 -20 860 134 1022 -20 b 1547 278 1397 -20 1538 103 l 1524 278 b 1285 112 1481 198 1397 126 b 1285 385 1285 203 1285 294 l 1414 385 l 1555 532 l 1285 532 b 1285 735 1285 600 1285 667 b 1426 666 1330 709 1377 686 l 1564 810 l 1555 821 l 1518 791 b 1322 890 1444 814 1380 848 z m 987 288 b 956 459 966 339 956 397 b 989 648 956 530 968 594 l 1051 685 b 1051 315 1051 562 1051 439 z m 999 260 l 1200 344 l 1200 777 l 1209 782 b 1252 754 1223 773 1237 763 b 1252 110 1252 540 1252 325 b 1248 110 1250 110 1249 110 b 999 260 1128 110 1045 169 z m 231 698 l 302 728 b 302 354 302 603 302 479 l 222 320 b 192 497 202 374 192 435 b 231 698 192 571 206 639 z m 233 291 l 451 383 l 451 790 l 454 791 b 505 766 472 783 489 775 b 505 94 505 542 505 318 b 493 94 501 94 497 94 b 233 291 373 94 282 176 z m 538 99 b 538 319 538 172 538 246 l 731 417 b 733 366 733 400 733 383 b 538 99 733 219 643 121 z m 538 746 b 697 558 612 696 665 632 l 538 478 b 538 746 538 567 538 656 z m 538 441 l 708 527 b 727 452 717 503 723 477 l 538 356 b 538 441 538 384 538 412 z "},"œ":{"ha":804,"x_min":0,"x_max":0,"o":"m 226 177 l 226 510 l 360 421 l 360 89 z m 38 78 l 86 117 l 249 0 l 406 96 l 550 -11 l 789 183 l 772 211 l 644 111 l 506 205 l 506 255 l 755 410 l 755 416 l 639 593 l 464 502 l 337 599 l 77 449 b 77 152 77 350 77 251 l 17 104 z m 506 283 l 506 492 l 528 505 l 628 360 z "},"Ŕ":{"ha":949,"x_min":0,"x_max":0,"o":"m 539 1175 l 480 1221 l 380 1017 l 390 1010 z m 184 780 b 231 709 221 780 231 747 l 231 498 b 90 370 175 498 90 481 b 105 301 90 346 96 323 l 127 301 b 192 368 120 341 146 368 b 231 368 205 368 218 368 l 231 148 b 51 -30 152 110 88 45 l 86 -30 b 265 62 121 24 182 62 b 470 -13 367 62 448 5 l 655 133 b 763 -12 672 74 699 19 l 940 129 l 940 164 l 860 103 b 634 486 737 209 815 409 l 803 631 l 619 882 l 473 761 b 473 858 473 793 473 825 l 440 858 b 440 733 440 816 440 775 l 394 695 l 394 712 b 261 868 394 845 314 868 b 104 723 171 868 107 798 l 132 723 b 184 780 132 753 154 780 z m 394 182 l 394 655 l 440 696 b 440 177 440 523 440 350 b 394 182 425 180 409 181 z m 473 169 b 473 348 473 229 473 288 l 511 380 b 649 154 617 354 625 251 l 591 108 b 473 169 557 136 516 157 z m 473 724 l 509 755 l 656 546 l 473 388 b 473 724 473 500 473 612 z "},"ŕ":{"ha":466,"x_min":0,"x_max":0,"o":"m 390 837 l 330 883 l 231 679 l 241 672 z m 370 145 l 307 102 l 261 138 l 261 480 b 365 432 299 444 340 432 b 480 594 399 432 466 450 l 445 594 b 393 565 436 578 417 565 b 341 594 372 565 352 576 l 329 594 l 248 502 l 163 593 l 8 488 l 25 466 l 69 494 l 108 444 l 108 138 l 36 89 l 52 66 l 91 94 l 218 -6 l 391 119 z "},"Ŗ":{"ha":949,"x_min":0,"x_max":0,"o":"m 184 780 b 231 709 221 780 231 747 l 231 498 b 90 370 175 498 90 481 b 105 301 90 346 96 323 l 127 301 b 192 368 120 341 146 368 b 231 368 205 368 218 368 l 231 148 b 51 -30 152 110 88 45 l 86 -30 b 265 62 121 24 182 62 b 419 20 327 62 381 41 l 326 -24 b 433 -131 378 -36 433 -71 b 353 -229 433 -186 383 -217 l 361 -237 b 536 -71 514 -164 536 -106 b 496 7 536 -38 519 -12 l 655 133 b 763 -12 672 74 699 19 l 940 129 l 940 164 l 860 103 b 634 486 737 209 815 409 l 803 631 l 619 882 l 473 761 b 473 858 473 793 473 825 l 440 858 b 440 733 440 816 440 775 l 394 695 l 394 712 b 261 868 394 845 314 868 b 104 723 171 868 107 798 l 132 723 b 184 780 132 753 154 780 z m 394 182 l 394 655 l 440 696 b 440 177 440 523 440 350 b 394 182 425 180 409 181 z m 473 169 b 473 348 473 229 473 288 l 511 380 b 649 154 617 354 625 251 l 591 108 b 473 169 557 136 516 157 z m 473 724 l 509 755 l 656 546 l 473 388 b 473 724 473 500 473 612 z "},"ŗ":{"ha":466,"x_min":0,"x_max":0,"o":"m 370 145 l 307 102 l 261 138 l 261 480 b 365 432 299 444 340 432 b 480 594 399 432 466 450 l 445 594 b 393 565 436 578 417 565 b 341 594 372 565 352 576 l 329 594 l 248 502 l 163 593 l 8 488 l 25 466 l 69 494 l 108 444 l 108 138 l 36 89 l 52 66 l 91 94 l 179 25 l 84 -19 b 191 -126 136 -32 191 -67 b 112 -224 191 -181 141 -213 l 119 -233 b 295 -66 272 -160 295 -102 b 249 16 295 -31 274 -4 l 391 119 z "},"Ř":{"ha":949,"x_min":0,"x_max":0,"o":"m 290 1157 l 447 1013 l 657 1227 l 636 1248 l 512 1122 l 375 1248 z m 184 780 b 231 709 221 780 231 747 l 231 498 b 90 370 175 498 90 481 b 105 301 90 346 96 323 l 127 301 b 192 368 120 341 146 368 b 231 368 205 368 218 368 l 231 148 b 51 -30 152 110 88 45 l 86 -30 b 265 62 121 24 182 62 b 470 -13 367 62 448 5 l 655 133 b 763 -12 672 74 699 19 l 940 129 l 940 164 l 860 103 b 634 486 737 209 815 409 l 803 631 l 619 882 l 473 761 b 473 858 473 793 473 825 l 440 858 b 440 733 440 816 440 775 l 394 695 l 394 712 b 261 868 394 845 314 868 b 104 723 171 868 107 798 l 132 723 b 184 780 132 753 154 780 z m 394 182 l 394 655 l 440 696 b 440 177 440 523 440 350 b 394 182 425 180 409 181 z m 473 169 b 473 348 473 229 473 288 l 511 380 b 649 154 617 354 625 251 l 591 108 b 473 169 557 136 516 157 z m 473 724 l 509 755 l 656 546 l 473 388 b 473 724 473 500 473 612 z "},"ř":{"ha":466,"x_min":0,"x_max":0,"o":"m 141 819 l 297 675 l 508 889 l 486 911 l 363 785 l 226 910 z m 370 145 l 307 102 l 261 138 l 261 480 b 365 432 299 444 340 432 b 480 594 399 432 466 450 l 445 594 b 393 565 436 578 417 565 b 341 594 372 565 352 576 l 329 594 l 248 502 l 163 593 l 8 488 l 25 466 l 69 494 l 108 444 l 108 138 l 36 89 l 52 66 l 91 94 l 218 -6 l 391 119 z "},"Ś":{"ha":775,"x_min":0,"x_max":0,"o":"m 586 1105 l 527 1151 l 428 948 l 438 940 z m 110 689 l 110 456 l 272 350 l 262 341 b 52 21 179 267 52 153 b 340 -217 52 -123 188 -217 b 673 14 492 -217 639 -121 l 642 23 b 343 -128 608 -87 459 -128 b 88 -5 243 -128 109 -109 b 228 94 77 79 163 94 b 435 -4 315 94 386 49 l 752 196 l 752 486 b 580 581 704 526 645 560 b 774 911 670 662 773 761 l 774 927 l 762 927 l 762 927 l 758 927 l 741 927 b 741 927 741 927 741 927 l 741 927 b 602 814 735 857 672 814 b 428 889 535 814 472 848 z m 501 180 b 310 231 447 210 383 231 b 150 182 248 231 193 213 b 283 317 192 235 245 282 l 459 474 l 501 454 z m 533 161 l 533 438 l 600 405 l 600 139 l 578 128 b 533 161 564 140 549 151 z m 326 731 l 326 498 l 262 542 l 262 741 l 284 756 b 326 731 297 747 311 739 z m 358 714 b 526 674 407 691 462 674 b 662 711 576 674 623 687 b 531 582 622 661 573 619 l 389 454 l 358 475 z "},"ś":{"ha":505,"x_min":0,"x_max":0,"o":"m 383 818 l 324 864 l 225 661 l 235 653 z m 106 -60 l 117 -30 b 101 -1 108 -25 101 -15 b 155 43 101 27 128 43 b 241 -12 196 43 225 16 l 470 127 l 470 302 l 370 376 b 471 590 435 436 462 502 l 438 590 b 438 590 438 590 438 590 l 438 590 b 380 542 435 563 410 542 b 295 593 341 542 312 568 l 56 454 l 56 292 l 144 223 b 34 48 53 138 34 96 b 106 -60 34 -7 66 -45 z m 256 278 l 320 227 l 320 76 b 185 165 299 123 251 165 b 104 137 154 165 126 155 b 215 242 132 173 174 207 z m 253 318 l 205 367 l 205 518 b 330 433 229 459 280 433 b 388 444 351 433 370 437 b 338 391 372 422 355 406 z "},"Ŝ":{"ha":775,"x_min":0,"x_max":0,"o":"m 316 919 l 434 1036 l 559 919 l 644 1010 l 501 1144 l 295 940 z m 110 689 l 110 456 l 272 350 l 262 341 b 52 21 179 267 52 153 b 340 -217 52 -123 188 -217 b 673 14 492 -217 639 -121 l 642 23 b 343 -128 608 -87 459 -128 b 88 -5 243 -128 109 -109 b 228 94 77 79 163 94 b 435 -4 315 94 386 49 l 752 196 l 752 486 b 580 581 704 526 645 560 b 774 911 670 662 773 761 l 774 927 l 762 927 l 762 927 l 758 927 l 741 927 b 741 927 741 927 741 927 l 741 927 b 602 814 735 857 672 814 b 428 889 535 814 472 848 z m 501 180 b 310 231 447 210 383 231 b 150 182 248 231 193 213 b 283 317 192 235 245 282 l 459 474 l 501 454 z m 533 161 l 533 438 l 600 405 l 600 139 l 578 128 b 533 161 564 140 549 151 z m 326 731 l 326 498 l 262 542 l 262 741 l 284 756 b 326 731 297 747 311 739 z m 358 714 b 526 674 407 691 462 674 b 662 711 576 674 623 687 b 531 582 622 661 573 619 l 389 454 l 358 475 z "},"ŝ":{"ha":505,"x_min":0,"x_max":0,"o":"m 112 632 l 230 749 l 356 632 l 441 723 l 297 857 l 92 653 z m 106 -60 l 117 -30 b 101 -1 108 -25 101 -15 b 155 43 101 27 128 43 b 241 -12 196 43 225 16 l 470 127 l 470 302 l 370 376 b 471 590 435 436 462 502 l 438 590 b 438 590 438 590 438 590 l 438 590 b 380 542 435 563 410 542 b 295 593 341 542 312 568 l 56 454 l 56 292 l 144 223 b 34 48 53 138 34 96 b 106 -60 34 -7 66 -45 z m 256 278 l 320 227 l 320 76 b 185 165 299 123 251 165 b 104 137 154 165 126 155 b 215 242 132 173 174 207 z m 253 318 l 205 367 l 205 518 b 330 433 229 459 280 433 b 388 444 351 433 370 437 b 338 391 372 422 355 406 z "},"Ş":{"ha":775,"x_min":0,"x_max":0,"o":"m 110 689 l 110 456 l 272 350 l 262 341 b 52 21 179 267 52 153 b 340 -217 52 -123 188 -217 b 673 14 492 -217 639 -121 l 642 23 b 447 -118 618 -56 535 -100 b 487 -38 480 -85 487 -58 b 468 17 487 -17 479 1 l 752 196 l 752 486 b 580 581 704 526 645 560 b 774 911 670 662 773 761 l 774 927 l 762 927 l 762 927 l 758 927 l 741 927 b 741 927 741 927 741 927 l 741 927 b 602 814 735 857 672 814 b 428 889 535 814 472 848 z m 368 52 l 276 8 b 383 -99 329 -4 383 -39 b 378 -127 383 -109 382 -119 b 343 -128 366 -128 355 -128 b 88 -5 243 -128 109 -109 b 228 94 77 79 163 94 b 368 52 281 94 328 77 z m 501 180 b 310 231 447 210 383 231 b 150 182 248 231 193 213 b 283 317 192 235 245 282 l 459 474 l 501 454 z m 533 161 l 533 438 l 600 405 l 600 139 l 578 128 b 533 161 564 140 549 151 z m 326 731 l 326 498 l 262 542 l 262 741 l 284 756 b 326 731 297 747 311 739 z m 358 714 b 526 674 407 691 462 674 b 662 711 576 674 623 687 b 531 582 622 661 573 619 l 389 454 l 358 475 z "},"ş":{"ha":505,"x_min":0,"x_max":0,"o":"m 106 -60 l 117 -30 b 101 -1 108 -25 101 -15 b 155 43 101 27 128 43 b 229 6 188 43 213 26 l 147 -33 b 254 -140 199 -46 254 -81 b 174 -238 254 -195 204 -226 l 182 -247 b 357 -80 335 -173 357 -116 b 289 17 357 -35 324 -2 l 470 127 l 470 302 l 370 376 b 471 590 435 436 462 502 l 438 590 b 438 590 438 590 438 590 l 438 590 b 380 542 435 563 410 542 b 295 593 341 542 312 568 l 56 454 l 56 292 l 144 223 b 34 48 53 138 34 96 b 106 -60 34 -7 66 -45 z m 256 278 l 320 227 l 320 76 b 185 165 299 123 251 165 b 104 137 154 165 126 155 b 215 242 132 173 174 207 z m 253 318 l 205 367 l 205 518 b 330 433 229 459 280 433 b 388 444 351 433 370 437 b 338 391 372 422 355 406 z "},"Š":{"ha":775,"x_min":0,"x_max":0,"o":"m 338 1087 l 494 943 l 705 1158 l 683 1179 l 559 1053 l 422 1179 z m 110 689 l 110 456 l 272 350 l 262 341 b 52 21 179 267 52 153 b 340 -217 52 -123 188 -217 b 673 14 492 -217 639 -121 l 642 23 b 343 -128 608 -87 459 -128 b 88 -5 243 -128 109 -109 b 228 94 77 79 163 94 b 435 -4 315 94 386 49 l 752 196 l 752 486 b 580 581 704 526 645 560 b 774 911 670 662 773 761 l 774 927 l 762 927 l 762 927 l 758 927 l 741 927 b 741 927 741 927 741 927 l 741 927 b 602 814 735 857 672 814 b 428 889 535 814 472 848 z m 501 180 b 310 231 447 210 383 231 b 150 182 248 231 193 213 b 283 317 192 235 245 282 l 459 474 l 501 454 z m 533 161 l 533 438 l 600 405 l 600 139 l 578 128 b 533 161 564 140 549 151 z m 326 731 l 326 498 l 262 542 l 262 741 l 284 756 b 326 731 297 747 311 739 z m 358 714 b 526 674 407 691 462 674 b 662 711 576 674 623 687 b 531 582 622 661 573 619 l 389 454 l 358 475 z "},"š":{"ha":505,"x_min":0,"x_max":0,"o":"m 135 800 l 291 656 l 501 871 l 480 892 l 356 766 l 219 892 z m 106 -60 l 117 -30 b 101 -1 108 -25 101 -15 b 155 43 101 27 128 43 b 241 -12 196 43 225 16 l 470 127 l 470 302 l 370 376 b 471 590 435 436 462 502 l 438 590 b 438 590 438 590 438 590 l 438 590 b 380 542 435 563 410 542 b 295 593 341 542 312 568 l 56 454 l 56 292 l 144 223 b 34 48 53 138 34 96 b 106 -60 34 -7 66 -45 z m 256 278 l 320 227 l 320 76 b 185 165 299 123 251 165 b 104 137 154 165 126 155 b 215 242 132 173 174 207 z m 253 318 l 205 367 l 205 518 b 330 433 229 459 280 433 b 388 444 351 433 370 437 b 338 391 372 422 355 406 z "},"Ţ":{"ha":832,"x_min":0,"x_max":0,"o":"m 197 672 b 273 732 197 712 233 732 b 638 654 327 732 528 667 l 638 511 l 562 435 l 638 359 l 638 161 b 509 131 600 142 557 131 b 325 206 435 131 371 160 l 529 291 l 529 643 l 274 534 b 391 671 311 612 371 658 l 380 688 b 108 365 209 659 108 507 b 458 5 108 158 276 14 l 352 -46 b 459 -153 404 -58 459 -93 b 379 -251 459 -207 408 -239 l 387 -259 b 562 -93 540 -186 562 -128 b 494 5 562 -48 529 -15 b 813 321 674 12 813 150 b 813 333 813 325 813 329 l 791 333 b 670 180 768 274 727 219 l 670 357 l 747 435 l 670 512 l 670 651 b 671 651 670 651 671 651 b 828 779 755 651 828 696 b 635 915 828 864 744 923 l 635 893 b 724 842 671 888 724 883 b 675 805 724 817 700 805 b 318 888 569 805 416 888 b 135 732 206 888 135 815 b 214 610 135 672 170 629 l 225 627 b 197 672 209 634 197 650 z m 259 494 l 380 545 l 380 262 l 304 230 b 246 402 267 277 246 338 b 259 494 246 436 251 467 z "},"ţ":{"ha":397,"x_min":0,"x_max":0,"o":"m 257 137 l 257 491 l 340 491 l 395 554 l 257 554 l 257 688 l 235 688 l 46 498 l 46 482 b 102 427 69 482 102 472 l 102 148 l 24 98 l 41 76 l 85 104 l 206 -1 b 187 9 200 3 194 6 l 63 -50 b 170 -157 115 -63 170 -98 b 90 -255 170 -212 119 -244 l 98 -264 b 273 -97 251 -191 273 -133 b 207 -1 273 -53 241 -21 l 366 81 l 350 103 l 311 82 z "},"Ť":{"ha":832,"x_min":0,"x_max":0,"o":"m 324 1101 l 480 957 l 691 1172 l 669 1193 l 545 1067 l 409 1193 z m 197 672 b 273 732 197 712 233 732 b 638 654 327 732 528 667 l 638 511 l 562 435 l 638 359 l 638 161 b 509 131 600 142 557 131 b 325 206 435 131 371 160 l 529 291 l 529 643 l 274 534 b 391 671 311 612 371 658 l 380 688 b 108 365 209 659 108 507 b 478 4 108 151 288 4 b 813 321 665 4 813 145 b 813 333 813 325 813 329 l 791 333 b 670 180 768 274 727 219 l 670 357 l 747 435 l 670 512 l 670 651 b 671 651 670 651 671 651 b 828 779 755 651 828 696 b 635 915 828 864 744 923 l 635 893 b 724 842 671 888 724 883 b 675 805 724 817 700 805 b 318 888 569 805 416 888 b 135 732 206 888 135 815 b 214 610 135 672 170 629 l 225 627 b 197 672 209 634 197 650 z m 259 494 l 380 545 l 380 262 l 304 230 b 246 402 267 277 246 338 b 259 494 246 436 251 467 z "},"ť":{"ha":397,"x_min":0,"x_max":0,"o":"m 255 900 b 357 720 255 834 357 838 b 348 668 357 687 348 681 b 363 653 348 660 355 653 b 374 659 368 653 372 655 b 432 809 406 702 432 745 b 317 962 432 898 360 962 b 255 900 283 962 255 934 z m 257 137 l 257 491 l 340 491 l 395 554 l 257 554 l 257 688 l 235 688 l 46 498 l 46 482 b 102 427 69 482 102 472 l 102 148 l 24 98 l 41 76 l 85 104 l 207 -1 l 366 81 l 350 103 l 311 82 z "},"Ũ":{"ha":968,"x_min":0,"x_max":0,"o":"m 438 1010 b 628 960 512 1010 553 960 b 796 1081 713 960 768 1021 l 767 1097 b 688 1054 753 1071 726 1054 b 489 1102 612 1054 565 1102 b 318 987 404 1102 355 1039 l 347 971 b 438 1010 369 992 398 1010 z m 79 720 b 306 735 142 818 252 735 b 357 745 324 735 341 738 b 133 381 235 684 133 554 b 535 -13 133 168 314 -11 l 714 109 l 844 0 l 997 126 l 980 143 l 944 112 l 888 161 l 888 769 l 939 810 l 919 835 l 872 798 l 772 881 l 613 779 l 613 873 l 590 873 b 388 609 414 744 388 719 l 388 326 l 324 299 b 291 457 303 349 291 403 b 503 850 291 719 491 842 l 476 877 b 378 831 450 857 422 831 b 235 871 321 831 293 871 b 52 709 138 871 66 734 z m 581 831 b 581 109 581 590 581 349 b 338 271 468 115 385 183 l 538 355 l 538 709 b 581 831 538 777 552 809 z m 614 494 l 614 746 l 663 777 l 727 706 l 727 551 z m 614 457 l 727 514 l 727 430 l 614 372 z m 614 335 l 727 392 l 727 173 l 631 110 b 614 108 626 109 620 109 z "},"ũ":{"ha":603,"x_min":0,"x_max":0,"o":"m 204 713 b 394 664 278 713 319 664 b 562 785 480 664 534 724 l 533 801 b 454 758 519 775 493 758 b 255 805 378 758 331 805 b 85 691 170 805 121 743 l 114 675 b 204 713 135 696 164 713 z m 60 495 b 106 429 95 495 106 465 l 106 429 l 106 157 l 70 127 l 227 -5 l 373 110 b 462 -2 382 36 420 0 l 601 93 l 580 122 l 537 87 b 505 166 514 102 506 131 l 505 214 l 505 489 l 555 530 l 534 555 l 497 524 l 420 590 l 312 490 l 372 437 l 372 199 l 372 143 l 317 102 l 244 171 l 244 450 b 153 589 244 525 207 568 l 3 492 l 15 476 b 60 495 26 485 41 495 z "},"Ū":{"ha":968,"x_min":0,"x_max":0,"o":"m 412 996 l 728 994 l 728 1118 l 412 1119 z m 79 720 b 306 735 142 818 252 735 b 357 745 324 735 341 738 b 133 381 235 684 133 554 b 535 -13 133 168 314 -11 l 714 109 l 844 0 l 997 126 l 980 143 l 944 112 l 888 161 l 888 769 l 939 810 l 919 835 l 872 798 l 772 881 l 613 779 l 613 873 l 590 873 b 388 609 414 744 388 719 l 388 326 l 324 299 b 291 457 303 349 291 403 b 503 850 291 719 491 842 l 476 877 b 378 831 450 857 422 831 b 235 871 321 831 293 871 b 52 709 138 871 66 734 z m 581 831 b 581 109 581 590 581 349 b 338 271 468 115 385 183 l 538 355 l 538 709 b 581 831 538 777 552 809 z m 614 494 l 614 746 l 663 777 l 727 706 l 727 551 z m 614 457 l 727 514 l 727 430 l 614 372 z m 614 335 l 727 392 l 727 173 l 631 110 b 614 108 626 109 620 109 z "},"ū":{"ha":603,"x_min":0,"x_max":0,"o":"m 178 699 l 494 698 l 494 822 l 178 823 z m 60 495 b 106 429 95 495 106 465 l 106 429 l 106 157 l 70 127 l 227 -5 l 373 110 b 462 -2 382 36 420 0 l 601 93 l 580 122 l 537 87 b 505 166 514 102 506 131 l 505 214 l 505 489 l 555 530 l 534 555 l 497 524 l 420 590 l 312 490 l 372 437 l 372 199 l 372 143 l 317 102 l 244 171 l 244 450 b 153 589 244 525 207 568 l 3 492 l 15 476 b 60 495 26 485 41 495 z "},"Ŭ":{"ha":968,"x_min":0,"x_max":0,"o":"m 385 1059 l 464 1128 b 596 1066 490 1092 536 1066 b 689 1114 641 1066 675 1083 l 719 1099 b 549 971 691 1036 639 971 b 385 1059 474 971 420 1012 z m 79 720 b 306 735 142 818 252 735 b 357 745 324 735 341 738 b 133 381 235 684 133 554 b 535 -13 133 168 314 -11 l 714 109 l 844 0 l 997 126 l 980 143 l 944 112 l 888 161 l 888 769 l 939 810 l 919 835 l 872 798 l 772 881 l 613 779 l 613 873 l 590 873 b 388 609 414 744 388 719 l 388 326 l 324 299 b 291 457 303 349 291 403 b 503 850 291 719 491 842 l 476 877 b 378 831 450 857 422 831 b 235 871 321 831 293 871 b 52 709 138 871 66 734 z m 581 831 b 581 109 581 590 581 349 b 338 271 468 115 385 183 l 538 355 l 538 709 b 581 831 538 777 552 809 z m 614 494 l 614 746 l 663 777 l 727 706 l 727 551 z m 614 457 l 727 514 l 727 430 l 614 372 z m 614 335 l 727 392 l 727 173 l 631 110 b 614 108 626 109 620 109 z "},"ŭ":{"ha":603,"x_min":0,"x_max":0,"o":"m 151 763 l 230 832 b 362 770 256 795 302 770 b 456 818 407 770 441 786 l 485 803 b 315 675 457 740 405 675 b 151 763 240 675 186 715 z m 60 495 b 106 429 95 495 106 465 l 106 429 l 106 157 l 70 127 l 227 -5 l 373 110 b 462 -2 382 36 420 0 l 601 93 l 580 122 l 537 87 b 505 166 514 102 506 131 l 505 214 l 505 489 l 555 530 l 534 555 l 497 524 l 420 590 l 312 490 l 372 437 l 372 199 l 372 143 l 317 102 l 244 171 l 244 450 b 153 589 244 525 207 568 l 3 492 l 15 476 b 60 495 26 485 41 495 z "},"Ů":{"ha":968,"x_min":0,"x_max":0,"o":"m 421 984 b 530 875 421 924 470 875 b 639 984 590 875 639 924 b 530 1093 639 1044 590 1093 b 421 984 470 1093 421 1044 z m 454 984 b 530 1060 454 1026 488 1060 b 606 984 572 1060 606 1026 b 530 908 606 942 572 908 b 454 984 488 908 454 942 z m 79 720 b 306 735 142 818 252 735 b 357 745 324 735 341 738 b 133 381 235 684 133 554 b 535 -13 133 168 314 -11 l 714 109 l 844 0 l 997 126 l 980 143 l 944 112 l 888 161 l 888 769 l 939 810 l 919 835 l 872 798 l 772 881 l 613 779 l 613 873 l 590 873 b 388 609 414 744 388 719 l 388 326 l 324 299 b 291 457 303 349 291 403 b 503 850 291 719 491 842 l 476 877 b 378 831 450 857 422 831 b 235 871 321 831 293 871 b 52 709 138 871 66 734 z m 581 831 b 581 109 581 590 581 349 b 338 271 468 115 385 183 l 538 355 l 538 709 b 581 831 538 777 552 809 z m 614 494 l 614 746 l 663 777 l 727 706 l 727 551 z m 614 457 l 727 514 l 727 430 l 614 372 z m 614 335 l 727 392 l 727 173 l 631 110 b 614 108 626 109 620 109 z "},"ů":{"ha":603,"x_min":0,"x_max":0,"o":"m 188 688 b 296 579 188 627 236 579 b 405 688 356 579 405 627 b 296 796 405 748 356 796 b 188 688 236 796 188 748 z m 220 688 b 296 764 220 730 254 764 b 372 688 338 764 372 730 b 296 611 372 645 338 611 b 220 688 254 611 220 645 z m 60 495 b 106 429 95 495 106 465 l 106 429 l 106 157 l 70 127 l 227 -5 l 373 110 b 462 -2 382 36 420 0 l 601 93 l 580 122 l 537 87 b 505 166 514 102 506 131 l 505 214 l 505 489 l 555 530 l 534 555 l 497 524 l 420 590 l 312 490 l 372 437 l 372 199 l 372 143 l 317 102 l 244 171 l 244 450 b 153 589 244 525 207 568 l 3 492 l 15 476 b 60 495 26 485 41 495 z "},"Ű":{"ha":968,"x_min":0,"x_max":0,"o":"m 651 1128 l 592 1174 l 493 971 l 503 963 z m 774 1128 l 715 1174 l 615 971 l 625 963 z m 79 720 b 306 735 142 818 252 735 b 357 745 324 735 341 738 b 133 381 235 684 133 554 b 535 -13 133 168 314 -11 l 714 109 l 844 0 l 997 126 l 980 143 l 944 112 l 888 161 l 888 769 l 939 810 l 919 835 l 872 798 l 772 881 l 613 779 l 613 873 l 590 873 b 388 609 414 744 388 719 l 388 326 l 324 299 b 291 457 303 349 291 403 b 503 850 291 719 491 842 l 476 877 b 378 831 450 857 422 831 b 235 871 321 831 293 871 b 52 709 138 871 66 734 z m 581 831 b 581 109 581 590 581 349 b 338 271 468 115 385 183 l 538 355 l 538 709 b 581 831 538 777 552 809 z m 614 494 l 614 746 l 663 777 l 727 706 l 727 551 z m 614 457 l 727 514 l 727 430 l 614 372 z m 614 335 l 727 392 l 727 173 l 631 110 b 614 108 626 109 620 109 z "},"ű":{"ha":603,"x_min":0,"x_max":0,"o":"m 417 832 l 358 878 l 259 675 l 269 667 z m 540 832 l 481 878 l 382 675 l 392 667 z m 60 495 b 106 429 95 495 106 465 l 106 429 l 106 157 l 70 127 l 227 -5 l 373 110 b 462 -2 382 36 420 0 l 601 93 l 580 122 l 537 87 b 505 166 514 102 506 131 l 505 214 l 505 489 l 555 530 l 534 555 l 497 524 l 420 590 l 312 490 l 372 437 l 372 199 l 372 143 l 317 102 l 244 171 l 244 450 b 153 589 244 525 207 568 l 3 492 l 15 476 b 60 495 26 485 41 495 z "},"Ų":{"ha":968,"x_min":0,"x_max":0,"o":"m 448 -145 b 522 -13 448 -85 480 -39 b 535 -13 526 -13 531 -13 l 714 109 l 844 0 l 997 126 l 980 143 l 944 112 l 888 161 l 888 769 l 939 810 l 919 835 l 872 798 l 772 881 l 613 779 l 613 873 l 590 873 b 388 609 414 744 388 719 l 388 326 l 324 299 b 291 457 303 349 291 403 b 503 850 291 719 491 842 l 476 877 b 378 831 450 857 422 831 b 235 871 321 831 293 871 b 52 709 138 871 66 734 l 79 720 b 306 735 142 818 252 735 b 357 745 324 735 341 738 b 133 381 235 684 133 554 b 370 24 133 224 231 87 b 345 -62 355 -1 345 -30 b 521 -292 345 -178 480 -266 l 528 -280 b 448 -145 483 -256 448 -210 z m 581 831 b 581 109 581 590 581 349 b 338 271 468 115 385 183 l 538 355 l 538 709 b 581 831 538 777 552 809 z m 614 494 l 614 746 l 663 777 l 727 706 l 727 551 z m 614 457 l 727 514 l 727 430 l 614 372 z m 614 335 l 727 392 l 727 173 l 631 110 b 614 108 626 109 620 109 z "},"ų":{"ha":603,"x_min":0,"x_max":0,"o":"m 488 -169 b 595 -21 488 -93 538 -39 l 513 33 l 601 93 l 580 122 l 537 87 b 505 166 514 102 506 131 l 505 214 l 505 489 l 555 530 l 534 555 l 497 524 l 420 590 l 312 490 l 372 437 l 372 199 l 372 143 l 317 102 l 244 171 l 244 450 b 153 589 244 525 207 568 l 3 492 l 15 476 b 60 495 26 485 41 495 b 106 429 95 495 106 465 l 106 429 l 106 157 l 70 127 l 227 -5 l 373 110 b 418 14 379 63 396 32 b 384 -85 398 -13 384 -46 b 560 -315 384 -201 520 -289 l 567 -304 b 488 -169 522 -279 488 -233 z "},"Ŵ":{"ha":1159,"x_min":0,"x_max":0,"o":"m 510 960 l 628 1077 l 754 960 l 839 1052 l 695 1185 l 489 981 z m 179 415 b 225 415 194 415 210 415 b 225 179 225 337 225 258 b 57 15 136 142 80 68 l 79 15 b 248 75 126 54 187 75 b 442 -8 323 75 393 44 l 598 119 l 796 -16 l 1109 218 l 1109 755 l 995 861 l 837 743 b 837 846 837 777 837 812 l 803 846 b 803 168 803 620 803 394 l 743 208 l 743 755 l 629 862 l 472 744 b 472 846 472 778 472 812 l 439 846 b 439 186 439 626 439 406 b 386 199 422 192 404 196 l 386 590 l 386 610 b 386 662 386 627 386 644 b 374 763 386 700 386 731 b 224 858 352 818 299 858 b 74 716 135 858 67 795 l 103 716 b 167 771 108 745 134 771 b 225 696 229 771 225 700 l 225 598 b 225 547 225 581 225 564 b 141 527 196 543 167 539 b 73 417 103 509 73 472 b 91 349 73 393 79 369 l 113 349 b 179 415 105 392 136 415 z m 472 173 b 472 354 472 234 472 294 l 594 415 l 594 210 l 519 147 b 472 173 504 157 488 166 z m 472 513 b 472 712 472 579 472 646 l 519 747 l 594 685 l 594 574 z m 472 475 l 594 537 l 594 452 l 472 391 b 472 475 472 419 472 447 z m 837 513 b 837 710 837 578 837 644 l 884 746 l 959 684 l 959 575 z m 837 475 l 959 537 l 959 453 l 837 391 b 837 475 837 419 837 447 z m 837 354 l 959 416 l 959 158 l 891 109 l 824 153 l 837 154 b 837 354 837 220 837 287 z "},"ŵ":{"ha":829,"x_min":0,"x_max":0,"o":"m 344 632 l 462 749 l 588 632 l 673 723 l 529 857 l 323 653 z m 438 594 l 317 494 l 368 447 l 368 95 l 346 82 l 255 142 l 255 373 b 172 559 255 484 243 514 b 116 634 148 575 116 596 b 166 693 116 665 140 686 l 160 715 b 7 579 72 707 7 645 b 72 471 7 528 45 499 b 110 363 99 444 110 420 l 110 117 l 58 75 l 79 50 l 114 79 l 247 -16 l 393 64 l 504 -16 l 773 126 l 773 490 l 842 545 l 821 571 l 771 530 l 699 594 l 578 494 l 629 447 l 629 97 l 604 82 l 512 142 l 512 456 l 555 491 z "},"Ŷ":{"ha":826,"x_min":0,"x_max":0,"o":"m 250 900 l 368 1017 l 493 900 l 578 992 l 435 1125 l 229 921 z m 665 -227 b 626 -272 665 -251 646 -268 l 631 -294 b 674 -281 646 -292 660 -287 b 767 -155 720 -261 767 -220 b 603 -32 767 -73 692 -32 b 265 -87 451 -32 341 -87 b 177 -18 221 -87 177 -65 b 296 61 177 40 240 61 b 615 11 410 61 522 11 b 760 170 736 11 760 93 l 759 732 l 818 780 l 797 805 l 754 770 l 637 871 l 480 744 b 480 860 480 783 480 822 l 446 860 b 446 66 446 596 446 331 b 371 84 423 71 398 78 l 371 711 b 238 867 371 807 322 867 b 89 722 149 867 92 797 l 117 722 b 165 777 117 757 134 777 b 209 708 206 777 209 726 l 209 505 b 200 506 206 506 203 506 b 60 375 123 506 60 448 b 142 268 60 321 98 280 l 148 284 b 133 311 139 290 133 300 b 189 349 133 340 159 349 b 209 349 195 349 202 349 l 209 80 b 97 -75 139 53 97 -9 b 271 -228 97 -152 155 -228 b 600 -177 376 -228 522 -177 b 665 -227 633 -177 665 -193 z m 480 63 b 480 335 480 153 480 244 b 598 331 515 360 564 359 b 598 229 598 297 598 263 b 481 63 598 100 550 63 b 480 63 481 63 480 63 z m 480 703 l 535 747 l 598 694 b 598 509 598 632 598 570 b 480 505 564 481 515 479 b 480 703 480 571 480 637 z m 480 471 b 598 475 515 446 564 448 b 598 365 598 438 598 402 b 480 368 562 393 514 392 b 480 471 480 403 480 437 z "},"ŷ":{"ha":600,"x_min":0,"x_max":0,"o":"m 154 641 l 272 758 l 397 641 l 482 732 l 339 866 l 133 662 z m 160 -149 b 72 -178 128 -149 97 -159 l 56 -167 b 240 -39 81 -98 150 -39 b 383 -100 293 -39 346 -62 b 425 -49 408 -98 425 -77 b 387 75 425 -1 396 3 l 278 0 l 111 116 l 111 441 l 69 491 l 22 463 l 6 485 l 161 590 l 250 485 l 250 188 l 385 104 b 384 119 385 109 384 114 l 384 441 l 321 515 l 433 591 l 538 466 l 538 161 b 572 23 538 65 572 66 b 492 -61 572 -28 522 -40 l 278 -212 b 160 -149 253 -176 214 -149 z "},"Ÿ":{"ha":826,"x_min":0,"x_max":0,"o":"m 185 1053 l 291 947 l 395 1051 l 289 1157 z m 451 1053 l 557 947 l 661 1051 l 555 1157 z m 665 -227 b 626 -272 665 -251 646 -268 l 631 -294 b 674 -281 646 -292 660 -287 b 767 -155 720 -261 767 -220 b 603 -32 767 -73 692 -32 b 265 -87 451 -32 341 -87 b 177 -18 221 -87 177 -65 b 296 61 177 40 240 61 b 615 11 410 61 522 11 b 760 170 736 11 760 93 l 759 732 l 818 780 l 797 805 l 754 770 l 637 871 l 480 744 b 480 860 480 783 480 822 l 446 860 b 446 66 446 596 446 331 b 371 84 423 71 398 78 l 371 711 b 238 867 371 807 322 867 b 89 722 149 867 92 797 l 117 722 b 165 777 117 757 134 777 b 209 708 206 777 209 726 l 209 505 b 200 506 206 506 203 506 b 60 375 123 506 60 448 b 142 268 60 321 98 280 l 148 284 b 133 311 139 290 133 300 b 189 349 133 340 159 349 b 209 349 195 349 202 349 l 209 80 b 97 -75 139 53 97 -9 b 271 -228 97 -152 155 -228 b 600 -177 376 -228 522 -177 b 665 -227 633 -177 665 -193 z m 480 63 b 480 335 480 153 480 244 b 598 331 515 360 564 359 b 598 229 598 297 598 263 b 481 63 598 100 550 63 b 480 63 481 63 480 63 z m 480 703 l 535 747 l 598 694 b 598 509 598 632 598 570 b 480 505 564 481 515 479 b 480 703 480 571 480 637 z m 480 471 b 598 475 515 446 564 448 b 598 365 598 438 598 402 b 480 368 562 393 514 392 b 480 471 480 403 480 437 z "},"Ź":{"ha":777,"x_min":0,"x_max":0,"o":"m 532 1119 l 473 1165 l 373 962 l 383 954 z m 411 220 b 210 190 339 220 279 210 l 387 382 l 539 382 l 637 529 l 523 529 l 547 554 b 734 838 676 703 712 755 l 713 861 b 483 807 645 826 576 807 b 170 871 374 807 259 839 l 53 656 l 75 645 l 118 707 b 435 647 219 668 317 647 b 598 663 490 647 544 652 l 493 563 b 461 529 484 553 473 542 l 284 529 l 187 382 l 320 382 b 61 11 240 292 147 171 l 72 0 b 311 65 133 39 218 65 b 624 -2 428 65 534 33 l 767 183 l 751 194 l 717 155 b 411 220 622 198 530 220 z "},"ź":{"ha":500,"x_min":0,"x_max":0,"o":"m 333 823 l 274 869 l 175 666 l 185 658 z m 438 127 l 472 166 l 488 155 l 366 5 b 180 49 312 29 252 49 b 28 0 115 49 68 31 l 17 11 b 155 242 42 93 94 169 l 161 249 l 83 249 l 55 222 l 39 238 l 133 349 l 249 349 l 327 438 b 221 422 293 427 257 422 b 72 455 163 422 118 433 l 44 410 l 22 421 l 111 588 b 295 549 167 566 222 549 b 455 588 356 549 412 559 l 466 571 b 300 349 419 489 361 418 l 384 349 l 410 377 l 427 360 l 333 249 l 211 249 b 168 198 197 233 182 216 l 133 155 b 251 173 171 167 211 173 b 438 127 323 173 381 157 z "},"Ż":{"ha":777,"x_min":0,"x_max":0,"o":"m 336 1094 l 441 988 l 545 1092 l 440 1198 z m 411 220 b 210 190 339 220 279 210 l 387 382 l 539 382 l 637 529 l 523 529 l 547 554 b 734 838 676 703 712 755 l 713 861 b 483 807 645 826 576 807 b 170 871 374 807 259 839 l 53 656 l 75 645 l 118 707 b 435 647 219 668 317 647 b 598 663 490 647 544 652 l 493 563 b 461 529 484 553 473 542 l 284 529 l 187 382 l 320 382 b 61 11 240 292 147 171 l 72 0 b 311 65 133 39 218 65 b 624 -2 428 65 534 33 l 767 183 l 751 194 l 717 155 b 411 220 622 198 530 220 z "},"ż":{"ha":500,"x_min":0,"x_max":0,"o":"m 137 798 l 243 692 l 347 796 l 241 902 z m 438 127 l 472 166 l 488 155 l 366 5 b 180 49 312 29 252 49 b 28 0 115 49 68 31 l 17 11 b 155 242 42 93 94 169 l 161 249 l 83 249 l 55 222 l 39 238 l 133 349 l 249 349 l 327 438 b 221 422 293 427 257 422 b 72 455 163 422 118 433 l 44 410 l 22 421 l 111 588 b 295 549 167 566 222 549 b 455 588 356 549 412 559 l 466 571 b 300 349 419 489 361 418 l 384 349 l 410 377 l 427 360 l 333 249 l 211 249 b 168 198 197 233 182 216 l 133 155 b 251 173 171 167 211 173 b 438 127 323 173 381 157 z "},"Ž":{"ha":777,"x_min":0,"x_max":0,"o":"m 284 1101 l 440 957 l 650 1172 l 629 1193 l 505 1067 l 368 1193 z m 411 220 b 210 190 339 220 279 210 l 387 382 l 539 382 l 637 529 l 523 529 l 547 554 b 734 838 676 703 712 755 l 713 861 b 483 807 645 826 576 807 b 170 871 374 807 259 839 l 53 656 l 75 645 l 118 707 b 435 647 219 668 317 647 b 598 663 490 647 544 652 l 493 563 b 461 529 484 553 473 542 l 284 529 l 187 382 l 320 382 b 61 11 240 292 147 171 l 72 0 b 311 65 133 39 218 65 b 624 -2 428 65 534 33 l 767 183 l 751 194 l 717 155 b 411 220 622 198 530 220 z "},"ž":{"ha":500,"x_min":0,"x_max":0,"o":"m 85 805 l 241 661 l 451 876 l 430 897 l 306 771 l 169 897 z m 438 127 l 472 166 l 488 155 l 366 5 b 180 49 312 29 252 49 b 28 0 115 49 68 31 l 17 11 b 155 242 42 93 94 169 l 161 249 l 83 249 l 55 222 l 39 238 l 133 349 l 249 349 l 327 438 b 221 422 293 427 257 422 b 72 455 163 422 118 433 l 44 410 l 22 421 l 111 588 b 295 549 167 566 222 549 b 455 588 356 549 412 559 l 466 571 b 300 349 419 489 361 418 l 384 349 l 410 377 l 427 360 l 333 249 l 211 249 b 168 198 197 233 182 216 l 133 155 b 251 173 171 167 211 173 b 438 127 323 173 381 157 z "},"ſ":{"ha":383,"x_min":0,"x_max":0,"o":"m 95 150 l 95 150 l 17 100 l 34 77 l 78 105 l 200 0 l 360 82 l 343 104 l 305 84 l 239 138 l 239 716 l 239 785 l 365 705 l 508 785 l 353 881 l 95 736 l 95 587 l 40 527 l 40 511 b 95 456 63 511 95 501 l 95 150 z "},"Ə":{"ha":971,"x_min":0,"x_max":0,"o":"m 589 36 b 589 188 589 87 589 138 l 512 266 l 589 343 b 589 442 589 376 589 409 l 459 442 l 453 442 b 453 433 453 439 453 436 l 453 433 b 453 296 453 387 453 342 l 454 295 l 453 294 b 453 174 453 254 453 214 l 455 173 l 453 169 b 453 18 453 119 453 68 b 488 15 464 16 476 15 b 589 36 527 15 560 22 z m 622 55 b 773 442 726 128 766 287 l 622 442 b 622 341 622 408 622 375 l 698 266 l 622 190 b 622 55 622 145 622 100 z m 541 787 b 289 644 472 735 372 680 l 170 761 b 413 890 253 788 349 839 l 480 836 b 935 375 738 834 935 616 b 534 -28 935 148 765 -28 b 112 366 299 -28 112 157 l 298 522 l 420 522 l 420 545 b 509 635 420 602 471 635 l 731 635 b 541 787 688 714 619 770 z m 420 27 b 420 154 420 69 420 112 l 302 213 b 420 27 308 128 348 55 z m 420 442 l 301 442 b 301 372 301 442 301 412 l 420 312 b 420 442 420 356 420 399 z m 420 275 l 301 335 b 301 251 301 307 301 278 l 420 191 b 420 275 420 219 420 247 z m 461 475 l 774 476 b 773 500 774 484 773 492 b 519 500 688 500 604 500 b 461 475 497 500 473 498 z "},"ƿ":{"ha":556,"x_min":0,"x_max":0,"o":"m 236 -4 l 236 19 l 506 193 l 506 465 l 549 500 l 529 526 l 494 497 l 382 595 l 236 486 l 236 508 b 158 594 218 543 191 573 l 17 500 l 30 482 b 56 490 37 487 47 490 b 101 440 84 490 101 469 l 101 49 l 42 -1 l 101 -10 l 101 -201 l 124 -201 l 289 -102 l 289 -85 b 236 -4 251 -79 236 -49 z m 236 448 l 286 487 l 363 424 l 363 186 l 236 105 z "},"Ƿ":{"ha":838,"x_min":0,"x_max":0,"o":"m 418 36 l 418 -96 l 378 -96 l 378 50 b 418 36 392 46 405 42 z m 418 672 l 418 112 b 378 112 399 113 386 112 l 378 644 z m 451 317 l 652 419 l 652 399 l 451 98 z m 451 438 l 652 540 l 652 456 l 451 354 z m 652 662 l 652 577 l 451 476 l 451 695 l 543 760 b 652 662 583 732 620 698 z m 183 390 l 216 389 l 216 124 b 52 -34 148 89 89 34 l 79 -34 b 216 50 116 6 164 35 l 216 -129 l 451 -129 l 451 -96 l 451 19 b 496 -15 467 9 482 -2 l 800 409 l 800 740 b 656 881 760 794 712 842 l 451 731 l 451 853 l 418 853 l 418 707 l 378 678 l 378 699 b 246 855 378 832 299 855 b 89 710 156 855 92 785 l 117 710 b 172 766 122 737 141 766 b 216 697 203 766 216 740 l 216 505 b 80 379 142 509 80 452 b 87 337 80 365 83 351 l 114 337 b 114 340 114 338 114 339 b 183 390 114 379 142 390 z "},"ȷ":{"ha":319,"x_min":0,"x_max":0,"o":"m 246 138 l 246 471 l 295 510 l 274 536 l 234 503 l 158 593 l 2 488 l 19 466 l 63 494 l 102 444 l 102 47 b 12 -175 102 -91 93 -175 l 12 -207 b 21 -207 15 -207 18 -207 b 244 30 107 -207 239 -156 z "},"ə":{"ha":516,"x_min":0,"x_max":0,"o":"m 12 75 l 60 114 l 219 0 l 474 155 l 474 471 l 307 599 l 47 449 l 64 419 l 207 502 l 329 421 l 329 367 l 200 367 l 46 269 l 47 269 l 47 269 b 47 145 47 227 47 186 l -8 100 z m 329 280 l 329 89 l 196 177 l 198 280 z "},"̀":{"ha":0,"x_min":0,"x_max":0,"o":"m 74 795 l 133 841 l 232 638 l 222 630 z "},"́":{"ha":0,"x_min":0,"x_max":0,"o":"m 232 795 l 173 841 l 74 638 l 84 630 z "},"̂":{"ha":0,"x_min":0,"x_max":0,"o":"m 133 629 l 251 746 l 376 629 l 461 720 l 318 854 l 112 650 z "},"̃":{"ha":0,"x_min":0,"x_max":0,"o":"m 200 667 b 390 618 273 667 315 618 b 558 739 475 618 530 678 l 529 754 b 449 711 514 729 488 711 b 250 759 374 711 326 759 b 80 644 165 759 116 697 l 109 629 b 200 667 131 649 159 667 z "},"̄":{"ha":0,"x_min":0,"x_max":0,"o":"m 168 652 l 484 650 l 484 774 l 168 775 z "},"̅":{"ha":0,"x_min":0,"x_max":0,"o":"m 87 652 l 576 650 l 576 774 l 87 775 z "},"̆":{"ha":0,"x_min":0,"x_max":0,"o":"m 147 716 l 225 786 b 357 724 252 749 297 724 b 451 771 402 724 436 740 l 481 757 b 310 629 452 694 400 629 b 147 716 235 629 181 669 z "},"̇":{"ha":0,"x_min":0,"x_max":0,"o":"m 17 708 l 123 602 l 227 706 l 121 812 z "},"̈":{"ha":0,"x_min":0,"x_max":0,"o":"m 17 708 l 123 602 l 227 706 l 121 812 z m 284 708 l 389 602 l 493 706 l 388 812 z "},"̊":{"ha":0,"x_min":0,"x_max":0,"o":"m 100 715 b 208 606 100 655 148 606 b 317 715 268 606 317 655 b 208 824 317 775 268 824 b 100 715 148 824 100 775 z m 132 715 b 208 791 132 757 166 791 b 284 715 250 791 284 757 b 208 639 284 673 250 639 b 132 715 166 639 132 673 z "},"̋":{"ha":0,"x_min":0,"x_max":0,"o":"m 232 795 l 173 841 l 74 638 l 84 630 z m 355 795 l 296 841 l 196 638 l 206 630 z "},"̌":{"ha":0,"x_min":0,"x_max":0,"o":"m 105 727 l 261 583 l 472 797 l 450 819 l 327 693 l 190 818 z "},"̏":{"ha":0,"x_min":0,"x_max":0,"o":"m 196 795 l 256 841 l 355 638 l 345 630 z m 74 795 l 133 841 l 232 638 l 222 630 z "},"̕":{"ha":273,"x_min":0,"x_max":0,"o":"m -36 919 b 66 738 -36 853 66 857 b 57 686 66 705 57 700 b 71 672 57 678 63 672 b 83 678 76 672 81 674 b 141 827 114 721 141 764 b 26 980 141 917 69 980 b -36 919 -8 980 -36 953 z "},"̧":{"ha":0,"x_min":0,"x_max":0,"o":"m 134 197 l 9 138 b 116 31 62 126 116 91 b 37 -67 116 -24 66 -55 l 44 -76 b 220 91 197 -2 220 55 b 134 197 220 143 175 179 z "},"̨":{"ha":0,"x_min":0,"x_max":0,"o":"m 119 -31 b 227 117 119 44 169 98 l 102 198 b 16 52 58 171 16 119 b 192 -178 16 -64 152 -151 l 199 -166 b 119 -31 154 -141 119 -95 z "},"ͤ":{"ha":0,"x_min":0,"x_max":0,"o":"m 235 691 b 231 725 233 703 231 714 b 271 780 231 750 244 780 b 313 767 285 780 300 775 z m 362 719 b 319 692 353 716 324 698 b 291 659 309 681 315 659 b 256 669 278 659 266 666 b 334 748 280 697 309 722 b 365 785 340 754 365 776 b 303 819 365 808 315 819 b 247 798 281 819 262 805 b 180 710 215 777 180 761 b 255 620 180 672 209 620 b 327 650 280 620 303 636 b 366 704 369 675 366 696 b 362 719 366 710 363 714 z "}," ":{"ha":581,"x_min":0,"x_max":0,"o":""}," ":{"ha":1256,"x_min":0,"x_max":0,"o":""}," ":{"ha":35,"x_min":0,"x_max":0,"o":""},"‘":{"ha":277,"x_min":0,"x_max":0,"o":"m 118 877 l 275 774 l 260 750 l 245 759 b 215 770 237 765 228 770 b 136 647 161 770 136 701 b 215 512 136 583 169 536 l 208 500 b 32 731 43 609 32 692 b 118 877 32 798 74 850 z "},"’":{"ha":277,"x_min":0,"x_max":0,"o":"m 174 877 l 17 774 l 32 750 l 47 759 b 77 770 56 765 64 770 b 156 647 131 770 156 701 b 77 512 156 583 124 536 l 84 500 b 260 731 249 609 260 692 b 174 877 260 798 219 850 z "},"“":{"ha":589,"x_min":0,"x_max":0,"o":"m 103 877 l 260 774 l 245 750 l 230 759 b 200 770 222 765 213 770 b 121 647 146 770 121 701 b 200 512 121 583 154 536 l 193 500 b 17 731 28 609 17 692 b 103 877 17 798 59 850 z m 416 877 l 572 774 l 557 750 l 543 759 b 512 770 534 765 526 770 b 434 647 458 770 434 701 b 513 512 434 583 466 536 l 505 500 b 330 731 340 609 330 692 b 416 877 330 798 371 850 z "},"”":{"ha":589,"x_min":0,"x_max":0,"o":"m 487 877 l 330 774 l 345 750 l 360 759 b 390 770 368 765 377 770 b 469 647 444 770 469 701 b 389 512 469 583 436 536 l 397 500 b 572 731 562 609 572 692 b 487 877 572 798 531 850 z m 174 877 l 17 774 l 32 750 l 47 759 b 77 770 56 765 64 770 b 156 647 131 770 156 701 b 77 512 156 583 124 536 l 84 500 b 260 731 249 609 260 692 b 174 877 260 798 219 850 z "},"…":{"ha":1008,"x_min":0,"x_max":0,"o":"m 781 93 l 887 -13 l 991 91 l 885 197 z m 399 93 l 505 -13 l 609 91 l 503 197 z m 17 93 l 123 -13 l 227 91 l 121 197 z "},"⁄":{"ha":214,"x_min":0,"x_max":0,"o":"m 579 917 l 445 917 l -350 -49 l -218 -50 z "},"⁰":{"ha":517,"x_min":0,"x_max":0,"o":"m 473 271 b 259 539 473 403 399 539 b 45 271 119 539 45 403 b 259 0 45 138 118 0 b 473 271 399 0 473 138 z m 260 40 b 167 143 196 40 167 78 l 167 392 b 260 506 167 457 196 506 b 354 390 326 506 354 455 l 354 143 b 260 40 354 81 322 40 z "},"⁴":{"ha":473,"x_min":0,"x_max":0,"o":"m 374 253 b 374 546 374 351 374 448 l 311 546 l 311 546 l 311 546 l 16 229 l 16 168 l 252 168 l 252 8 l 374 8 b 374 168 374 61 374 115 l 434 168 l 463 276 l 448 284 b 374 253 428 266 404 257 z m 252 439 l 252 251 l 82 251 z "},"⁵":{"ha":443,"x_min":0,"x_max":0,"o":"m 328 543 l 145 543 l 93 251 b 309 123 221 270 309 222 b 197 1 309 58 262 1 b 108 56 153 1 121 25 b 119 55 111 56 115 55 b 174 110 150 55 174 80 b 117 166 174 141 148 166 b 51 93 79 166 51 131 b 201 -24 51 17 129 -24 b 409 169 310 -24 409 60 b 136 363 409 291 309 384 l 149 434 l 352 434 l 415 568 l 399 575 b 328 543 387 552 362 543 z "},"⁶":{"ha":479,"x_min":0,"x_max":0,"o":"m 331 455 b 382 402 331 425 353 402 b 434 459 413 402 434 427 b 292 555 434 526 359 555 b 40 263 130 555 40 426 b 261 -1 40 120 121 -1 b 454 183 363 -1 454 74 b 251 371 454 293 361 371 b 165 355 222 371 192 366 b 165 366 165 359 165 362 b 300 516 165 446 222 516 b 358 501 320 516 340 511 b 331 455 343 493 331 477 z m 367 179 b 270 42 367 115 338 42 b 168 192 197 42 168 121 b 264 324 168 258 198 324 b 367 179 336 324 367 246 z "},"⁷":{"ha":422,"x_min":0,"x_max":0,"o":"m 422 539 l 70 539 l 32 393 l 48 385 b 111 417 57 408 80 417 l 325 417 l 142 0 l 188 0 z "},"⁸":{"ha":497,"x_min":0,"x_max":0,"o":"m 465 161 b 345 305 465 234 412 282 b 441 424 399 324 441 362 b 262 553 441 515 350 553 b 71 421 171 553 71 516 b 162 305 71 361 110 324 b 45 154 95 282 45 230 b 251 0 45 49 150 0 b 465 161 357 0 465 50 z m 252 323 b 175 418 203 323 175 370 b 253 516 175 466 202 516 b 330 418 303 516 330 467 b 252 323 330 370 302 323 z m 250 290 b 252 290 251 290 251 290 b 258 290 254 290 256 290 b 351 170 318 288 351 227 b 254 50 351 111 317 50 b 159 170 190 50 159 110 b 250 290 159 228 189 287 z "},"⁹":{"ha":473,"x_min":0,"x_max":0,"o":"m 165 93 b 115 144 165 122 143 144 b 63 89 84 144 63 119 b 201 2 63 26 136 2 b 446 299 361 2 446 141 b 229 545 446 433 363 545 b 38 359 122 545 38 468 b 229 170 38 251 121 170 b 319 192 260 170 291 178 b 188 37 314 115 270 37 b 139 49 171 37 154 41 b 165 93 154 57 165 72 z m 136 368 b 230 496 136 430 164 496 b 328 353 300 496 328 422 b 235 228 328 291 300 228 b 136 368 165 228 136 302 z "},"₀":{"ha":517,"x_min":0,"x_max":0,"o":"m 473 653 b 259 921 473 785 399 921 b 45 653 119 921 45 785 b 259 382 45 520 118 382 b 473 653 399 382 473 520 z m 260 422 b 167 525 196 422 167 460 l 167 774 b 260 888 167 839 196 888 b 354 772 326 888 354 837 l 354 525 b 260 422 354 463 322 422 z "},"₁":{"ha":407,"x_min":0,"x_max":0,"o":"m 265 920 l 125 924 l 124 872 b 156 809 147 862 156 842 l 156 383 l 265 383 z "},"₂":{"ha":473,"x_min":0,"x_max":0,"o":"m 442 525 l 427 533 b 353 506 410 513 385 506 l 77 506 b 427 778 200 550 427 632 b 247 929 427 873 341 929 b 37 777 153 929 37 875 b 104 703 37 738 65 703 b 159 757 133 703 159 728 b 105 814 159 786 136 814 b 86 811 96 814 90 813 b 209 889 100 852 144 889 b 311 778 272 889 311 841 b 36 505 311 666 113 559 l 36 397 l 381 398 z "},"₃":{"ha":473,"x_min":0,"x_max":0,"o":"m 163 513 b 106 571 163 545 137 571 b 41 499 68 571 41 537 b 58 445 41 478 47 461 b 207 378 86 402 144 378 b 438 572 325 378 438 453 b 283 742 438 664 369 731 l 402 812 l 417 920 l 116 919 l 55 792 l 70 784 b 144 811 86 804 107 811 l 337 811 l 107 670 l 131 653 b 202 672 152 665 177 672 b 337 541 276 672 337 618 b 197 404 337 463 274 404 b 82 461 153 404 109 426 b 106 456 89 458 97 456 b 163 513 139 456 163 483 z "},"₄":{"ha":473,"x_min":0,"x_max":0,"o":"m 374 635 b 374 928 374 733 374 830 l 311 928 l 311 928 l 311 928 l 16 611 l 16 550 l 252 550 l 252 389 l 374 389 b 374 550 374 443 374 497 l 434 550 l 463 658 l 448 666 b 374 635 428 648 404 639 z m 252 821 l 252 633 l 82 633 z "},"₅":{"ha":443,"x_min":0,"x_max":0,"o":"m 328 925 l 145 925 l 93 633 b 309 505 221 652 309 604 b 197 383 309 439 262 383 b 108 438 153 383 121 407 b 119 437 111 438 115 437 b 174 492 150 437 174 462 b 117 548 174 523 148 548 b 51 475 79 548 51 513 b 201 358 51 399 129 358 b 409 551 310 358 409 442 b 136 745 409 673 309 766 l 149 816 l 352 816 l 415 950 l 399 957 b 328 925 387 934 362 925 z "},"₆":{"ha":479,"x_min":0,"x_max":0,"o":"m 331 837 b 382 784 331 807 353 784 b 434 840 413 784 434 809 b 292 937 434 908 359 937 b 40 645 130 937 40 808 b 261 381 40 501 121 381 b 454 565 363 381 454 455 b 251 753 454 674 361 753 b 165 737 222 753 192 748 b 165 748 165 741 165 744 b 300 898 165 828 222 898 b 358 883 320 898 340 893 b 331 837 343 875 331 859 z m 367 561 b 270 424 367 496 338 424 b 168 574 197 424 168 503 b 264 706 168 640 198 706 b 367 561 336 706 367 628 z "},"₇":{"ha":422,"x_min":0,"x_max":0,"o":"m 422 921 l 70 921 l 32 775 l 48 767 b 111 799 57 790 80 799 l 325 799 l 142 382 l 188 382 z "},"₈":{"ha":497,"x_min":0,"x_max":0,"o":"m 465 543 b 345 687 465 616 412 664 b 441 806 399 706 441 744 b 262 935 441 897 350 935 b 71 803 171 935 71 898 b 162 687 71 743 110 706 b 45 536 95 664 45 612 b 251 382 45 431 150 382 b 465 543 357 382 465 432 z m 252 705 b 175 800 203 705 175 752 b 253 898 175 848 202 898 b 330 800 303 898 330 849 b 252 705 330 752 302 705 z m 250 672 b 252 672 251 672 251 672 b 258 672 254 672 256 672 b 351 552 318 670 351 609 b 254 432 351 493 317 432 b 159 552 190 432 159 492 b 250 672 159 610 189 669 z "},"₉":{"ha":473,"x_min":0,"x_max":0,"o":"m 165 475 b 115 526 165 504 143 526 b 63 471 84 526 63 501 b 201 384 63 408 136 384 b 446 681 361 384 446 523 b 229 927 446 815 363 927 b 38 741 122 927 38 850 b 229 552 38 633 121 552 b 319 574 260 552 291 559 b 188 419 314 497 270 419 b 139 431 171 419 154 423 b 165 475 154 439 165 454 z m 136 750 b 230 878 136 812 164 878 b 328 735 300 878 328 803 b 235 610 328 673 300 610 b 136 750 165 610 136 684 z "},"₿":{"ha":933,"x_min":0,"x_max":0,"o":"m 598 -61 b 598 31 598 -30 598 1 l 634 50 b 634 -61 634 13 634 -24 l 668 -61 b 668 67 668 -18 668 25 l 916 196 l 916 486 b 758 577 871 523 818 555 l 902 678 l 715 897 b 668 880 699 892 683 886 b 668 914 668 891 668 903 l 634 914 b 634 865 634 898 634 881 b 598 847 622 859 610 853 b 598 914 598 869 598 892 l 565 914 b 565 828 565 885 565 857 b 363 649 486 780 417 718 l 363 287 b 333 181 363 241 352 208 b 37 -37 202 155 98 70 l 65 -37 b 304 53 120 17 200 53 b 529 -4 382 53 460 32 l 565 14 b 565 -61 565 -11 565 -36 z m 123 425 b 159 425 135 425 147 425 b 159 346 159 399 159 373 b 88 138 159 249 152 175 l 99 110 b 308 352 207 137 308 209 l 308 639 b 346 725 308 683 322 705 l 517 859 l 525 884 b 421 856 498 868 462 856 b 263 878 367 856 318 878 b 63 734 162 878 92 804 l 90 734 b 171 785 102 765 131 785 b 313 758 223 785 260 758 b 326 758 318 758 322 758 b 228 696 294 738 261 717 b 159 585 190 672 159 649 l 159 584 l 159 555 b 85 536 133 551 108 547 b 17 426 47 518 17 481 b 35 358 17 402 24 379 l 57 358 b 123 425 49 403 81 425 z m 634 480 b 634 123 634 361 634 242 b 598 145 623 131 611 138 b 598 494 598 261 598 378 b 634 480 610 490 623 485 z m 668 465 b 764 405 702 447 735 427 l 764 139 l 670 95 b 668 97 669 96 668 96 b 668 465 668 219 668 342 z m 565 160 b 418 189 522 178 473 189 b 394 188 410 189 402 189 b 517 406 456 240 517 293 l 517 709 b 565 795 517 745 538 776 b 565 160 565 583 565 372 z m 634 754 b 634 532 634 680 634 606 l 598 505 b 598 797 598 602 598 700 z m 668 715 l 750 618 l 668 557 b 668 715 668 610 668 662 z "},"⃝":{"ha":874,"x_min":0,"x_max":0,"o":"m -28 289 b 439 -176 -28 33 181 -176 b 907 289 697 -176 907 33 b 439 755 907 546 697 755 b -28 289 181 755 -28 546 z m -5 289 b 439 731 -5 533 194 731 b 884 289 685 731 884 533 b 439 -153 884 45 685 -153 b -5 289 194 -153 -5 45 z "},"⸗":{"ha":449,"x_min":0,"x_max":0,"o":"m 88 59 l 403 291 l 369 334 l 56 103 z m 89 341 l 403 573 l 370 618 l 57 387 z "},"ꝛ":{"ha":374,"x_min":0,"x_max":0,"o":"m 146 593 l 45 424 l 71 406 b 123 456 71 428 96 456 b 201 351 150 456 201 440 b 70 107 201 251 70 107 l 233 -1 l 335 123 l 317 141 l 290 117 l 184 184 b 333 396 248 235 333 300 b 146 593 333 519 146 593 z "},"":{"ha":517,"x_min":0,"x_max":0,"o":"m 473 271 b 259 539 473 403 399 539 b 45 271 119 539 45 403 b 259 0 45 138 118 0 b 473 271 399 0 473 138 z m 260 40 b 167 143 196 40 167 78 l 167 392 b 260 506 167 457 196 506 b 354 390 326 506 354 455 l 354 143 b 260 40 354 81 322 40 z "},"":{"ha":517,"x_min":0,"x_max":0,"o":"m 473 653 b 259 921 473 785 399 921 b 45 653 119 921 45 785 b 259 382 45 520 118 382 b 473 653 399 382 473 520 z m 260 422 b 167 525 196 422 167 460 l 167 774 b 260 888 167 839 196 888 b 354 772 326 888 354 837 l 354 525 b 260 422 354 463 322 422 z "},"":{"ha":407,"x_min":0,"x_max":0,"o":"m 265 538 l 125 542 l 124 490 b 156 427 147 481 156 460 l 156 2 l 265 2 z "},"":{"ha":407,"x_min":0,"x_max":0,"o":"m 265 920 l 125 924 l 124 872 b 156 809 147 862 156 842 l 156 383 l 265 383 z "},"":{"ha":473,"x_min":0,"x_max":0,"o":"m 442 143 l 427 151 b 353 124 410 131 385 124 l 77 124 b 427 396 200 168 427 250 b 247 547 427 491 341 547 b 37 395 153 547 37 493 b 104 321 37 356 65 321 b 159 375 133 321 159 346 b 105 432 159 404 136 432 b 86 429 96 432 90 431 b 209 507 100 470 144 507 b 311 396 272 507 311 459 b 36 123 311 284 113 177 l 36 15 l 381 16 z "},"":{"ha":473,"x_min":0,"x_max":0,"o":"m 442 525 l 427 533 b 353 506 410 513 385 506 l 77 506 b 427 778 200 550 427 632 b 247 929 427 873 341 929 b 37 777 153 929 37 875 b 104 703 37 738 65 703 b 159 757 133 703 159 728 b 105 814 159 786 136 814 b 86 811 96 814 90 813 b 209 889 100 852 144 889 b 311 778 272 889 311 841 b 36 505 311 666 113 559 l 36 397 l 381 398 z "},"":{"ha":473,"x_min":0,"x_max":0,"o":"m 163 131 b 106 189 163 163 137 189 b 41 117 68 189 41 155 b 58 63 41 96 47 79 b 207 -4 86 20 144 -4 b 438 190 325 -4 438 71 b 283 360 438 282 369 350 l 402 430 l 417 538 l 116 537 l 55 410 l 70 402 b 144 429 86 422 107 429 l 337 429 l 107 288 l 131 271 b 202 290 152 283 177 290 b 337 159 276 290 337 236 b 197 22 337 81 274 22 b 82 79 153 22 109 44 b 106 74 89 76 97 74 b 163 131 139 74 163 101 z "},"":{"ha":473,"x_min":0,"x_max":0,"o":"m 163 513 b 106 571 163 545 137 571 b 41 499 68 571 41 537 b 58 445 41 478 47 461 b 207 378 86 402 144 378 b 438 572 325 378 438 453 b 283 742 438 664 369 731 l 402 812 l 417 920 l 116 919 l 55 792 l 70 784 b 144 811 86 804 107 811 l 337 811 l 107 670 l 131 653 b 202 672 152 665 177 672 b 337 541 276 672 337 618 b 197 404 337 463 274 404 b 82 461 153 404 109 426 b 106 456 89 458 97 456 b 163 513 139 456 163 483 z "},"":{"ha":473,"x_min":0,"x_max":0,"o":"m 374 253 b 374 546 374 351 374 448 l 311 546 l 311 546 l 311 546 l 16 229 l 16 168 l 252 168 l 252 8 l 374 8 b 374 168 374 61 374 115 l 434 168 l 463 276 l 448 284 b 374 253 428 266 404 257 z m 252 439 l 252 251 l 82 251 z "},"":{"ha":473,"x_min":0,"x_max":0,"o":"m 374 635 b 374 928 374 733 374 830 l 311 928 l 311 928 l 311 928 l 16 611 l 16 550 l 252 550 l 252 389 l 374 389 b 374 550 374 443 374 497 l 434 550 l 463 658 l 448 666 b 374 635 428 648 404 639 z m 252 821 l 252 633 l 82 633 z "},"":{"ha":443,"x_min":0,"x_max":0,"o":"m 328 543 l 145 543 l 93 251 b 309 123 221 270 309 222 b 197 1 309 58 262 1 b 108 56 153 1 121 25 b 119 55 111 56 115 55 b 174 110 150 55 174 80 b 117 166 174 141 148 166 b 51 93 79 166 51 131 b 201 -24 51 17 129 -24 b 409 169 310 -24 409 60 b 136 363 409 291 309 384 l 149 434 l 352 434 l 415 568 l 399 575 b 328 543 387 552 362 543 z "},"":{"ha":443,"x_min":0,"x_max":0,"o":"m 328 925 l 145 925 l 93 633 b 309 505 221 652 309 604 b 197 383 309 439 262 383 b 108 438 153 383 121 407 b 119 437 111 438 115 437 b 174 492 150 437 174 462 b 117 548 174 523 148 548 b 51 475 79 548 51 513 b 201 358 51 399 129 358 b 409 551 310 358 409 442 b 136 745 409 673 309 766 l 149 816 l 352 816 l 415 950 l 399 957 b 328 925 387 934 362 925 z "},"":{"ha":479,"x_min":0,"x_max":0,"o":"m 331 455 b 382 402 331 425 353 402 b 434 459 413 402 434 427 b 292 555 434 526 359 555 b 40 263 130 555 40 426 b 261 -1 40 120 121 -1 b 454 183 363 -1 454 74 b 251 371 454 293 361 371 b 165 355 222 371 192 366 b 165 366 165 359 165 362 b 300 516 165 446 222 516 b 358 501 320 516 340 511 b 331 455 343 493 331 477 z m 367 179 b 270 42 367 115 338 42 b 168 192 197 42 168 121 b 264 324 168 258 198 324 b 367 179 336 324 367 246 z "},"":{"ha":479,"x_min":0,"x_max":0,"o":"m 331 837 b 382 784 331 807 353 784 b 434 840 413 784 434 809 b 292 937 434 908 359 937 b 40 645 130 937 40 808 b 261 381 40 501 121 381 b 454 565 363 381 454 455 b 251 753 454 674 361 753 b 165 737 222 753 192 748 b 165 748 165 741 165 744 b 300 898 165 828 222 898 b 358 883 320 898 340 893 b 331 837 343 875 331 859 z m 367 561 b 270 424 367 496 338 424 b 168 574 197 424 168 503 b 264 706 168 640 198 706 b 367 561 336 706 367 628 z "},"":{"ha":422,"x_min":0,"x_max":0,"o":"m 422 539 l 70 539 l 32 393 l 48 385 b 111 417 57 408 80 417 l 325 417 l 142 0 l 188 0 z "},"":{"ha":422,"x_min":0,"x_max":0,"o":"m 422 921 l 70 921 l 32 775 l 48 767 b 111 799 57 790 80 799 l 325 799 l 142 382 l 188 382 z "},"":{"ha":497,"x_min":0,"x_max":0,"o":"m 465 161 b 345 305 465 234 412 282 b 441 424 399 324 441 362 b 262 553 441 515 350 553 b 71 421 171 553 71 516 b 162 305 71 361 110 324 b 45 154 95 282 45 230 b 251 0 45 49 150 0 b 465 161 357 0 465 50 z m 252 323 b 175 418 203 323 175 370 b 253 516 175 466 202 516 b 330 418 303 516 330 467 b 252 323 330 370 302 323 z m 250 290 b 252 290 251 290 251 290 b 258 290 254 290 256 290 b 351 170 318 288 351 227 b 254 50 351 111 317 50 b 159 170 190 50 159 110 b 250 290 159 228 189 287 z "},"":{"ha":497,"x_min":0,"x_max":0,"o":"m 465 543 b 345 687 465 616 412 664 b 441 806 399 706 441 744 b 262 935 441 897 350 935 b 71 803 171 935 71 898 b 162 687 71 743 110 706 b 45 536 95 664 45 612 b 251 382 45 431 150 382 b 465 543 357 382 465 432 z m 252 705 b 175 800 203 705 175 752 b 253 898 175 848 202 898 b 330 800 303 898 330 849 b 252 705 330 752 302 705 z m 250 672 b 252 672 251 672 251 672 b 258 672 254 672 256 672 b 351 552 318 670 351 609 b 254 432 351 493 317 432 b 159 552 190 432 159 492 b 250 672 159 610 189 669 z "},"":{"ha":473,"x_min":0,"x_max":0,"o":"m 165 93 b 115 144 165 122 143 144 b 63 89 84 144 63 119 b 201 2 63 26 136 2 b 446 299 361 2 446 141 b 229 545 446 433 363 545 b 38 359 122 545 38 468 b 229 170 38 251 121 170 b 319 192 260 170 291 178 b 188 37 314 115 270 37 b 139 49 171 37 154 41 b 165 93 154 57 165 72 z m 136 368 b 230 496 136 430 164 496 b 328 353 300 496 328 422 b 235 228 328 291 300 228 b 136 368 165 228 136 302 z "},"":{"ha":473,"x_min":0,"x_max":0,"o":"m 165 475 b 115 526 165 504 143 526 b 63 471 84 526 63 501 b 201 384 63 408 136 384 b 446 681 361 384 446 523 b 229 927 446 815 363 927 b 38 741 122 927 38 850 b 229 552 38 633 121 552 b 319 574 260 552 291 559 b 188 419 314 497 270 419 b 139 431 171 419 154 423 b 165 475 154 439 165 454 z m 136 750 b 230 878 136 812 164 878 b 328 735 300 878 328 803 b 235 610 328 673 300 610 b 136 750 165 610 136 684 z "},"":{"ha":677,"x_min":0,"x_max":0,"o":"m 74 155 l 83 178 b 70 201 75 182 70 190 b 112 235 70 223 91 235 b 179 193 144 235 167 214 l 358 301 l 358 438 l 280 496 b 359 664 331 543 352 594 l 334 664 b 334 663 334 664 334 664 l 333 664 b 288 626 331 642 312 626 b 222 665 257 626 235 646 l 35 557 l 35 430 l 103 376 b 17 239 33 312 17 281 b 74 155 17 197 43 167 z m 429 576 l 429 320 l 368 281 l 378 270 l 411 290 l 529 193 l 661 281 l 653 291 l 602 257 l 551 302 l 551 590 b 651 590 584 590 618 590 l 651 640 l 551 640 l 551 746 l 533 746 l 386 632 l 386 619 b 388 620 386 620 387 620 b 429 576 414 620 429 603 z m 64 75 l 64 32 l 600 32 l 600 75 z m 191 419 l 241 379 l 241 261 b 136 331 225 298 187 331 b 72 309 112 331 89 323 b 159 391 97 341 133 369 z m 189 451 l 151 489 l 151 607 b 250 540 166 571 201 540 b 294 549 266 540 281 543 b 256 508 282 532 268 519 z "},"":{"ha":898,"x_min":0,"x_max":0,"o":"m 213 75 l 213 32 l 749 32 l 749 75 z m 626 671 l 725 581 l 725 300 l 626 369 z m 619 677 l 505 607 l 505 320 l 509 317 l 484 300 l 439 343 l 439 603 l 322 703 l 219 623 l 147 703 l 17 614 l 27 602 l 62 624 l 103 578 l 103 329 l 67 298 l 174 213 l 264 293 l 224 329 l 224 602 l 254 626 l 331 560 l 331 329 l 300 298 l 394 213 l 528 304 l 640 227 l 845 348 l 845 622 l 881 651 l 873 661 l 839 634 l 512 922 l 512 754 l 531 758 z "},"":{"ha":757,"x_min":0,"x_max":0,"o":"m 131 75 l 131 32 l 666 32 l 666 75 z m 316 335 l 268 299 l 220 337 l 220 644 b 303 606 240 623 268 606 b 395 735 370 606 388 675 l 367 735 b 325 712 359 723 345 712 b 284 735 308 712 292 721 l 274 735 l 210 662 l 142 735 l 17 651 l 25 640 l 61 662 l 97 615 l 97 337 l 40 298 l 48 288 l 78 310 l 186 222 l 324 322 z m 485 671 l 584 581 l 584 300 l 485 369 z m 478 677 l 364 607 l 364 320 l 499 227 l 704 348 l 705 621 l 741 650 l 733 660 l 700 633 l 371 922 l 371 754 l 390 758 z "}}}
